<mxfile host="Electron" agent="Mozilla/5.0 (X11; Linux x86_64) AppleWebKit/537.36 (KHTML, like Gecko) draw.io/25.0.2 Chrome/128.0.6613.186 Electron/32.2.5 Safari/537.36" version="25.0.2">
  <diagram name="Seite-1" id="zuBeWzuygKJnSn4UXPCa">
    <mxGraphModel dx="1195" dy="716" grid="1" gridSize="10" guides="1" tooltips="1" connect="1" arrows="1" fold="1" page="1" pageScale="1" pageWidth="827" pageHeight="1169" math="0" shadow="0">
      <root>
        <mxCell id="0" />
        <mxCell id="1" parent="0" />
        <mxCell id="9p8DOmJokwP15oGAAXyM-31" style="edgeStyle=orthogonalEdgeStyle;rounded=0;orthogonalLoop=1;jettySize=auto;html=1;exitX=0.5;exitY=0;exitDx=0;exitDy=0;entryX=0.5;entryY=1;entryDx=0;entryDy=0;curved=1;dashed=1;startArrow=classic;startFill=1;" edge="1" parent="1" source="9p8DOmJokwP15oGAAXyM-37" target="9p8DOmJokwP15oGAAXyM-28">
          <mxGeometry relative="1" as="geometry">
            <mxPoint x="499" y="340" as="sourcePoint" />
          </mxGeometry>
        </mxCell>
        <mxCell id="9p8DOmJokwP15oGAAXyM-19" style="edgeStyle=orthogonalEdgeStyle;rounded=0;orthogonalLoop=1;jettySize=auto;html=1;exitX=0.5;exitY=1;exitDx=0;exitDy=0;entryX=0.522;entryY=0.037;entryDx=0;entryDy=0;startArrow=classic;startFill=1;entryPerimeter=0;curved=1;" edge="1" parent="1" source="9p8DOmJokwP15oGAAXyM-42" target="9p8DOmJokwP15oGAAXyM-37">
          <mxGeometry relative="1" as="geometry">
            <mxPoint x="479" y="260.0000000000001" as="sourcePoint" />
            <mxPoint x="479" y="340" as="targetPoint" />
          </mxGeometry>
        </mxCell>
        <mxCell id="9p8DOmJokwP15oGAAXyM-27" value="Authentication" style="edgeLabel;html=1;align=center;verticalAlign=middle;resizable=0;points=[];" vertex="1" connectable="0" parent="9p8DOmJokwP15oGAAXyM-19">
          <mxGeometry x="0.0083" relative="1" as="geometry">
            <mxPoint as="offset" />
          </mxGeometry>
        </mxCell>
        <mxCell id="9p8DOmJokwP15oGAAXyM-5" style="edgeStyle=orthogonalEdgeStyle;rounded=0;orthogonalLoop=1;jettySize=auto;html=1;entryX=0;entryY=0.5;entryDx=0;entryDy=0;curved=1;startArrow=classic;startFill=1;" edge="1" parent="1" target="9p8DOmJokwP15oGAAXyM-37">
          <mxGeometry relative="1" as="geometry">
            <mxPoint x="270" y="351" as="sourcePoint" />
            <mxPoint x="439" y="380" as="targetPoint" />
          </mxGeometry>
        </mxCell>
        <mxCell id="9p8DOmJokwP15oGAAXyM-24" value="Authentication &amp;amp;&lt;br&gt;Authorization" style="edgeLabel;html=1;align=center;verticalAlign=middle;resizable=0;points=[];" vertex="1" connectable="0" parent="9p8DOmJokwP15oGAAXyM-5">
          <mxGeometry x="-0.0217" y="-2" relative="1" as="geometry">
            <mxPoint as="offset" />
          </mxGeometry>
        </mxCell>
        <mxCell id="9p8DOmJokwP15oGAAXyM-7" style="edgeStyle=orthogonalEdgeStyle;rounded=0;orthogonalLoop=1;jettySize=auto;html=1;exitX=0;exitY=0.5;exitDx=0;exitDy=0;entryX=1;entryY=0.5;entryDx=0;entryDy=0;curved=1;startArrow=classic;startFill=1;" edge="1" parent="1" source="9p8DOmJokwP15oGAAXyM-6" target="9p8DOmJokwP15oGAAXyM-37">
          <mxGeometry relative="1" as="geometry">
            <mxPoint x="519.0000000000002" y="380" as="targetPoint" />
          </mxGeometry>
        </mxCell>
        <mxCell id="9p8DOmJokwP15oGAAXyM-25" value="&lt;span style=&quot;color: rgba(0, 0, 0, 0); font-family: monospace; font-size: 0px; text-align: start; background-color: rgb(27, 29, 30);&quot;&gt;%3CmxGraphModel%3E%3Croot%3E%3CmxCell%20id%3D%220%22%2F%3E%3CmxCell%20id%3D%221%22%20parent%3D%220%22%2F%3E%3CmxCell%20id%3D%222%22%20value%3D%22Authentication%20%26amp%3Bamp%3B%26lt%3Bbr%26gt%3BAuthorization%22%20style%3D%22edgeLabel%3Bhtml%3D1%3Balign%3Dcenter%3BverticalAlign%3Dmiddle%3Bresizable%3D0%3Bpoints%3D%5B%5D%3B%22%20vertex%3D%221%22%20connectable%3D%220%22%20parent%3D%221%22%3E%3CmxGeometry%20x%3D%22353%22%20y%3D%22362.5%22%20as%3D%22geometry%22%2F%3E%3C%2FmxCell%3E%3C%2Froot%3E%3C%2FmxGraphModel%3Au&lt;/span&gt;" style="edgeLabel;html=1;align=center;verticalAlign=middle;resizable=0;points=[];" vertex="1" connectable="0" parent="9p8DOmJokwP15oGAAXyM-7">
          <mxGeometry x="0.381" y="-10" relative="1" as="geometry">
            <mxPoint as="offset" />
          </mxGeometry>
        </mxCell>
        <mxCell id="9p8DOmJokwP15oGAAXyM-26" value="Authentication &amp;amp;&lt;br&gt;Authorization" style="edgeLabel;html=1;align=center;verticalAlign=middle;resizable=0;points=[];" vertex="1" connectable="0" parent="9p8DOmJokwP15oGAAXyM-7">
          <mxGeometry x="0.0984" y="-4" relative="1" as="geometry">
            <mxPoint as="offset" />
          </mxGeometry>
        </mxCell>
        <mxCell id="9p8DOmJokwP15oGAAXyM-12" style="edgeStyle=orthogonalEdgeStyle;rounded=0;orthogonalLoop=1;jettySize=auto;html=1;exitX=0.5;exitY=1;exitDx=0;exitDy=0;entryX=1;entryY=0.5;entryDx=0;entryDy=0;curved=1;" edge="1" parent="1" source="9p8DOmJokwP15oGAAXyM-6" target="9p8DOmJokwP15oGAAXyM-8">
          <mxGeometry relative="1" as="geometry">
            <Array as="points">
              <mxPoint x="719" y="400" />
              <mxPoint x="559" y="400" />
              <mxPoint x="559" y="510" />
            </Array>
          </mxGeometry>
        </mxCell>
        <mxCell id="9p8DOmJokwP15oGAAXyM-13" value="starts" style="edgeLabel;html=1;align=center;verticalAlign=middle;resizable=0;points=[];" vertex="1" connectable="0" parent="9p8DOmJokwP15oGAAXyM-12">
          <mxGeometry x="0.0821" relative="1" as="geometry">
            <mxPoint x="15" y="20" as="offset" />
          </mxGeometry>
        </mxCell>
        <mxCell id="9p8DOmJokwP15oGAAXyM-6" value="SimpleVM&lt;div&gt;Portal&lt;/div&gt;" style="whiteSpace=wrap;html=1;aspect=fixed;" vertex="1" parent="1">
          <mxGeometry x="679" y="290" width="80" height="80" as="geometry" />
        </mxCell>
        <mxCell id="9p8DOmJokwP15oGAAXyM-20" style="edgeStyle=orthogonalEdgeStyle;rounded=0;orthogonalLoop=1;jettySize=auto;html=1;exitX=1;exitY=0.75;exitDx=0;exitDy=0;curved=1;" edge="1" parent="1" source="9p8DOmJokwP15oGAAXyM-8" target="9p8DOmJokwP15oGAAXyM-10">
          <mxGeometry relative="1" as="geometry" />
        </mxCell>
        <mxCell id="9p8DOmJokwP15oGAAXyM-21" value="get metadata" style="edgeLabel;html=1;align=center;verticalAlign=middle;resizable=0;points=[];" vertex="1" connectable="0" parent="9p8DOmJokwP15oGAAXyM-20">
          <mxGeometry x="-0.2438" y="-2" relative="1" as="geometry">
            <mxPoint as="offset" />
          </mxGeometry>
        </mxCell>
        <mxCell id="9p8DOmJokwP15oGAAXyM-22" style="edgeStyle=orthogonalEdgeStyle;rounded=0;orthogonalLoop=1;jettySize=auto;html=1;exitX=0;exitY=0.5;exitDx=0;exitDy=0;entryX=0.46;entryY=0.937;entryDx=0;entryDy=0;startArrow=classic;startFill=1;curved=1;entryPerimeter=0;" edge="1" parent="1" source="9p8DOmJokwP15oGAAXyM-8" target="9p8DOmJokwP15oGAAXyM-36">
          <mxGeometry relative="1" as="geometry">
            <mxPoint x="229" y="390" as="targetPoint" />
          </mxGeometry>
        </mxCell>
        <mxCell id="9p8DOmJokwP15oGAAXyM-23" value="access buckets/objects&lt;br&gt;using users credentials&amp;nbsp;" style="edgeLabel;html=1;align=center;verticalAlign=middle;resizable=0;points=[];" vertex="1" connectable="0" parent="9p8DOmJokwP15oGAAXyM-22">
          <mxGeometry x="-0.1781" y="-38" relative="1" as="geometry">
            <mxPoint x="-13" as="offset" />
          </mxGeometry>
        </mxCell>
        <mxCell id="9p8DOmJokwP15oGAAXyM-8" value="Simple&lt;div&gt;VM&lt;/div&gt;" style="whiteSpace=wrap;html=1;aspect=fixed;" vertex="1" parent="1">
          <mxGeometry x="439" y="470" width="80" height="80" as="geometry" />
        </mxCell>
        <mxCell id="9p8DOmJokwP15oGAAXyM-10" value="Metadata&lt;br&gt;Server" style="shape=cylinder3;whiteSpace=wrap;html=1;boundedLbl=1;backgroundOutline=1;size=15;" vertex="1" parent="1">
          <mxGeometry x="649" y="500" width="60" height="80" as="geometry" />
        </mxCell>
        <mxCell id="9p8DOmJokwP15oGAAXyM-11" style="edgeStyle=orthogonalEdgeStyle;rounded=0;orthogonalLoop=1;jettySize=auto;html=1;entryX=0.5;entryY=0;entryDx=0;entryDy=0;entryPerimeter=0;exitX=0.75;exitY=1;exitDx=0;exitDy=0;curved=1;" edge="1" parent="1" source="9p8DOmJokwP15oGAAXyM-6" target="9p8DOmJokwP15oGAAXyM-10">
          <mxGeometry relative="1" as="geometry">
            <mxPoint x="759" y="410" as="sourcePoint" />
          </mxGeometry>
        </mxCell>
        <mxCell id="9p8DOmJokwP15oGAAXyM-14" value="provides metadata" style="edgeLabel;html=1;align=center;verticalAlign=middle;resizable=0;points=[];" vertex="1" connectable="0" parent="9p8DOmJokwP15oGAAXyM-11">
          <mxGeometry x="0.014" y="4" relative="1" as="geometry">
            <mxPoint as="offset" />
          </mxGeometry>
        </mxCell>
        <mxCell id="9p8DOmJokwP15oGAAXyM-28" value="Any&lt;br&gt;IDP" style="whiteSpace=wrap;html=1;aspect=fixed;" vertex="1" parent="1">
          <mxGeometry x="529" y="180" width="80" height="80" as="geometry" />
        </mxCell>
        <mxCell id="9p8DOmJokwP15oGAAXyM-29" style="edgeStyle=orthogonalEdgeStyle;rounded=0;orthogonalLoop=1;jettySize=auto;html=1;exitX=0.25;exitY=1;exitDx=0;exitDy=0;entryX=0.75;entryY=1;entryDx=0;entryDy=0;curved=1;" edge="1" parent="1" source="9p8DOmJokwP15oGAAXyM-8" target="9p8DOmJokwP15oGAAXyM-8">
          <mxGeometry relative="1" as="geometry">
            <Array as="points">
              <mxPoint x="459" y="590" />
              <mxPoint x="499" y="590" />
            </Array>
          </mxGeometry>
        </mxCell>
        <mxCell id="9p8DOmJokwP15oGAAXyM-30" value="creates users according metadata" style="edgeLabel;html=1;align=center;verticalAlign=middle;resizable=0;points=[];" vertex="1" connectable="0" parent="9p8DOmJokwP15oGAAXyM-29">
          <mxGeometry x="0.0262" y="-1" relative="1" as="geometry">
            <mxPoint as="offset" />
          </mxGeometry>
        </mxCell>
        <mxCell id="9p8DOmJokwP15oGAAXyM-33" style="edgeStyle=orthogonalEdgeStyle;rounded=0;orthogonalLoop=1;jettySize=auto;html=1;exitX=1;exitY=0.75;exitDx=0;exitDy=0;entryX=0;entryY=0.75;entryDx=0;entryDy=0;curved=1;" edge="1" parent="1" source="9p8DOmJokwP15oGAAXyM-32" target="9p8DOmJokwP15oGAAXyM-8">
          <mxGeometry relative="1" as="geometry" />
        </mxCell>
        <mxCell id="9p8DOmJokwP15oGAAXyM-34" value="log into" style="edgeLabel;html=1;align=center;verticalAlign=middle;resizable=0;points=[];" vertex="1" connectable="0" parent="9p8DOmJokwP15oGAAXyM-33">
          <mxGeometry x="-0.0476" relative="1" as="geometry">
            <mxPoint as="offset" />
          </mxGeometry>
        </mxCell>
        <mxCell id="9p8DOmJokwP15oGAAXyM-32" value="" style="shape=actor;whiteSpace=wrap;html=1;" vertex="1" parent="1">
          <mxGeometry x="290" y="530" width="40" height="60" as="geometry" />
        </mxCell>
        <mxCell id="9p8DOmJokwP15oGAAXyM-36" value="" style="shape=image;aspect=fixed;image=data:image/png,iVBORw0KGgoAAAANSUhEUgAACWEAAAFqCAMAAABGJfpjAAAAM1BMVEX////HLEjHLEjHLEjHLEjHLEjHLEjHLEjHLEjHLEjHLEjHLEjHLEjHLEjHLEjHLEjHLEjJoTlQAAAAEHRSTlMAECAwQFBgcICQoLDA0ODwVOCoyAAALFRJREFUGBntwYli3KjaLdANfAJKqfi+/2P+TlkFiOEmPZ2k20lsaygNey0FIiIiojfQGj/XCug7CkREREQ/0BrQGoDgK2Xwdq3gq9IAZAAZJ6VAREREpDW0htZQBvNqBchABjLOQ4GIiIjOShkIjIJgHa2gtFaQcXQKREREdDZGGWWU1niY0korrTQclAIRERGdhiijtVHYjNJKy63gaBR+T2t8VRqIZiP4qhVsh2ALWsF2CL6qFfRgRmETWsFKjMIEpYFeZZRobRQ2qtbcSmk4DMEvaGNEGfytlVpzBtEUYrQxCn+rtXyFDbhiC/INGyCitVH4W2m5lAp6lItgE/INK7kIJrhl0L8YbYw22DatBV/lWnOtOADBz3SdaPxACb4q41hA9BG6kw4/0lqAlsexgTbBSCf4kYEANY8jiGhnlBFtDHZE8FUrpdSMfRO8Smyn8DpjfE2pguh9VOcMXqe6DuOYQI+mrDV4nba2jSmDiHZCGyNaY5eUCIBSai4NeyV4hfUav6K9TymD6O20swq/0nU+xQZ6IO0tfkVZW2ICEW2dEiNGYe+MAVBLyRl7JPgP6zV+y9p8LyB6G3Wx+C3tXYwN9CDaW/yW6X0YG4hos8SI0TgOrTuglFwKdkbwL3IxeBP5nEIF0e8p5xTeQnl7H0GPoJzHm+i+xdhARNujxIjgiIyxaCXnjB0R/EB5hzezNoYGot/wTuGt9Kc8VNDqpNd4K+VdihVEtCVaxBgcmRIBcsm5YR8E3zO9wXs4G2MD0S9Yr/Ee8nkYQSu7OLyHci6FCiLaBi0iGqcg4lByzg3bJ/iOvSi8j/IuRBD9jPQa76Q+xTtoTepq8F7WjjGDiB5NiYjBqRjjUPKYsXGC//Ee76cuLiQQvUa84AOcujfQaswnjQ/ouhwyiOiBTCeCUzLGYcy5YMME/+gtPkT37p5B9G/60uFjrLk10ErMVeFj5FpDAhE9hOqkUzizrkPNY27YKMHfeouPMtccMoi+p73Fh5nrrYFWYa4KH6Z7HxKIaG2m6wwI2lrkcazYIsFfvMUEck2hguhvynlMYT7dQGswV4UpdH+JsYGI1tNJp0F/E7nUMRVsjuBP1mMaa1OoIPpGOacwjfQDaHmqV5hIeRdTBRGtQUnXKdCPtHNtHEdsi+AP5oLJbBdjAxGs15jM5gRaXG8wnfI+hQoiWpjqug70KmVtG8cRGyL4RvUK0ynvYgCdXXfRmMMlV9DCXId5WJtSBhEtR3VdB/oFZW0bxxFbIfjGGcxCeRsS6MzEC+ah+htoWdpjNtbmkEFEy+g6C/otZW0bxxGbIPjKeMxF937IoLMyF8FsxCbQonqFGcm1xAQimp3YToHeRlnbUip4PMFXF8xIX3PIoDPS3mJOl7GBFiSCeZnehwQimpN2nQa9h3KuplTxYAJABLOSax4q6GyUd5iXcgG0II/Z6d6n2EBE81CdM6D3097nNDY8kgDwmJs8pVBBZ6KcU5ibiw20GBEsQHsXYwMRTSe2U6APEmljLHgcAbRgftaG2ECnYS8K81NdAi3GYRnK+xQqiGgSZZ0GTaGsLXFseBABHBbhXYwNdArWayzCJdBSdIfFWJtiARF9mHEWNJ3p2xgLHkKADstQ3oYEOj65GCzE6ApaSIclWZtDBhF9iHUGNA9lbYkJDyAwGkvRvQ8JdGziBcvpImghHZYl1xxHENF7aesUaEamv8RUsTZBhwXp3oYMOi7tLZYkEbQQwdJEakggovcQa0FzU96nlLEugWBRcs33AjomdbFYloAWIliB7n1MDUT0RtYKaBHW5jhiTQKDhcnnFCroeJRzCgtTuoIWIViFvvgYG4joDazXoMWI1JCwHoHC4qyNoYEOxjuF5ekKWoTGSpR3Y6ggol9TzinQonR/ibFhJSJYg7MxNtCBWK+xBsmgRWisRlmbQgUR/ZxyToEWp7yLsWEVgnUo70IEHYX0GkRvZ20OGUT0OuWcAq1CeRdjwwoEa1EXFxLoCMQLaO8E65JrDhlE9F/KOQVajfIuxobFCdaje3fPoL3Tlw5E7yfXGhKI6EfKOQValfIuxoaFCdZkrjlk0J5pb0H0Mbr3YWwgon8o5xRodcq7GBsWJViXXFOooL1SzoPo43TfYmwgoj95p0APobyLsWFBgrVZm0IF7ZFyToFoEuVdihVEBFivQQ+jvA0JyxGsz3YxNtDuWK9BNJlyLoUKorOTiwE9lO79kLEUwQMo72IA7Ut30SCah7UpZRCdme4F9HD6moeKZQgeQnkbEmg/xAuI5mNtDhlEZ6W8A22CPMXQsATBg+jeDxm0D+YiIJqXXEtMIDole1GgrXA2RCxA8DD6mkMGbZ/2FkTzM70PCUSnIxeDPakVQK34JuPnjMI3gq8EO6Iu9p4xO8EDyTUPFbRtyjsQLUP3lxgbiM5EeYetqxW1ohWgNLxZxo8E0BrKQBlsnLmme8PMBA8lTylU0HYp5xSIFqO8i6mC6DTsRWGjWkFGaa1gHhn/ozUEWiuDjbJdiJiX4MGsDbGBNspeFIgWpbxPoYLoFHQv2Jz6FyyoVmR8owxEGWWwNerS3QvmJHg472JsoA2yXoNoedamWEB0fN4pbEgrpeVWsKaWkfGV1kaJMtgQ+RwCZiR4POVtSKCtkYsB0TqszSGD6NhMb7ARteZaMx6o1oyvjDbaGGyE74aC2Qi2QPc+JNCWiBcQrUeuOSUQHZj32IJcasnYilJGAEYb0RqPZz6HgLkItkH3NmTQVmhvQbQuER8SiA7K9AaPlnOpBRtUyggoI8ZoPJjvhoJ5CLZCrvleQFugLhZE69O9T7GB6IDcBQ9VcikFm9ZyBpQRMQoPZD6HgFkItkM+p1BBj6acUyB6CO1djA1EB6N7wcO0XHLGTrScAS1iDB7Gdy8VMxBsibUxNNBDeadA9DDKuzFUEB1J1ys8Ri05F+xNTQlKRAwew3wOEdMJtsXZGBvoYazXIHooZW0KFURHoS4Wj9ByHiv2qo0jlIgYPIC6yNAwlWBjlHchgh5Deg2ix7M2hwyiQzC9wfrymAv2ro0jVCeisbru80vBRILNURcXEmh94gVE2yDXHEcQ7Z+9KKysjnnEUbSUYKQTrEx/vkdMI9gg3bt7Bq1LXzoQbYdIDQlE+6YuFusqKRccTClRSdcprOoiQ8MUgk0y1xwyaD3aWxBti+59TA1E+2V6gzWN49hwSG0cYWynsaLu80vBBIKNkmsKFbQO5TyItkdffIwNRDvV9QqraWMeG46s3O9GrMFq9PWe8HGCzbI2hQpannJOgWiTlHcpVhDtkfdYzZhGnEApUXdOYyWqlwEfJtgw28XYQAuzXoNos5RzKVQQ7Y3qO6xkHMeGs6gxGttprMPql4YPEmyZ8i4G0JKs1yDaNmvHmEG0K/qTwSpKSg3nUu53sZ3CGuTzS8HHCLZNeRsSaCniBUTb13U5ZBDth7kqrKClVHBGOcNawQr0dRjxIYKt070fMmgJ5iIg2ge51pBAtBO2xwpySjivlLS1GotTn4aEjxBsn77mkEFz096CaD9070MC0R54j8W1FCvOrYbQ2Q6L62XABwj2QK55qKA5Ke9AtC+6v8TYQLR1vcXSSkwgYBy1swoLs7g3vJtgH+QphQqai3JOgWh3lHcxVRBtmeo7LCzFAvpTvd+t11iWNbeG9xLshbUhNtAsnFcg2iXlfQoVRJulrgaLajFV0HdSEi9YlLneGt5JsB/exdhAk1mvQbRf1qaUQbRN6mqwpBpTA/1LvmlvsSTz+aXgfQQ7orwNCTSNXAyI9s3aHDKINkh/MlhQDQn0mjoEZxWWo6+3gncR7IrufUigjxMvINo/uZaYQLQ15qqwnBoS6GfqPTinsBh1vRW8h2BndG9DBn2M9hZEx2B6HxKINsVcFRZTQwL9SgvROYWlqOut4B0EuyPXfC+g99Pegug4dO9TbCDaDHNVWEoNCfQ7LUTnFBairreCtxPskHxOoYLeRzmnQHQo2rsYG4i2wVwVFlJDAr1FC9E7LERdbwVvJtgla2NooHfwToHocJT3KVQQbYC5KiyjxQB6q3aP3mIZ6noreCvBTjkbYwO9kfUaRMdkbYoFRI9mrgrLiKGB3qEO8SJYhLreCt5IsFfKuxBBbyG9BtFxWZtDBtFDqV5hEXmooHcqt+6isQR1vRW8jWC/1MWFBPod8QKiY5NrjiOIHkddDZZQhwz6gHH0TmEB6vrc8CaCPdO9u2fQr+heQHR8IjUkED2IuhosoMUA+qCQLh0WoK63hrcQ7Ju55pBBP6O9BdE56N7H1ED0CL3BAsZ7BX1YfZFeY37memt4A429k2uvQa9S/smC6DT05ckrEK2v7zC/9vJSQVPk54AFmB5vIdg/a1OooH9TzikQnYrybgwVROvyFvOLoYGmCmNvMLuuH/B7giOwXYwN9APrNYhOR1mbQgXRiqzH7OqQQTMoX5xXmJstEb8lOATlXQyg/7Feg+icrM0hg2gtpsfsYmigecTcG8ztUkf8jsZBKP9kQX+Ra69BdFpyvQqI1qGvmFt7uTfQXMqXgNn1Br8jOAzd+yGDAHMREJ2bXGtIIFqe+qQws/zSQHMK4yeNealPXxp+TeNA9PUqOD3dfxYQnZ7un6wC0dJ6g5ndbw00r/IlYWb6E35DcChyzUPFmSnvQETf6L7F2EC0JNdhXvWlgGbXhnxRmJVc7vglwcHIUwoVZ6WcUyCivyjvUqwgWoxcMK9xaKAlpNIbzMqVhF8RHI61ITackvMKRPQd5VwKFUTLUJ8wrxBACym3i8WsLqXgFwQH5F2MDadjvQYR/Zu1Y8wgWsInhTm1lwxaTBvKBXNS/a3h5wRHpLy7J5yLXAyI6DVdl0MG0ey8YE5lKKAlxfJJYUbmMuDnBMekeh8SzkO8gIh+Rq4lJhDNSzzmlF8aaFn51hvMyI4jfkrjqHR/FZyE7q8CIvoF0z9ZEM1JfcKc0q2BllZuGXPqNX5K47jkejU4Ad0/WRDRb+j+/3kFotn0CjO6D6AVtFvCjFSPnxIcmXxOoeLYlHMKRPQGyruYKohmYTvMaEigdQzNYT7iIn5CcGzWpnvDgXmnQERvpLxPoYJoOn3BfNpLBq3lXnrM55ILXic4OtvF2HBQ1msQ0XtYm2IB0VS9wmzarYDWk9BjPv0XvE5weMq7EHFE0msQ0XtZm0MG0SRWMJt2K6A1JfSYjfEBrxKcgLq4kHA04gVE9BFyzSmB6OPUBbNptwJaV6qfFObiUsVrNE5B958Fh6KvVwERfZD0TxZEH9YrzKXdCmht+dYwF9XjVRonYa5XwWHo/klARBPo/skrEH2IdJhLuxXQ+soNsxGL12ichlw/aRyC8k8WRDSR9k9egej9VI+5tFsBPUIZMJuLwisEJ9J1KVTsnXJOgYhmoLxPoYLonZzGTNqtgB4jocdMlL/jvwSnYrsYG3bNeg0imou1KVQQvYd2mMtLAT1KQo+ZuFTwH4JzUd7FgP2yXoOI5mRtDhlEb3dRmMmQQY+TtMdMLjf8h+BslLchYZ/EC4hobnLNcQTRG0mHmdwT6JGCtpiHdCP+TXA+uvf3EftjLgIiWoJIDQlEb+IxkxRBjzVowTwuI/5N44z0p6tgZ3T/WUBEC9H9k1Mg+j0rmEcZQI/2UjAP7fBvGuck16vGjqjLkwURLUhfnrwC0e94zKPeQA/XhoZ5eIV/0Tgreeo1dkL5JwciWpjyTxcNol+yGrNoLw30eOUF81AO/yI4L2tDbNgB5xWIaAXKuRQqiH5KXTCPewFtQQ4es3Cx4QeCM/MuxoaNs16DiNZi7RgziH7CKcwiJdA2BNNhDsoF/EDj1JR/stg0+dxrENGKuutVQPQq5TCLcgdtxVAxC6fwA42TU/2TxWbJ9WpARCuT65MF0Suswhza0EBb0QbMQjn8QOP0dH8VbJLurwIiegDdP1kFon9zmEUooO3IAbNwCt8TEOSa7wVbo70FET2K7luMDUTfsxpzGCNoS0JnMAPlAr6jQV/J515jU5T/bEFED6T8k9cg+o7HHNoA2paXhjlYfE9Af7A23Rs2wzsFInow5X0KFUR/6TTmMDTQttRwwQy0TfgfAf3FdjE2bIL1GkS0BdamlEH0B4c55BG0NbETzMAl/I+A/qa8CxGPJ70GEW2FtTlkEAFaMIM2gLbn/hkzMJLxDwH9j7q4kPBY4gVEtCVyLTGByGMOsYK2pwSPGdiMf2jQ93T/WfBA+noVENHGmP7Jgs5OdZhBDaAtihUzsAr/0KAfmetV8CC6fxIQ0Qbp/skr0Kl1CjMYQJvU7piDxT806N/k+knjAZR/siCijdL+ySvQiTnMYMygbRozZuDwDwH9V9elULEu5ZwCEW2Y8j6FCjopYzCDO2ir7p8xnZaMvwjoNbaLsWFF1msQ0dZZm2IBnZLFDFIFbVVJFtPZjL8I6FXKuxiwFus1iGgPrM0hg07IYrp2B21XsJiuw98E9BPK25CwBvECItoLueaUQGfTKUwXG2i7arKYTNmEPwnop3Tv7yOWZi4CItoTER8S6Fw6TNciaMuCxXRdwp8E9Av6Uw4ZS9Legoj2Rvc+pgY6kQ7TxQbasposJutUwx806JfketVYjLo8WRDRDunLk1eg0+gUpkugbQuYQYc/Ceg35CmFiiUo5xSIaKeUd2OooHPoMF2qoG2ryWKyLuEPAvota0NsmJ3zCkS0Y8raFCroDDpMF0BbFy0m61TDNwJ6A+9ibJiV9RpEtHfW5pBBh9cpTJYraOtKFkwmI74R0Fso7+4J85GLAREdgVxzyKCDE0wXQduXBJN1I74R0Nuo3oeEeYgXENFRyLWGBDq0DpPVEbR9yWtMJfiDBr2V7q+CGej+KiCiA9H9k1Wg49IakyXQHiRMpg2+EdDbyTXfC6bR3oKIjkb3LcYGOqgO0yXQHiSPyaTgKw16D/nca0yg/GcLIjog5Z8uGnRMgsnGCtqDmjFZh28E9D7WpnvDB3mnQEQHpZxLoYIOSDDZCNqHJJhK8I2A3st2MTZ8gPUaRHRk1o4xg47GKEw2gvZhxHSSAQjo3ZR3IeK9pNcgoqPruhwy6FgEk40NtA9t7DCVZAAC+gB1cSHhPcQLiOgM5FpiAh2JYLIRtBdjh6kEXwnoQ3Tv7hlvpXsBEZ2F6X1IoOMwmGwE7cWIyQy+EtAHmWsOGW+hvQURnYnuLzE20DFojanGBtqLNnaYSJkCCOjD5DreK35HOQ8iOhvlXUwVdAQGk2XQfuQOU5kCCGiCrkuh4leUcwpEdELK+xQqaP8MJhtB+zFeMJUBIKBJbBdjw0/ZiwIRnZW1KRbQ3gmmqhW0H7VqTGQACGga5V0MeJ31GkR0ZtbmkEH7ZjBVBu1JtphIAAhoKuVtSPgv8QIiOju55pRAO6YUpsqgPckWU+kKAU2ne38f8SNzERARASI+JNBuGUyWQXuSMZmpENAc9KccMv5Hewsioj/p3qfYQPskmKpW0J7UqjGRGSGgecg1xxF/Ms6CiOh/tHcxNtAeKUxVQPtSNCbSgIDmItJKBmBEgYjoR8r7FCpofwymKqB9KR0m0oCA5qNEQET0E9amUEF7YzBVBu1LxlQCCIiIaCXW5pBB+6IwVQHtS8FkqmkQEdFq5HrtQHtiMFVroH1pFVMZCIiIaEUiNSTQbihMVUB7UzUm0yAiolXp/skp0E4YTFVAe1MwlUCDiIhWpi9PXoF2QWGqBtqbiukERES0OuXdGCpo+zSmyqC9KZjKQEBERA+grE2h4vcM6JE0pmqgvWmYSkFARESPYe0YM35DK9C+FdDeFEwnICKiR+m6HDJ+yYIeyoDo/QQaRET0OHJ9svgF5UAPpTBRBu1PxmQaRET0SLp/sgo/4xWIaIcERET0WLpvMTa8xjoQ0eoaptIaRET0aMo/eY3/sj3osQymyqD9KZhKC4iI6PGU9ylU/MhdQA+mQPQhAiIi2gRrU8r4H/ECItopARERbYS1OeWKb3RnDYhotwRERLQZImgFgFGgg2ig/cmYTEBERFuiBHQkBXRKGkREREQ0Lw0iIiIimpcGEREREc1Lg4iIiIjmpUFERERE89IgIiIionkJiIgeb8ylNGgtnQHRoUgG7Y7CZAIiogdrMTZ8U2sO2lsQET2UwWQCIqLHGoeG/6lDcFaBiGjXBERED3WP+FG9B+cUiIh2TEBE9EhDwn+0EDuvQfR4FVMp0CkJiIgeKCW8pqVkvQbRo1VMZUD7I5iqCIiIHqfd8TMpiRcQEe1RExARPU5s+Ll8E9eBaN8UaH8UJhNsTCsZX4lRoBW1lEsFIMYaEK0n4pdy1t6C6IGqxjQGtD8GEzUINmVMI/7S2Q60khoS/pRz1N6CaCWl4TfqEKxTIHqUqkH0bgWCDSlDwT/GUbyAVlBDwnfqEHsDolUU/F4N0TkFor2SDNoZwXSC7Yh3/CDf5GJAC6sh4V/K7ZOAaA0Vb9FCsF6D6BGKYCIFOp8Gjc0Y7vi3/GWooCW1+3PCf7RbAdGmpOehgOgBGqYyoL0RTFUg2IqY8IqU7EWBFtJibHjV7UmBaFNSEi8gWlvFVBq0NwrTCTai3PG6NDqnQAtoMTb8RLv3INqYfBNrQbSuiqk0aG8MpsoQbMQdP9NC9A40txZjw88lr0G0NTkHb0G0poapBLQ3BtMJtqFm/Fy7R29Bs4qh4ZfiBUTbU4dgnQLRagom0xW0K1phqgzBNoz4pTrEi4Bmk0LFb2QQbVIN0TkForVUjYlMBe2KwVQNEGxDxm+Um3gBzSKFit8qINqoFoL1GkTrqBoTmRG0KwZTFUCwDQ2/lW/Wa9BkKVQQ7VxK1gqI1lAEEwloXwRTVUCwIynZiwJNMt4riA4gJfECouVVTGVA+2IwVQUEu5JG5xTow3LIIDqIfDPOgmhpBVMpU0A7YhSmyoBgX1qI3oE+JocMogMpQ/AWRMsqmEwKaEcEk1VAsDftHr0FvV8OGUQHU4e7cwpEC2pVYyKJoB0RTFYBwf7UIfQCep8cMogOqIXorAbRcqrGRALaE8FUGYBgj+pNvIDeroYEooNqIVivQbSULJhImQLaDaMwVQEg2Kd86y4a9DY1JBAdWUrWCoiWUTCZFNBudJisABDs1Thar0G/V0MC0dGlJF5AtISMyWwE7UaHyQoAwX6l0TkF+rUaEojOIN+MsyCaX6saExnVQDuhDaZqBYDGjrXwHEC/0sJzAtFJlOE5gWh+GZN1oL0QTFbwlWDXWkjegn6ixdhAdCJ1uDunQDSvgsm6BNqJDpNlfCXYuTqEXkCvaDE2EJ1MC9E6DaI5ZUzWqQbaBdVhsoyvBLtXb+IF9C8txgaiE2oxWq9BNJ/SFKbqEmgXLKbL+EpwAPkmvQZ9L4YGorNKqXMCotnkDlO5BNoFi8kyvhEcQn62XoP+lkIF0ZmNo3gB0UzGDlMZXUE7YAwmG/GN4CBS8k6Bvkmhgujs8k17C6JZZEzn7qAdsJgu4xvBYYTonAKlUEFEQB2C7xSIpqvFYCp7B+2AxWSt4BvBcbSQvMXJjfcKIvpTHZRzCkSTZYOplE2gzbMKk434g8aR1OF5xJnl20sFEf2jhed7BdFUI6azoO1zmC7jD4JjqS/iBSeVQwYR/ajFaL0G0SS5KUwlkkEbJwbTjfiD4GjyTXqNE8ohg4hekVLnBERTjBaT2QzaOIfpxoY/CI4nP1uvcTI5ZBDRT4yjuA5EHzdaTGZDBW2a7jDdiD8Jjigl7xROpIYEIvqFnLW3IPqosSlM5gfQpnnMYMSfBMcUonMKJ1FDAhH9Rh2CswpEHzNaTGZDBW2YtphubPiTxkG18JxwCnV4TiCi36v359BA9CEjZuBBW+YxgxF/ERxWG4K3OLoaEojojVqIndcger+xKUxmQwVtlraYwYi/aBxYHW4Zh9bClwQieruWnocKovdLmIEHbVePGYwNfxEcWr7JxeCoWowNRPROKYkXEL1TcpjOxgLaKBHMIOFvGgeXvwwVh9TCc2ggovfLt9sIovcpBTO4gLbqghnUEX8THF5KziscTYuxgYg+KGftLYjeI/aYTroRtEnWYAYj/iE4gZicUziUdG8gognqEJxVIHqzsSlMd8kNtEHqgjlE/EPjDFp4TjiQ9Dw0ENE09f4cGojeqo2YgXagLfIKM8gV/xCcQxuCtziGFCqIaAYtBOs1iN4mWMzApwraHHGYQ8T/CM6iDskL9i+FCiKaS0rWGRC9Rc2CGfQ30OZcMIc64n8E55Fv4gX7locKIppTSuIFRG8QBTMQF0Eb4w3mEPEdwZnkm/Ua+5VDBhHNLd/EWhD91lg1ZuDHCtoU4zGHlvAdwbmkZC8K+5RDBhEtIefgLYh+J/SYgepvoE3pMYvU8B3B2aTROYX9ySGDiJZSh2CdAtEvJa8xA3ERtCEXg1lEfE9wOi1E77Az5Z5BREuqITqnQPQryWMOl1xAmyEOs0gV39M4oXZ/TtiTOnzJIKKFtfB/QwXRL8SGWXxSoK1QnzCPgB9onFIdvmTsRR2eE4hoDel5KCD6qRYxC30BbcUnhVmkih8ITqrcxAt2oIYEIlpNSuIFRD8RncIcbImgTbgI5hHwI8Fp5Zv1GhtXQwIRrSrfxFoQvapFj1lccgFtgHWYR6r4kcaJpeehYcta+JJARGvLw3MC0atCxTyuCvR45oKZBPyLxqml59CwVS08hwYieoA6/F9oIHpFwDzUVYEeTX1SmEes+BeNc2vhOWCTWngODUT0IC08hwqi/0gV8zAX0IOpq8Y8WsC/Cc6uheQttqbF2EBEj9RCsF6D6F+GK+Zh2x30UBeDmcSGfxNQHUIv2JR0byCih0vJWgHRD3IWzMOVBHqg3mImNeI/BATUm3jBZqRQQUSbkJJ4AdH3hifMpEcCPYyzmMu94T8E9E2+dReNTUihgog2I9+MsyD6nxo8ZtKXAnoQe8Fc8oj/EtCfxtF6jYdLoYKINqUMwVsQ/SNajZlcbwX0ELbHbO54hQb9LX0JDY+Vn4cKItqaOvxfaCD6S7tjLupqQI9ge8wmFrxCg/7RwnPAA+XbrYKItqiF51BB9KcxYy7qakDrsz1mUwNeo0HfaeE54UHy7ZZBRFvVwvNQQfSHoWEu6mpAa7M95nNveI0G/aAOzxkPkG+3DCLatPT8kkH0VQ2Yjboa0Lpsj/mMI14loH+pN/GCdZV7BhFt3ziKFxAhdoK5qOtLBq3I9phPG/A6DfqPfLtVrKgOXzKIaBfy7TmBCEPDbNTVgtbje8xoaHidgF6Rn63XWEcNCUS0H3UIvlOgk6vhgvn0SKCV9BYzGkf8hIBelZJ3CsurIYGI9qUOyjkFOrfYCebTmztoDarvMKM24GcE9BMhOqewrHZPIKL9aSFap0Gn9vKkMB+n7g20OHU1mNPQ8DMC+pkWkrdYUIuxgYh2qcVovQadWBs+YUbW3BpoYeaqMKc44qcE9HN1CJcOC2kxNhDRfqXUOQGd1xgdZmQ+vxTQouxFYU4l4OcE9Cv1RbxgAS3GBiLat3EUL6DTCmIwI329J9CCLg6zakPDzwno1/JNeo2ZtRgbiGj/8k17CzqpNlwVZqR6cwctRX0SzOte8Asa9Dv5eaiYVfoSGojoEOrwnBronMqAebnPCrQM8ySYV0r4FQH9XkrOK8wlhQoiOo46KOcU6IzG6DAr8/SSQQtwF8ys3PFLAnqLmJxTmEMKFUR0LC3EzmvQCd2NYFbqGu+gualPgpm1l4ZfEtCbtBAvFpOlUEFEx9NSsl6Dzufls8a8nLxU0Ky6XmFuLxW/JqA3akPwFpPkewERHVRK4gV0Nu3lqjAv8zlE0HyUd5jdkPEbAnqzOiQv+LAcMojowPJNXAc6mTJ8wszUpXtpoJlIrzG7lPA7AnqHfJOLwYfkkEFEB5ez9hZ0LuP9grnJ0zCC5qC8w/zygN8S0LvkL9ZrvFsOGUR0AnUIzirQmURjMTf1KQ8VNJn0GvMrL/g9Ab1TSvai8C51yCCik6j34JwCncigOsxOPocImkZdLBbQXhp+T0DvlsbOa7xZTglEdCItxM5r0HkMV4PZqYsdCmgCe1FYQLtVvIGA3q+lZK3gTVLKIKKTaSlZr0Fn0W5Xg/mZzzE00AeZi2ARLwVvIaAPSUl31uA3xnFsIKIzSkm8gE6i3Z4UFuDsPYE+QnmHZQwZbyKgD6ox6k5E4SdqzmMDEZ1Wvom1oHNot6vCAlTv7hn0bs4rLGNIeBsBfVyNEUaMNgo/aKWUXEFEJ5dz8BZ0CuV2VViCuY73CnqX7qKxkCHhjQQ0TSn4SqAM/pDRCoiI/lCHYJ0CnUC5XRUW0XXp3kBvJl6wlJjwVgKaQwZGEBH9Rw3ROQU6vnK7KizDdjE20JvoXrCYdMebCYiIaEktBOs16PDK7aqwDOVdjA30W9pbLCcNeDsBEREtLCXrDOjoyu2qsBDlXYwN9EvaWywoDXgHARERLS4l8QI6uHK7KixFeRdjA/2U9hZLCgHvISAiohXkm1gLOrZyuyosRnkXYwO9SrxgUUPCuwiIiGgVOQdvQYdWbp80lqO8T6GC/sNawbKGhPcREBHRSuoQrFOgAytfrgZLsnaMGfQ91XmNhQ0J7yQgIqLV1BCd1aDjarerwaK6rsQE+pt2VmFh7SXjvQRERLSiFoL1GnRY7XaxWJbpLylW0Fed7bC4dit4NwEREa0rJWsFdFRtgMXClHNjGnF22lqN5ZWh4P0ERES0tpTEC+iohtxjcV1XU6o4sc52WEO5NXyAgIiI1pdvxlnQQaXWKyxOe5/T2HBKxnYaq0gDPkRARESPUIbgLeiYxtsnjRWItHEccTa6swYrCQEfIyAioseow905BTqi8uVqsAZlbR1TwXmoruuwljaM+CABERE9SgvRWQ06oPalt1iHdq6OqeAMVNd1WE99KfgoARERPU4LwXoNOqAh91iLdq6OqeDYVNd1WFN+afgwARERPVRK1groeFL5pLEa7VzN44ij0l0nWFcImEBAREQPlpJ4AR1O+fJJsCJtLcYxVxyOdJ3GytowYgoBERE9XL4ZZ0FH027eY11dh5LHjOPQ0onC6spLxSQCIiLagDIE3ynQwYT8SWFlxjiMORfsnxLpNB4h3jGRgIiINqEOyjkFOpb83HdYX9eh5ZwL9kuJiMFjtGHEVAIiItqIFqJ1GnQo7cV5hQdQXYeWcy7YHyUiBg+TXxomExAR0Wa0GK3XoEOJuTd4DNV1QM65NOyGESMaj3SPmIGAiIi2JKXOCehIyhfv8TgiQM2lZGydNmIED1aGgjkIiIhoW8ZRvICOJIyfNB5JWwDlm4ZNMt8oPF4ImIeAiIi2Jt+0t6ADKV+8w6MZA6DWXGrBdmgt2hhsQxkKZiIgIqLtqUPwnQIdRruPvcYGaC0ASi21ZjyWUaK1YENCwGwERES0RXVQzinQYeRn77EVxnQAWqm1tIy1GSUQZbAxZSiYj4CIiLaphWidBh1GGC+CLVGCP2RklFYaFiYwyiijsEUtRMxJQEREW9VitF6DjqLcnFfYHoHgm1ZQWiuoFfNRBlrDKGWwZXmomJWAiIg2LCXxAjqKmC4Wm6UEgj+1AmSgFQCl4V0EgNaAUVAGu1DvI2YmICKiTcs3cR3oINqQLgbbpwQQfKcV/Kk0/IdR+IPW2KUQG+YmICKijctZews6iPzFeYXdUYI/CY4mDxXzExAR0ebVITirQMcQk3egjahDxhIERES0A/UenFOgQ2j32AtoA1qIWIaAiIh2oYXYeQ06hHqTXoMeLcSGhQiIiGgnWkrWa9Ah5GfrNeiRUqhYjICIiPYjJfECOoSUvFOgR8n3ggUJiIhoT/JNXAc6hBCdU6BHyCFjUQIiItqXnLW3oCNoITqnQGvLIWNhAiIi2ps6BGcV6ABaiM4p0JpyyFicgIiI9qfeg3MKdAAtROcUaC05ZKxAQEREe9RCsF5jNRm0lBaicwq0hhwyViEgIqKdSsk6g5U00HJaiM5q0NLGmLESARER7VZK4gWrKKAltRCs16AlpVCxGgEREe1Yvom1WEEGLSwl8QJaSIuxYUUCIiLatZyDt1haBi0v34yzoAXUkLAuARER7VwdgnUKixpBayjD3VkNmtcYM9YmICKi3ashOqewoBG0jhaCtQKaTUuxYn0CIiI6gBaC9RpLGStoNSlpZxVoDjklPISAiIiOISXrDJaRQGuq97u1ApqopVjxIAIiIjqKlMQLFlBH0MpS0s4q0MeNY8LjCIiI6DjyzTiL2d1B66v3e2c70IfUlCoeSUBEREdShuAt5pVH0EOMo7LWgN6pjbHgwQRERHQsdbg7pzCjO+hRWozadRr0dmMa8XgCIiI6mhaisxpzCQX0QPV+N7bToLcYx7FhCwRERHQ8LQTrNWZRAujByv1ubKdBvzaOY8NGCIiI6JBSslYwXXsBbUC5343tNOhnxnFs2A4BEREdVEriBRO1WwVtQ7nfjRUD+o825rFhUwRERHRY+WacxST3AtqOcofuOgF9p455xOYIiIjowMoQvMXHDQm0LTVG1UmnQN/kMRdskYCIiA6tDnfnFD6kDSNoe1pKMF1ncHI1j7lhowRERHRwLUTrNN6v3Qpoo0oJSjrROKmWcy7YMAERER1ei9F6jXfKLw20YW0coaUThbPJX2HjBEREdAYpdU7wHiGANq+mBCMiCmeRv8IOCIiI6BzGUbzgrfJQQftQSoQxIhoH10rOGTshICKis8g37S3eot5H0J6UkqCNGMFB1VxywY4IiIjoPOoQfKfwGzUk0P7UOgJixGgcSis5l4adERAR0ZnUQVmn8QtjzKDdyjlCGTFG4wBayaVU7JGAiIjOpcVorBi8ahzHBtq5ljOgjBhtsFu1fFWxWwIiIjqdcocWYwTfqzXnDDqKljMA0VqMwq60UmopDfsm5YYtKKCtuWELKtaSsQUFa7lhEyroYWoCoAyMwleltYKNKJiigb6X8ZUyRhutsXmtlFpKwxEoEBER0RmIMlobhS3KrdSacSAKREREdCKijDJaYxPqV6WVhsNRICIiovPRWhkIjMIDtIKM0mrFYSkQERHRiWkNgdbQGgurFaUho1YcnwIRERHRN0ZBa0AAZTCLDLQClIZacSoKRERERK8QfCX4Rmv8RWv8R8bfMr6pFUArOLP/D5ttOIHtdKS0AAAAAElFTkSuQmCC;" vertex="1" parent="1">
          <mxGeometry x="110" y="340" width="155.68" height="23.47" as="geometry" />
        </mxCell>
        <mxCell id="9p8DOmJokwP15oGAAXyM-37" value="" style="shape=image;aspect=fixed;image=data:image/png,iVBORw0KGgoAAAANSUhEUgAAANwAAADqCAYAAADJeSsxAAAABHNCSVQICAgIfAhkiAAAIABJREFUeF7tfQmcFNW1/qnunn0YGIYBVERAICzDKqiAC+OKG+IC+BQTTV78R40vMS/GJILilsT4ou/FRKNJ1LgkEVARcQGVVUAEZAdBBFmFYRtmhll7+Z/vVt+e6prqqupllu6u629suqvq3lvn3u+ec892iZziUMChgEMBhwIOBRwKOBRwKOBQwKGAQwGHAg4FHAo4FHAo4FDAoYBDgdakgNKajTttW1MgEAiIMXr4YQobq80DZioDt0wMaGt46CES3xVFCfvduhXnjpaigAO4lqK0zXYAMIBrES1y4ZFF00u9Nh8Vt+H50ocXufHvsTTWP3264o/meefe5qWAp3mrd2q3ogAAMmnmTAGuGRMn+oPcCRxKAGXijBnuAx/uyq2so/Z+T31WwOvOooxApqi3QanHh+Lx1bn82ZV5ndyV/HwN/yRAugj/4yLbAEd0ABgkSit9OByulQgvQSBBhu8A25jvP9GuvKF+pM8fOJuUQA+FlJ4BCnRlWBVxVzsxerLCuqyQnwXIakZoGQudx/i+A3x9Ow/sNlfAs3zAtb23zZw0ySefmT494II4qgF3K1EgPZt1ANfC4w6OpeU0Y6cv9Bz+ZnlJoMF/fkAJXM3AG86D0oEBFEH6YHgpAcag2KcxZ1T3eIavoSh1DND9ikJLyeX+IMOXsWzD6/fvk+DW98WwDufHhFLAAVxCyRm5MnAWXJUi3eBbn+zs9ddO9lNgskKBIYyefOZO/CEBpPj4d0YWw0UJ/sZM0BhgjSDEM2iHn+N9XKgutV5F2c8VLHWR8o+C4rzFK57+WY2e00Z+A+dKIijgAC4RVDSpQw+0gbc9PtTn9f6IIXKLFmQ8EF6Gh4sxEhwTE85l0l74pZC2Mqg4CTAIVVCz+LqVoflKJmW9Jrke9pKOqGmbuDHd6AAuJrJZP6QHWsmtj43wBvy/5CevVvdhkUVDBgP4Gm/JmF/hP8GzuECSNGhahag6lPI5Px7S38/7vUZRVFSIhpjrBV7MUHL/tOHV+8ocjmdA4AT+5AAugcSUVWn3RiXfe/RMn88/jUW8m0JAUzWQYfsvMRCMFrdLofoGH9XUN5DfHyAXf/e4WAjkT1eQ+clPAapg4TYI38UfP5fpcVN2lofrcxErYIRwGlbCwKcCzxVQnmjfOe9vEDX1C0b4w863WCngAC5Wyhk8pwUatI1H6+ruZu7xgBAd9RM8+DwAheL1+qmuwSv+Tu3Unnp0LaLiDvnUu1sn6t65iIo65FHXwgLKYCDlZGdShttFtfVeBqeXjledpEMnTtKRo5W069uj/HeEjpRX0dcHjlBVTR3lZGZQVqYKPgAyDHz6fim0wU2u+ze9OnUetKYO8AwGOo6fHMDFQTz5qBTDpPq9/3cfm8xs5iH+vb+6ZxI2tXCOFuRmJ2vqyev3U8eCPBre93S6+Kzv0Mh+Z1DPU4oEuGItFdW1tHX3t/TZ5m/o49Vf0vY9ZXSytp5yshh8GR7BCZsAD40xUxWLAylvuwOeBze//ustjikh1lFo+pwDuKY0sf2Lfr+DfZov4H+cf79MAE1V3zONGxUg2J9hotcxd4LYOOTM0+iKUQPp2vOGMFfrKPZoclB8DEQU7OXkj0YDJoTFoMSIXR7ul5wTl1DP6m276a3F62nhF9vpwJETAniZGW4KQNwUrQSLABsXBh63VcVVPS33dxJ4Wrue5knnnzYoYDR+Nh5L71sk0KQ9bfAtT3Srd9X+gp2obg+Jj8FJKykFoGHvBZChgItNumg4XTKiHxXkZoeABnAAMNizxTM4ADW4mB58B49V0FtL1tGshWtpx/7DlMfiKfZ54RxPaDe1XHkn9/+3XXqf/zJczRwxM/b5H8+Yxt5qEj+pnWwwWpd99emd7OpxP7Ot03h2B7WAUL+rBQR28YQG0GrrGmhQr1PpvlsupQsG9xYiowQGwAhQNleBIgVFAvloxUl6bf7n9Pw7n1LFyVoBPPRHctVg73XAU5Z5FNcvNr02dbmeuzdXv1Ot3uYb4RSjlH5VHzjl0XE+8j/KrGlEpH2ahxUb0Dhi79TjlI70/StH002XnEW5WZkCaFAcAmPNCTT9MKjmgsZ2vzl4jJ6bvYTeXbZRKFja5aqeYxKgKkrDxEwvLyyvZwSypzr2Oz11rb87gLOgkV58HHjLbwb4FO8jvMm5rlHBwJVA2RAs0o52oqqWOrGmcfJFQ+mO8RdQEStGJEeDGNeaJQT4oOj6xVd76E9vLqEFa7YJ0TcvJ1Nwu3BrguITXi/qux5h2P6hsHP+/zlmBPsj6QDOhFZaNf+gO39b6K2sv5cn273m+zSi6lp1nzZ6UC/62U0X0fA+3VuNo5m8nrgkbXkAGeTHf360iv4+dzlt23OI8nOyyOPh/V1QHFXrCt/f8eKyldWav5zYe+pcuK05/pnmFHcAZ0Af/T7t0M5lNwR8vt/wrb2MxEeIhS7FRQ1eVXwc1rcb/XDC+XTFiP5iX6Sd1AbNtYmfACop3sr93SsfrqTDbM8D8FDAFUNFu19VzQhz2YzwK5gRnP1d5CF1AKehjX6ilEx5bDS7Yz3GU63UCGh4VKr5K6vrhPj4XzeMpRtLhwnNo9A48iyWniGRh6HtXNH2efveMnr27SVCqwlvl2w2JUB2DhMzw4DH0QlEz2QqOU/CTczhdk3H1QEcplAwCFQ67go1v1I7leF0G1/MEtpHFN0+DYYqiI/w4hh/3mC6c8IFqi1NKkTiVO03Ha6W+UXu72DLAwBXbN5JT7+xkNZs2yOM5pJrN3I8nRlBjUqY3qE4/3Vnfxc+ZmkPOK34OOrep3KOl1X9hJH130ymToZq/qD4WM2ax3oWISE+PvyDq8Q+DQUTtLlV/C0DO97fYe8m3ldhl7MGen3+avrDGx8TuDncxeyYEdg39MHNr05bgEUNqSOQd4W5vkY2bam3aRvtpC3gIqj5n2AuNrgRaOHuWFLND5ta79OK6QdXj6ZJpcPVFV8zOdvG0CamF0AGvFEk8PYeLqcX2HY3e+k6OsH2u4hmBBEgy/ZIlg7YwjjD7VambvrHtK/10kRiepk8taQd4OSASy+RoJr/twy0a3iCwDHDUHyEQuFYRbVwLP4PtqXdzjY1qebHnkbrSpU8w2+/p0LM5NuFyYM/YUZ44Z1l9OHKLaISAK9pVEKjGYGfEW5iHTOzn1z24v2V+gXPfk+S+860Apx2E4+I6/pAzX08fPeY7dMANDgYQ6y67Oz+dA8rRQb2PEXVPGLhT9J9WqzTVgJPKoJmLPiCXnxvOW3a9a3wVrFjRuDV6eGSq/vOgk8mxiSdgl7TAnD6fVr54apbeOL8iiddBDW/qlmEmh/iI/we77r+Aho7tE/I7xCEa0kPkVgB0lzP6c0IbyxYQy+//xnBVxNmBCxUTbxVpJgJ67lCH7kV1wMcBrQafUwX4KU04JqIj7c+ehGLPfASGRNJzQ/RELFpcMfq0rEd/WzyxXTNmEFJq+ZvLsDJerVKIukm9sYna4REoJoRhBa4sRt6M4ISeCHTn/17uImlgxkhJQGn35jLqGvehCCPiMdonwagYV5A+4gV+roLhtLdzNW6dixIW/HRLliFmKkRr1du3SXMCJ9v+Ybc7E/aNP4uGLqEBoJuYi5yPZIO0eYpBzi9+Git5lfFRwANgaAQHx/5wdVin4YCRQDsbeksPtoFntaMAHF8xsIv6Kk3PqFDxypDga+m0QgKreZo82mbX5v2IdrEWKaaGSFlAKfXerE3/3h2vf0dr7797aj5B5zRle649jyawIGg4HZqLJkDNLtg096nBR7cxP781hJ659P1Anjt87PFrcb+mcGwJkV5U0abS2klVYJekx5wevERaej8Xt8T/DtHXXOJoObHpeOV1XR650K65bKRrOYfpQaCBsWjVFfzC9o0YxFiJtcvlUubWYv5zJuLQmYEiO1N0jxQUzOCp13m0xuf+9VxLKjIGJ3swEtqwMWi5kdWLKj5sbe4alQJ3XXdBdT39M6hfZoDtMSiUO7v1D1ygN5duZn+Onsprd2+T5gRkObByxnHwktYGNBOxe3+daqYEZIScPp9mlDzs8jPO/fTjLSPMj4N2scTJ2tozKAz6d7JpfzZW4wzPCmgxnb2aYkFm7Y2GfgK4CHBEVI8/JE53uHjEDNzjM0IYnBknKGykKPNpyLaHD8nqxkhqQDXRHyMQs0Pe1r3LoUi6lp688t9hMPVmg9o+pq1ZgQZjfDeik0itCmXOZ7AmJkZgQIvZwayH4MZQS68yaRYSRrAacVHuGP5Fe80HpfJwh0Lsr8uDZ1WzQ+3o5svPSsUda1dbfUTwvne/BQAoOCeiTHCBISb2FP/XkDLN+4UnjtwjG6yv9Pa74hEtHlRVtafk81NrM0DTis+Irnqsfra+3i87uRxiuDNr6r5kZ8DxldEXf9qyuUhNb/WQ6L5p5bTghkFtNpMcL43F61jMXMh7Tl0XNju8GdsRpDaTJG0FmaEOWhHr6k2a7u1rrVZwGm1UhAlB3zv8UmhqOvw1S5EO3jzIxsxshcP6X2aiLoef26JuO6o+Vtrilm3q10Esb97Yc5SmrFgrcifWZCX3XR/Jw4kgZN5yIwwRx9t3la1mW0OcHKfJgkmDsHw+3/PxC0VQ2eg5pfio1Tz33bluTTlsrMdNb/1XG8zd0htplReyf3dnE83iMXS0IygmQs8kavYQfMvMtpcP4/ayou2KcBhnwbCAGx2o66lmh/BkBMuGEI/uGq0UPNr1dFthdhOP6wpoB03AG3+F1vpr28vo5XsJmbLjBCMNi8Z3+8lGY3Qlo5abhOA04qP2Kcdr6u/jc+CeZCHR92nYZw0hxFKNT9yPlayCDJ2WF+h5j+nf08BNLEh5zdz1PzWE7yt3iGVJkgnWF1XT28vWS/cxA4erRBiJqSaJt4qYanllWWINt/0ytSFiDBvK2aEVgUc2L427N5OclUMgAybgZofeUSkN7+j5m+r8Im9X/poBKTwm7XoC6rhLNZ2zAjskv5vdnJ4VEabt3aah1YDnFajFEquGqDrzdX8Ac4OXC9Omply2YhQ1LWj5o99QifDk0JDwlpMmTwXbmJ/YG63iA8mQQHwojEjtGYYUIsDzkjNz94EjclVQ0GK6lSAWAj1PtT8cMe6kINAf3nLZWH7NMdLJBlgE38ftWYE1Ib0fX96c7E4lAQmhGzOnhbuJmactFaaEVpDzGxRwGn3ahAf2Zv/KRYrNd78jYdggKBSzQ/x4ZwBPeiH142hcWcNECPnqPnjn8DJWoPejPDS+ys4o9gq2s8JjgzdxHRmBF7E/50RyLpPBr22ZIqHFgMcVhNojcTJoA21j7MV5R51wI29REBUnOrStahAJO2567oLxSEYQnzkkkzJVZN1YrflfmMWaLOJwYzwu9fn0+J1XxGOX8bZCJgqUKKFis5bhZ2if7z1lalvtKTBvNkBp7WHIHTG5/X+lUXIEUb2NK34iAMDbxw7XKSiEwcVMuFAO8fvsS3DoOX7FmZG4EV64brt9Nc5y2j5pp0hbxXs/zSw405ikVdT+PGXvxYWt7sXCWslU2jOt2hWwGnBJo7h9fn+xi+eH8n3EWp+7NVw7G7oEAx+exAMZ6w1a2ebk8pO3c1OAb0ZYe6yTfQ///5YiJmqt4p68mxjR8QxQD6ejx6ejwszKeu7UsRsTi+VZpvDWrANuOXRe3iNeVp1xQmuLsE3l3FS0D4iueqPb7iQ49QG8uqkOrBiaXK4WrPP15RpQLu/QwaxF5jb/fuT1eIwTFWbqT2CSws62ulxuScji1hzcrpmAZy0r+H4ov5THn6ERcFpRiIk1LwIm4Fd7c4JYxxv/pSZ9q37IhAf9WaEB/8+lz7bvCsSt1NFTI5C4Dk5GanZcbotjldO9JskHHAAGzoJ636/KY88yRuvn/MPXg7xZLet4DW+DhGxvKqGSjhZz8P/eVXISwT7NEfNn+hhTs/6tPZZnI3w9/dWsBlhEXM7r+B2ukgEATqeq1V89NhEJDJqDk4XOos6UUOiKNNdpaVKAJyNxUFOtgoRUgM2gSaiSt6r3XDhMPq/n06kPt04xYHMX48YKdzjFIcCcVJAdQFUXcBgYjq7fw8a0b87nwa0i8r43DvE3Wm0mFASINcDH4YXmNBl6MUrF027aydAt2XmzHCdSxz9SujMlmxY3bP5/6hXjoAAUNkiHd2dE86jeyddLDidlv3H8S7Oow4FIlJAK2YiYe1//+lNWvXlbnEmgs4nM6jBVPZzyM9lOGAykZwuYYCTnUJ6Oh8FZvDSwSuFOEFFipgCbGDzCAj9/lWjVFU/k8ixqUWcJ86FBFMAYqR0iP7183PYL3OtSN1nDDpanankXoXDJbFVwjYp3u4k5GR3GA6hShU+kQH/3wXYBHtuBBsUI3DN+sNPbhRgE/Jz0G0r3pdwnncoYJcCABsWfThRPHnXdSJF4omqWp0mXOzlvLAX84Evz0qwSf2E3baM7ot7D4dOYM8GcbLy2Df/4kYGis4SibohRko5+ff3XC8isIUHuGNXMxoP57cWoADmJECHWMpLRvTj/Vwln+66t8meLjiPS557a+nRwxsXfr5l4MC493Nxc7hJM2eKOg7tWMLxa+Is7KAxsZFydZz24MHbrwyBDatMwmTZFhggp4nUowC2MZAPAb5H+ARbAA/pHaBckUXVrPOsJv9vkHlABrTGQ424OJzct6EzzMX+wh3hPGdCxSjwBGDhlMwfXD2Gz1W7UMjJMsQink47zzoUSAQFJKfLcLuFc/yyDV+LPCrZjdpLnsfC1zebp26fH9+w4NVn7y7RZ62NqitxcTggHiIl79se59Ui6LKl7tsALKwYOMTwge9eLjrlaPujGhvn5hagADgdtjg4JekPP76BOrTLFUmoAEa1SJ/LQOmMrx67G7+B0cTatZglO8nd4CPJ2bT+LZQkwSy56Cw6fUaXjvTPh24PHfmUStrIsrIy+vjjj6mBDarpVLD3Li0tpW7duqXUa0vtJWLs7nv2beH4HLLRybnN+VIyA1nnyiS08KSKlgjsuBl9CWpt1FCb+tqfixrUwFHxTywO0ErCLxIrh3yZ6Ftqm0/gfebNm0czZ85smx1s5l6Vl5fTHXfcQVlZbPlJkSLswaxIuZ7PBZz/+Vaau3wTdeAU7EKbLhgJi5acSr9Bqb2DXxn5dmIqMYmUUlFyrL5uMlSnqpyrBo9ClKysrhMdx5+qDYqpmZheqCUeWvvFWnr//fdboqk22caiRYtoxYoVbbJvsXYqpHjgCn7JduIep3TUiZbqGQeMyTuRUQ7cLRYzQUxIwN4NtjeOUPt/4gXhdI0P/gNnQ86RH17Dp/qmYKmrq2NR8iM6efJkCr6dvVeCGA1x+vjx4/YeSJK7hBKFtSOIv7z50pFBwMnOY44LBUqneqqbgl9LH14U9V4uasDJDeMbOx+fGORuOAhM1AO2jLOxrxk9SKQWB3dLpX0b3hEr+6pVq+QopO3npk2baPlycZBNShWpK5l80VmEQzprahsaFSiSsSj03UF3/rYQ0QTRcrmoAIfKkf8BFA74/RPxiSA+8RlUlJzaqT3devnZKTUI8mWwos+ZMyftFCVGgwn/1/fee4/27dtndDlpf8M8xr6tiKW0SQw6+P02KizVvRzjoL/3pE8c+Im0e9G8bFSAQ+VcAjiknhu5Gg1J4yA6Bc1k6fC+IqOWejZ2VH2Jpt+tcu8HH3xAO3bsaJW222KjANvcuXN1YS5tsafR9UlKZdeeP1gccYZMBCEzQZDLMcO5GbXiVNZoao8KcLJiv5eu1PtLIo7NwyLl9RcOEbeFVoVoetOG7921a5fYtzglnAKLFy+mLZs3pxRZ5F4OXO6ykQPUFI1I5Y0iMoDjMzAajEfqM+wSICbAsQVAcDdZkAKhmvduOBpqeJ/u4ufQiqC9MUn/DREDK/mRI3wsmVPCKADlEURLKJNSsVx+Tj8hXqpcDm/YqDzx+dQDZhbRIts4sn0jtJJQhUIlysxsoJa4OFYPCTgvGv4dwqEamKBR8dk2PlLbt2+ntWvXtvFetl731q9fn3L0kbl2cF5FSa9TxXZJ1cOH0flifFv40Fihx7BTbANOorjB3TAGBkDpWSKVJV06tqPzBmNrl1rcDSv466+95nA3k9kEGs2YMSPlzATYJqFcNrK/YCgajbvADV8+H3lWodewq620DbjiAYdF87xZZEM3g4pdqPGJAttbj65FofTjqWQKWLlyJW3dulW+qvMZgQI7d+6kxWwQT8UCx2ZEhjdKbqrdGYyn3O8VXMauttIW4IBeuTlkUXEwGuAmxbPYQsLedsHQ3oLWcYfEilraRtm7dy/NmjXLMQPYGA6YCea8+y5B/E6VIhV/p7OmckCPU8SJPTiDXBQ1/wkFGvzn46tdbaUtwEkCfrTn93kMvuHie1Bbg/0brPOQc9Xf5d3J/7lgwYKUszM156hAqQQfU6834dnlmrPbEeuW2sqC3Gw6vXOh2MeFpDfhOwwY+M/C5+EtxbbUFlEB7oSvvjNDu0jtocpW/QHO484px7oWFkTseDJewEoNlbdToqMAvE82btwY3UNt+G64UaF069xegE3u62SXWfgTavmxNNZW5IAtwEn5lH1K+qhqUbU5rAANXj8VF+ZTUfu84I+yK8n7CRU3VmrHDBD9GEKBAtqlmq9p985FImQH2ydRGt28usLNy64zsy3ASfmU22LAoTFVYQIZF5m4CjloT55GaYuvRj+OLfrEqtWrCR7xTomNAp999lnK0A9bJpRTiwsoi8+f4y1VGFH4W0Gg2tsRP9pRnNgCnGyB5dVibWvC/sab5fZ5OSxWBmOjktzFBCvzh+zClejAUr+bV0eLv7CRTNAXEedl0S6u475EFShQPvnkk9QwEwQ5SGF+nsh3Is4uAKGkxwlHDwQUVzv8ZEdxYisAVW4IedfWQYi0mmBTdCA/J0tkQAL6k93DBJwtkWYATOat3YdQZX6h5XzO8tVTyVefU0Z9NUsR8QOgISObTo6+knxdVe8fsw64D+6hvOXvJ6xt+JzC9/Tmm4XLYdIWKbFhy+Tm3CfEfpWNhRUnnBJS8QZy7b6gLcDJyrj6Ai1DFSIlr2ZIuoICbpvMDA5pE7AyJ5K77e5yJu08jQ959bA44jNxSMjOIU+3M/kgwRzqu2ae3fGLfB8rs/b3O4e2DrqE+uVlUBa3b1p6lYjLHRa/ZXpbNBc//fRTGjNmDJ1xxhnRPNa27g1OaGyZwFREQDV+E2doiPg4N6NOaAztaCqjXEYVw5h6yLYoUqPTtihmrzdYOBIdDVCdW8Bg4yOSod0yAxt30dWukLy57ejr/udReUc2sTBgYi78bHlRN9o65BJOEOqi4w1cl5/nhtmfy00NfQaTl/sRV9uaTu/bu0eEMyWzn6XkcFkZ7iYZ5zQ6S85WZ69EBThmYIKVaZWjECMzrVZPe31p1btgBvjwww8T2oddXfpQdTYnMzMrEAuYuwWKuoq7vB2Kac/A88jvsT2GTWrHs6gDdQE8h+p9dIK1yaaFwdhQ3I2qhpeSi8XghBQWi1UzwaaEVNealfCJOglpPtpaVNkxIU23nUqwAr8ze3biVNk8ycHdDnay3juB+7k7dqZAZlB44Gf39BtF5Z1ZDIuFy4G78bP7ewt7rCh8VhiVM+hMBNrQvbXDL6TaU3vF1naolsZ/QAk1e/bbiaOtQRvJ9FO0gEumd7Pd13Xr1hE83hNVwGG29Rhqi7spBYXkK+wS1nQgK4d2DRpLDZm29+Kh5/EMnvXmtQ8DzRFG3eE6a8j5s/Oo4uzL1LZjAbwBEaGEgk+qU3jrkO5EQNqEN954I3ErME/SivadaV9Ha+4GRYq782kcuasTHLiOA33OEkqPqLgcP3ew1xA60Guo4XMVLFbW4Rw+i1L/neFUX8JtJ6hACQWf1FRLxxALedIecPBwT2TaBHCYL4OKEtMBgQmlYxehKDEEFe8ZNvc5l6rzOhhf11cOMZbv3dt/VFMAB++t5FMfhALFRqk+q5S8BezFlyAuB7AtWbLERsupfUuCdsfJSSSkTZj/0UcJNfruKz6DDrdXFSBmVAF3c7XvSH5sxo0mNf/mP+UM2scA6rf2I7OqgtdcVHbmMDp6Wl/j+oJ3HWHAFWa4KEt6vUeoGQqUut6DKXP90gh3RP8zUlT079+fBg0axB5K1uKtVQuwi3mSTGGXtoCDdrW6upquuuoqq3G1fX3DcRet+/Yo3y+VyZEfdXXpFpm7aR7rO6aUfjiiR+SKNFeez+pJGy3mMUTKg7Ve6p6bYdpLCJ6VY6+nK/oPpt5ZVbbat3PTiRMnEiZRwDumb19eYJKopC3gALaCggIaNmxYXMMFNyb8AcDvfLGLduOIaLMCM0BObhNFidEjnTwKXV+USYM6DjK63OS3752opxVlCkFBYlbKWbTswPu59p7IOwosGQ1QoPTpTSXtLVCsa0zSQ+93KG8Dd4t0zazfqXAtLQEHIzdWWgx6vKKNPygarT9YRe/tP2E5J4SipMvp5IWbkEUZ144Dewtctvs4PN9NN9T66PljkYGEJoHHQ6yxzGfAmfUCtSxtyKUhNZU0KMve3s8uTVPBDdBi+Awvm4+M4SPJ/2MFgw1Ai9fvU3A3Bq2X63pp9yE6wGcqmBZwt7wC8uazIsSi9Mjw08R2DU28G8weQ7zWje28hGetSg2LllUWxnBwuXL2YPqoNtNW7km7YIuX7lbv1pavpx3gYOSuqakRYItHrMGzABzKu4c4Bmx/ubUjKYuSwgxgg7vdymLckBzVd8/uBAL4+2S76EcdfMTSqGmRXM7KTAAOuM6XTQsZdGbFLthkHYmMTjDrV1u7llaAw6SAKCmBEs9gcDIl8XgF57l4ecs+quFESqaF25b+kqb38cWRmQ00ocDdGOxo9YDmOkB3aTs3nZ9tnebArpmgjhnz/NosOu4zdjSKFmxRvE7K3ZqNdIloAAAgAElEQVRWgKuvryf8xVsAWHFuGJfXvi6j7RU15twNoiRzN+kvadY+ONNthQEqsiEWRqoHz95Y4LdU/eN5mAnscLl9gQxaxK+plwriAZu+rkjvk0q/pw3gpKJEP3ixDDoAh3Pwth2roX/uOko1HPVuWvT+kiY3gzOdm6cJ5Te5N9IlcLnSdgqNE2GR5gVgs2MMh97zw/pc2svAkyUesEGkT8e9XNoArpb3bXruFsuAQyuJiVbNqvW39pTRgRoLjsn3GvlLGsEAZoCfFsfH3WS9uW6FftyhzpYCxU40AbaEFaxAeb/SRTW8vsQDNtnHWOhvRLdk+i0tAIe0bdi76Uu0A45JJgIQmbt9dfgkzdxjfSChMAMUcpiM3l9S3xn+DjNASZbahsHlqH5CP8/MUuhyG1xOKlAsdqGi/eW+XNrRwNMmKFJH1Snn5vRwXq6srEyIokTa7Mr54JJnv/6WQ16sFRPCXxJmACP3Lc0EhCr/ewX1UZkBzOavWBwYFHbNBFCgWEUTCGM4y5aza7IJjtDxlng1xfG23xrPpzyHQzxWVVX8rknSewK2rg/3HaN5B9gMYFEUVv8LRYkN7gYzADhSKA2bRd1mlwE2cHUsEN1dXkLdVmYC1GdHgQLQbfVl0gI2iLsSkGc7WinD7L2T4VpKAw4TD4AzG1Sza3IAJbfAvXsrvfSvb45hE2M5vuBuIrDUgruV5niFGSDeIvdV+szHN+Q12DIT2FWgQPRcUZ9JR3wWbmw2XsgO/W1UkzS3pDTgysvLqba2Nu7BkKIkuNs7ew7S+uMnrc0AmrQJZh1ox8oNqPDjMQOgfnBgAM3IxpjDo/zdAi+hLasCBYodM8Fu1lbOr49/kXAAZzUiSXIdZgBwN6z6+DMrZtflBAbYth6tpnf3MnezKFCUeNhfMpQ2weT+azkPGlT48YiSWBCsfEJH5fjoZhtOyFCgIJrASoGClRp+lhAv4y1m9I+37rb2fMpyOK2/pNx/GRHfbIWVoiSeg7/k8zu+pW0VFhwT4LbpLwkzAPwlocKPpaB/iKY24mr6+hA7dmU+Hytmw6COaINo/CwbXPH5wJuNgf49kv17SgIOopV274YBNQNdpEGU7lvgbssOltOigxXmoiRXFDID2PGXLGigQdnqcV+R+mD0e6S9mtG98je8fz93A13Xzp52EdEEdrjcNt7Hra2NbxrFCrhk5IzxUcpshFvx2rFjx5qIWGagMxo4TFDpvgUj9z9ZUVLOfpOmRXK39sEDhkxuBqe5kid/tIdXoq+R9momzYUuXc+eLCWZ1qCDmcAul/uknjM88/2xllgAJxedWNtsredSDnDgbDIaQE/USKCD57oedACcnAhzdh2iJYesuRv8JUU0gEVBegN49Pfi7Y8EtcUj4jL2aXoNpJ3ncA/eD3+d3HV0Z6HXlp/lXo6ts6NAWdeQQe+y21c8RU9/q7pAi2ifsaqzJa6nFOAweSsqKizNAPqBArC0q6x03wL32V/FsW47yqyjAXi0kF9SJAWyKKOzGmg8Z7Gzu7Kjv3b3arJpPINFAwAN+2PfyZHuGkIfrIpMx2B1H5Qsr55w0x52bo7VNme06EVqN1nBhvdJKcAZ+UtGGrRIigYxUfkPYACAYQbYVsmBpfw9YoEoyWYAP7JcWRSo5qGi1ypK9AuAtgq7XA11oL/40wIMv2vrx3tx9I5tMwHSMZhlbcY13PMNu3v9s4YDVWOULO0uPhi3SGNnQfo2cTllAIdJZsXd9BTXDpyclFqb26ffHqe/7Tisf6zpd57EwgzACVytykWc+fwcnvFWZgD0LRJXk9xL7jMlwMCZJXdGPyJNYoDiLOZyE7KZJVkUmbXZCEdQqiCjs0yhMrs2hxY35MTM5SL1V3ZRLCr8jslcUgZw8JfURwPYGRhMWgk2LQChKHl7X7m1ooQbQTSAXX9JePBruZvRJNPa1SSHkiu7BJe8RwswO+8r78ngs85uzqm3ZSYABzPynYTvpTZhERQtsypcdKSeOW2C91igQ6z712jo0tz3pgTgkDYB/pJGk9cOAeXKiQHFv7F3m3eo0lbaBPhLGmZPNmgYnvuR/CUlsMDVMFkBMAku+VsiJzG43OnZAVtmAqNoAvAZIxAurfXQMn8+n8irAgTvYFcExPjJxU9PvmTnbPJ9UgJwSHlnd1D1A4kBxoTW/pVVnqQZ2w/YUpSIaIAs1tBZ+EtCFX87G57RnuRW+JTtgjtDu4rvEmhy8sW6kOjf1ej79RmVts0E2mgC/BscTV8Azjc5EmpfQ/AIs6AYKBeNSIBCPZHeM5ELjb6/Lf096QEHMwDEyUiDZURQDDomNfwswR31e6UZHOe24nClLUWJiAawMHLDU/+6Ah8VsuFZCyi5+mNCoS+41hIg09KkU6aLpkQZTQDtJSILIpVV9RlCgaIvWq4daYHUcznJ7fV1Jev3+HxyWvmtMTkBODsF98rBkxxGglQ7yIc5glv4S/L9pppJFn9gBvBks6uISfFxPUibAI99o9Vdti0/0Uf8Wxxv2wIFTOqijGruYx4trDLRxHJfcPjOwaBnm5V9bilHE9zsradTM1QxXfsqcsGDKUD+yevahVOOUwuQocWaSGrA2aGSBJleLNFzRPGdRTxbhUGk8LkAhV1Po67Z1iTsa+LZAW2lfn+CiYZJqZ+MtvoWw01ZAR+1//ZrojJrreVxXmR8nfiE1jiLXGDA5fFv+a7yd7lA6pvxWeWP0T/Qxr5bz5Y21mFtdzA4eXl5QizUcg/4QEp7lBFXifRK4EadsjPogi4Fqu0two3ymCmkj/Ow14gVL0Jex2VsHL4kt+lq7+MJh4J3AdDwKRcDCcTmzOEIv+m5ZdWqgsgi1R/eW4FhP9IBJBp6nZ9ZT6d4wNUjEDH4s3xXyc3wrureNjya3udTv2M8JSjls+YttK2rSb+HA+Dy8/MFl8Af9kK1wX1ZNGATk54HG+WHvYtpVDGOkTKYLRjw4DFTMi2BwV1howxgImBTn9dRcl95s34CSRBK7WlzTB2o8BFQK/Jqgsub/Jker6XpHBREMDnEUvCuqvKonscTUevqn55GelrF0lZrPJP0gAPRcnM55yMDAZq+aEGmJbp0JG6flUHXdutAOR4D3qXLL4mAzXqLQw5RC+LGkNdRW/SipNkkkgtKIicJuNs7fB6C3YBaf+duls1LBVE33rtFUyRXk0osAE9Pn2jqa6v3pgTgsrKyBJeLB2zaAUI947p1FKKlnsuFncfND9kN2ITdClzuMEdJA1iYTNH2F/cnitsBbLsra6MKqLXSxoKGUBBd5q5iFy8rvq9SHO/U0OAVi6XXq/p3SkmjORaZ1gZiSgAOROzYsSPl5Fi7VlkRXE4TpCW4uUdH6sDcThSIkuxRYuQvaSdgE1wOSVTfYsOw8Hk0cFGSexOrPupFUav7ja43sPLhzQOVpntV+d52A2oRBTHeU0EdXPbABq4GjgagycUHnzIOEe2nGuhSBnA4CRPnvSWiiEHnv5FFeTSxe6GoUgaWRvKXtBOwiXrW+nJoCxuF4YkRT8FkjYVLok1wt7UV9fbzahqdQ27Q+Uk5NXQhp3Kw4m5a8dEOl0/EAmPQ3Vb5KWUAB+p16NBB7OfiKVpLFBK+Xt+9M52aw0ZcmTYhgkeJ3byO8vinGsVgf8gdt8vl8I6YrLFMxkqWb0VArVVeTXB1s3PINYRGuogbPbWUYWI/NBIf7Y4VpAIANdlLSgEOkxWipZnywWrAtM9igvTkQw7/q18XW8dM2cnrCILDTLA5Qoq5WPoeDbcDd1vNXjQioNaqsIII55BbFShKbuV0EWdE4G4SaHrx0ajeSBwPYqb0zDF6Lll+SynAgejgcO3atYtaIWE2YFCgDOtg7lGC5+0EbIKDwkyAUJbD3vjzOsp+2+V2MAM8v5PNADYMyCKgNo8jZS3KsIwGgk+mUTHapxndJ3+zWnCSHXQpBzgMWHFxMUFzGWvR766gQMERUnbyOloFbKJPECZx/NNqaupviOuRVnk774MJbqbJDJkBzCrD/lIG1EYQoeXjUJTcnFVJBTpFiVZ8jOZ97NybzKBLOcBhIkCBgv1crAVcSDvw+PcYVneP4IMSrYpZwKb2WYAaxz8dYAWKfhCi2cdF6o9+bwdR8ms+xw7Ha1kWXrTsBtQiVcMYDqjV0gtqfjvio2U/TG5IVtDpx9rkFZPrUkH79pSZacxBrN7ESKwBl7ubk+/YyesYKWBT2y5AjeOfllNOE62eUftWfTa6DtBJbgcn5bkHq2wfr2UnoBaKEqSLgC8mCrgrPH20an6jfpn9ZmQuiXQ/3i3ZSsoCDhrGeLicfiCxgg/K8if8+CdkL14byAvjcokCnKwHQFhTXptwM8AVWTU0TDkpNKWSq9kRCfW01X6XRm+ze5L5WsoCDoMCwMHXMt5JoB1gHP9kN6+jneOfYCZAXsdIZoJETK76+gZ6ddsBe+kibJoBwOlhBgCYtV4i8fQX46Q1esdTV1t9NqUBhxW+sLBQhH7EUvRAxXcc/4RgUjvFjpkACpSv/Jm0ig3izVFAg0/KG2hZOTsTwzE5UgkqSuycQ44qxrsrqAtzN32kRqTqnd9VCsQ2E5OIeuBw0FomqgB0V7FtHUdMWRV5/JNe66l/DmaC+bVZYWaCRChOUMe3NQ1qXk0rMwDfq/cT1fdTfh/JyqOLM1XuFumeWH7XL3Cx1NHWn0l5wGEAYJfLyGg8DN7OoJjto5AqIZrjn4yS7Wj7IM0EiwONSh6z9u30H/dgAtv1l7R7Drk0A3RWmsb22e1XOt+XFoCDmQCiZaIKJvKwbD8hx6RVkWYCKyEUXBAKFK2ZIB7Q4dnd1Q30HoffWJVoDiC5TDlBIwKVoX1xOnAlK/pFcz0tAAeCwEyAaIJETRCYCW7NqyGoxq0KognsKFBgJpjNKeYSoUCBouSlPSfsmQGgKLFxAIk4PJIdlD1Bf8lEiL1a2lklx7WiczJcTxvAwUxQVFQUlQIFXCcSQPH7AA6yhA+hnQKx0irxDuqRfpYYGLQRqX2zNt3M3VZVNKhpE8xu5GvgbsJfEmkTLAoyNfdWwtNZJBp0Fl1I+svWVE76V2x8AfhZyuhwO68lPE5MbhTRBFEc/3TcJLUcmpF+ljATlPvV3CaxAA7PvvXNYWt/SQa03WgAYQZwl0e1YJmQLm0vpRXgsBpDY4k9nZ1itYcCGIozfSKvI5QJViUaM8EGyuO4tfBTfazqx3U8s+zISdUMYPWALl1EpNshNcMMUEzGqf5iWRQitZXqv6cV4DCYcGpGoKrdSSK4HGxUJmVcbgONsz6lKhRNYKVAaQiaCZC92Ar02m7h3v02zQBI0W73HHKkTZjoMVe+WNHIhHzikhCfUyDezeo90w5wIIhIx2CRwNWKcNrrUKBgf2NHgQI/SzsniyIdA/wsxUS0ALzsC+6zawawmzYBipLL6w8SxOdIxdnHRaJM098jU7HpvSnzi0jHwFpLFGQ4xoSJ9KdNUGp2z+hcP8G30KoYHYwR6RmYCb5254eSpGozFev/jfdYX+W1bwawkzaBFSlj6QSdwy5ciLjWt6n/Hok++t/175tOgLW3mdFTKAW+A3B79uyhXTt3Juxt+p/MJk9eDzVo0ySOTJ6f3d4Teb2DKAs/yyXHeLIf+tJWH1+tyrFlBhDczeoAEgab5+QJ6n9oO+3OaRQnI7nJyfQHka7LF4B0ceqpxpmbo82q7OYjt5KtpC3gICJhLzf/o4/owIEDCRu3/gPPp41jbrQ84OObGi/1y8swVbbAA2Xt6tW0e+lsW/072LUPn4d1tvm9rCihU3ta9g+nAfVf/T5t27yUtmr2VmaAAujMrgNs99xzDw0YMMC8jzavttT5Cza7Y+u2tAUcqNOzZ0+67NJL6cWXXrJFLMubeJJ2/notFZ05jI5268eagMhJbyBawkzQNcs4mRC53JRxaDflf7GQTzVlv00bdrJuh3fToaLT6XCHUyJ21dWOU/1lWkTDc1vuw/vEu+jblpwsUgNm1y+55BIaNmxYpEfT4vfk48kJHpYLx46l3r17J6ZWnqi5J8vp9K0rOEOstUEcWZsjnp/t91HumoXkqeAIbRtgwwtk1FdTl6N7ofJr+j74jdMm2IoG4L4PWveReBe7bTdtMPyXbt260fnnn291W8pfT3vAwcdy8uTJIm4uIYXB0XXnejp15zrLyRoxHQNzt6ydmyhrx4bousRtg8t1O7an6XN2owG4jqKDX4t3SFSB4/iNN95Ip59+eqKqTNp60h5wGLmhQ4fSkCFDEjaI4DRnrv5AKB2sOAT8LJFEVltc1RXUbtncqLibfB5t9zy4I5zLMXezFQ0QVJT0W/mu4JZWfbdLsP79+9M555xj9/aUvs8BHA8vjOHXTpiQUC5XcKKMTtuxxnQfJ2eW3s+y/a5N5Pn2m9gmPIMGbffavzU0cUPRAB7rECX0uUPZ7tjaNoAKJIdrrrkmcbQ1aCOZfooWcE02JrCh1CdhMhf9IPXt25fGjRun/znm7y4+/XMA74M8J6z3YDATQIGCnZer9iS5Vy8kPB9rwbM9D31FubVVogrhL4loABMlDriZp/wwdd/8aVxt6/sMyQESRLKXBoOzIGJ5p6gAp1BAjCCOxIulsbb8DMwEV1xxRUIVKJ7K43Tm1k9VBQoUHyZ/8LPEsVfZXyymzH0sEuLeWAs/m8tiaa/9WxoVJSZti7YYjOhrh2NsIomnbU2fO3XqRP9x001x5QiNlQSJek6qn7wcMQ/jv7ZocGB7dYzKLMCNB094bmwWZ6rVBXPUs79Got6zVerp3LkzXXzxxbR7925xwH0iSs8Ni6k2tz1VFRkbe7VtNNRXCTOA4EQJmPRQoDQc201H8qzPW8g/eoDQ10S1jfeCGeCMHj0SQcZWr6NBezqsRKHCngn4Nwt56GDxgMMG6uHwrkcFOK6Z81k31glNM0TKWg52RFHYY15tv9XpE3MHxo4dSytWrKANG6LUEEZoMaOhlkqWv0U+lzWp3X4vuWza3CI0F/Yz2u697hMVSBYPJLptmFogMSR9USc5VVbXMYfjc9dDwp0CJ1eILQH+rwkjivTe1rOAnwwhN0Bq2t4gsrlF9ixQqLyqhuqYI2Sx+lc42iaxxIlN/jieKFu3bk0YlwOIBJBaobRG2/A2gaSQyLQWrUA60aRkIMcqqzjBrapN1rIxZjEnGXdssLRXotooMI6OqL1QEQVseZi45ZXVVFVjW4y117NWvGvkiBEETueU2Chw7rnnpg79gugqq6giiJVgMKIED/jjy2Vu4mBBLgO3TNRi0ZB4tgAnK3KTi3fhKCy7BksGn4N9+ESVYLniiryQxJ8wE1x++eWETb9ToqMAJATQLmGOBNE1n/C7IcWhHDh4gmp46xQCHAuS4oJCxzr2Ofsg/vnQQ9bT3xbgZEUuJWsHi4sqsrgBiI8Z7PF+uLyKwHJFSQXE8WvATHDhhReq7+T83zYFRo8eTYMGDbJ9f7LcuOvboyqHC26XWJQMznTlwKLppd6x0xd6WJ9hOfttAU4SJa+Tu5JZmxrPolBIR+rnzeSOvaq0mSwEtNPPiy66iOAD6BR7FIBEAO5mN4WFvVpb7y6gRwbe7j9SLv4tYaYxCWyPpoe2ACeRu+LpnyHCUnWyC7JUdApsds32PWq7yW0ZCKMdfP/gAxhtEtloBiBV7oWiZDx7lEAySJUiI+0PHqugb5jD5WRlkCaVn8AOHz6yGp9jaWzk0BANQWwBTlTILBOfjHABOMlSpeJk1dbdQlPZqDbVtJLE/4QPIHwBnWJOgV69ehEiL1KqBAXEHfvLaMf+w5SZoT0HLwDh0pvhy1iGd7azf8N9tgEnTQNul/I5ww3HjTEAhS2CsjI9hFVg1Ze7Bb31FvlkHgRs/m+ZMsVRoJgMImg0adKklDADhL1mUFpbsOar8LcPbqdYdbgur3OGjRMuGx+3DbgZEycKllnQKY+DvQIqslg1ikXAw6Hux9k0sHS92rFk9zjRzy2ISekeOKmnifY7/CVTjT5iq8Q8rLqunhat3S7MXyE1SUDqL5RF2GZNnDGDsxNaK0xAM9uAQ4WoGA1wP5ZqCQ4LfH5OFr23YgsdrTgp9nR2M02ZDWRbuYbN8tVXX+1wOYMBAXe78sork9pf0uC1xLl3KB+u3EI7DxyhbN6/qXMaBjhFhOlz+imBg8Nbim1rLmwDDhVLe5yLXG/huyzoCOTbPYeO0yert4mf5WqgvS+Z/92T0zHAN9Ap4RSA6WRgSUnKkUVqJ+d/vpXguBzSTQiDt7BD7+yQmbkQL77wobFWqUZD9IkKcCF7XDvPUuZ4W+HZxdqTkHYGnXpryTphihNcLsWGIaHRBClAG5hMwPnNclYm42tKTeTmXd/SkvU7qF1uVlO9hIveW/bi/ZXRiJOgRVSAg1gJbeXG5351nMH0HipgyVUALsBiJdSma7fvpQVfqFwO9rlUKvANHD9+vGMmwMRhMRsJmFLSThmctq/MW8kui3WN3iVioquWb0/A/W98tePOpcVAVIDDg9Le4A54XmK+WsV9E9pKydXqGrz00nsrhLzLGk1tWynx71GjRtHIkSNT4l3ieYkSFiNTzgzABAGTgHQG7jaPxcmcTOzdJKUUFh0ZcYoyf+OrD7Dy0L45QNYQNeCmT1eY4waUza//egs3PS9YkeBy6GxudiYt37iT3l6q2sdTyUSAd4Sf5SWXXJoyvoJyIkTzCUcA7GdTIRpA/94IMUP567vL6BgrAOErrFEAqnhxuV6USkS72knZTtSAw4OTZs4Uz/HJYk+pe7gAa20a1aLo9AvvfCo0lpDvU+2gvWHDhwnNXLoWRFKA06daAXMA3D5cs4U++Gwz5TPzCDEMoatgZYlCq0uu7jsL7z5z0iTbyhJJq5hlvunTAy5wu/5THvkXrwA3wRjOHVLVpQwygO3OCRfQg7ddIQL3Uk28LCsro48//jhhMXPJMnmxdystLU25vRuYApR+FdW1NOFXzwtTQF5OppDaRAHgcIvbfdPWV6a+AWVJLICzFYBqNhlcHvcTPq/vOua7nM4XXC6gYFUobJdD//p4FY0Z3IsuHv4dsVKkkjYL6RhuvvlmM9I415KIAmKfxuzn8Vc+FG5cBbnZGs0kM5OAkOIWTu71wMzpNJXgCBILt4pJpAQdwd2A8s0vP7CODQC/x2/8qWGxyOblo1/95R3avrdMFS1TTGuZRPPJ6aoJBcDFIIG9yMq+f328WjhxhOseGGzM4TyKayrmPaS7aPdusvmYAYcKpLuXp13m07DLCY2l9DPjJQManrLjlfTff34z5IGSaqYCk3F0LiUBBQAsaCU/YVPWk//6SMxZbWEuFsyNoTy16bWpy+VWKtZXiwtwQDk6ALscW8B/JvZxQTsFOoSXwWqx8esDdN+zb3NOCM7twS+XakqUWInvPNe6FJDbnC++2kO/wPxkjxIcgdWolQw66bOipCgz6xH01m5UQKQ3iwtwqDQkWr427UPG329UtxcoUNQiQQcXmZ8/OzsUNeuALtKQOL+3BAUk2LDd+a//nUnHK6p14TdCH8Hnv1KVh9w/gVdJPKKkfCehVYy3bJk5kxeFgDJrY2Bp1fE9nGY30D/IigWgsWLAC2X9jv20r6ycLhjamzL5FFKIl8wl423eed6hQFQUkGCDcfvup96g3QePsUYyq1EjCeWf6ssBI/fdW16b9g70Fc/eXWIryNSsMwkBHBpQlOmul6f39J065MoFfvJezctDF9VUoLqPQQuUzXFza7fvo407D9DoQb3YR03VBKVa0KoZwZ1rrUcBLPyYh9CWf7pxB/30j7NoLzvcA2xaJQmzAEhonDOLnvnytYcej9UEYPSmCWUvckM58LbHh7KpYC6/3WnSfiEbx8vCP61f9y70x59Oor6ndxYvC9A53M5oiJzfEkEB2IIhTGGevf7RKqH+hxtiDjMBXGssQXuyorxZWJx/K8LRIL3FqpXU9z2hgEPlcjUomfLYaF/AN49fJV/ldKpRHPdI0BW1z6PH7xxP484aoCpS+GZ4qSS8U/q3dr6nDQXA1aAvwJxDMOn//OsT+tvcZUIb6eGMc1qtObZB0LQzuOZ3KM6fkGiwibmfaMpjPwfQLZp2554uQy9eyS98FbcRBJ0UL/nQCn7h6tp6+mD5ZkJGpMFnniZETBH4B+A5e7tED03a1QfJCfMI3jErt+6in//pbZrz6QYxz/RB0lqwedpl3LTmmV8IJUlpqb1IbrvEbTZmEuJ0tz42whvwz4Z4KV9Kdk6CCukZhjDg7rj2PLr2vMFh/pfO/s7uUDr3SQqoyjh10UaunZfeX0avzlsttjLt87KF+r+xCEBhlWfjtjKH1f9TpEYSGvhEU7XZAIeOStANvOU3A/yKdxZzO6G9VEPUG7M3IydKdV2DiKkbO7wv/fiGC2h4n+5CuwlqoJMOx0v00KdefdLUhEUac+ef7DXy97nLhacTgkjhTRK2X5PB02og9fOFxe3uhRgZr3HbjLLNCjgt6Abf+mTn+kDNX5kS46U3iogYDxYAClLkiapa4Yc5sfQsuvv6C6ioIE8FHiMPYoBTHAroKRBamDGH+CLEx2dmLRbR2kj+AydkH3M1rWokpFfgTOKugHLfltenPQOgoe7m4Gyyzy0yg+WKgWjxg18t/TlTZTqjCM7OUL/yS4Zzu/oGn8jj3r1LIX3/ytF0y2UjxMk82hVMT3Tne/pRAACCVISFGgv2N2xPe272Enp32UYhPsIBGTJSmDuh8PoPGrXZHZG54Y83vzptAaQx4ZBsM/tWrNRuEcChc1CtIo4OIQ3QYHrJ9xzTYrBqNlAJIF8CncJGF6DDYY8lPU+hqbeNo1EDe4n9nWNGiHW4U+c5CSJIPQipeW3+5/T0m4upjoEGDSTOvNCp+3lVD4TyqTKuXmEf4HvhlphIO5sVhVsMcHrQjfn+E+2O1dfexwb+q60AAA4WSURBVKC7l1eqfEPgQcPEf+LUEv68alQJ3XXdBcJ2F1rdHDOC1Rin1HUh5QS3Fzg+6pP12+jPMxcLf92sDI+I0MY9EDPVIpUiqiTFHGwr/H43syuilgm0FJFaFHDypbSyctBI/rDY20mXGuEA3ShmQlwAAU+yGQFiwg/Hj6Epl50t9ndC9cv/Ofu7lpoyrdMO4AOTkXSQgFvWM28uornLN4nM3wAbT5LwfZpWfGSfSJ4mTyOyRXK1lhAh9dRqFcChE3J1kS89cMqj41m4/h3/zon8w1cl3C/FTAAMZ9FBzIQZ4apRA539nX5UU+y7kZr/nx+toRMna4X2UTC9EEcTk0VV5wulnOLj9Xqm261M3fSPaV9jsd88YKbSGmCT87hVh0fL7SBmHq2ru5vJ99/cqU7hhFO7Cd7n4gPnYTSH6HDuwJ507+RSOqd/T0F0rIQAp2NGaNVhTUjjGF85llho//HBSnrx/eV8ks0xATQR6hXuliUYIf+pijgOq3ErrvuhFEGHWkoxYvbyrcbh9J0CMZDjDyrZwbc80a1BqX2M0XMLUxBp+HzM9JBZNsyMAPEC54vDjDDh/KHCjNC1Y4EKvKCcr2/H+d72KRBaOHl8MUHhaPynN5fQ8k07xR4tlyNPDNX8co4oyn5W9T/RvnPe36RdDW/dnOp+u1RtM4BTCRLO7oU2M+Dn9A2BMUZiJp6RWkvs7wC22648V+zvsNfTbrDtEsS5r/UoAPakVfPDYP3s20tEBi04GiOYOVwhwg+EGa/5dF4l8EKmP/v3G16/f58UH2NJ9tNcVGhTgJMvqSUUON+mOV/ezqver/h6L0HgoB1FSxQAD4MCUfM7HInwwPfG0dihfRwzQnPNnATXq1fzv/T+CvrjrEUiYDmP09VFFh9Vp3jeQsxn8fGBTa9OXd3a+zQz0rRJwGmBh39DFBh0528LGyobfs1xgT/ildDSjIDnLh3Rj+65YSwNZAULinbzLdtwPluXAlpnBhzoOW/NNnp25iLasvugABoWUn+A11iwP1GaqvkZjQ+LbFrBBD+4qy2Ij7LH2s82DTjZUe1mF36ZPsX7CI/ADSr9tRop9QmpMIG3AQbtB1ePotvZY0U1IzTGRRkRxPmtZSggxUds0rAXR14R7NPm8fFQOBoKwcoQL0M4Q7fCtI/Eh8orf8goyHgean6t8q1l3iC2VpICcHg1AzPCOB/5n+ARGaxf9SQp5P5OmhFuHXcO3Th2qGNGiG2uJOwpraSx93C5OIti5kJVzS/33uZq/sBrnOzn0bag5o+WKEkDOPliWm3mqHufyjlRdvI//eR/kK+rZgSxv2v0z5RmBHirYD8wpPdpdP8tl9J5g3o7ZoRoZ0uc92vV/BiLZ9nv8fX5q+jAkRP21PykLGOP/welmj9ZuJqWbEkHOCPgwYxQr9ROZU53G6NIdYqOYEaA3x20XdeMGcRhQGPp9OIOjhkhTiBZPS7V/DK2ETkgn31riTgTXqr5w2PUUKPGFMRqfp6o07v0Pv/lRdNLvckINEmjpAUcXkAvZgbNCI/xpbF8FUYcjceB+spaM0Jxh3ze342m2644l207mQJ4WIVxj1Pip4CenvDm/91r8+gTVoyAwxmq+TVA48lZxV5+f8lUcp7c8Op9ZW1RzR8tlZIacPJltQOBEKBDO5fdEPD5OEem1owQHgYkzQgwJUDM/OmkixwzQrSzx+R+rZofB7vAm/+l9z8TR0CZq/mll4gyx+1xP4RU+vqF1aTZNn8pJQCnBR7+DZWwjEZghnUn/6TZ3zUmM5JBrzW1DaIKbbQ5voswIOZ2KUUk8abNV7TOBkjaM3fZJvrLO0vFARlq2Iw7LCVdE4WXQhs4P9009uafk0pAkxRPubmkH6SS7z16ps8XeIwVzJOEa5iBmKk1I2BS3Hbl2WxGGCM8V6SdSICz+eZp0tcs92mSTjLqGuIjRMfMDBxsaOZkrKr5i7Ky/ixzisDJuC15iSRikFJ2DumBN/DWRy/yBYQZYUSTVTVISa0ZATF3cBFzos2tp5lW+6iNuobXj3ogvTY+jevTefOzLftvnNfmSa2aP9WAlrIcTj89tBotsb/bsfQ2Xmin83IbTFKrMyNwBTLaHBv7AWd0pfvYjIAz7oSxNujyIDVu+vbS6bvWngYvEcSnvTZ/NR0przJW84eABmMN4h2VZXwE1C9wKg0WyIcfJgWHZTCXDLN3pxJNU5bD6QcpLBoBCY2oeioP7R1WZgR4q+BchMvPHiAUKz26dgyZEdI1aa0QHxkSMugXR/Qi6hpnRyAQFF4ipmp+op18kuivcXQvOFkyq/n188zqe9oADoTQr6KINvd7fU/w9LlEDf1pGgYknWYRjYCchv95zRje341SE9SkmRkBQJNmE7Cgr9ib/3evz6dFX2wX8yw3G4medPs0nZqfxclQ1HU6AU0CMa0AJ1/ayIzAns0P8YTqL/YXem8VfhBiJkRMeKxAzLxr4li6YkR/YbhFshpk8EvloFe9mv8lDgSF+FjOSXxz2V8VQmJYMGgYHZmACr3lDnge3Pz6r7fo99dyXNLhMy0BZwQ8uIkdL6v6Ca/PptHmAFUtZxJDAOR5g8+kH004T7iJoaSiGUHGn0GhBC+dWQvXhqKuYU/T5+dvopBC1LWq5g8l7Wmt9AZtAdBpDTgMgH61Vc0I/mksYqrR5hHMCFjR4RSNPcutl59Dt181SriJSTtUsu/v9Ps0RF3/Zfan9PHqL0Vufry3BKM6kYNhMyZR16mo5o8WxGkPOEmwJsCzGW2OSVfByWx6nNKRbr50JP2AgZfsSWv1av7/nbEgFHVtpebnCeXl/MXPteWo62hBksj7HcDpqGlqRggFPzZ6q+BxiFsyae05A3rQXZxbBWYEFGk4TwYzglbNDy+Rlz/4jF5md6y9Zcc5b0yu8T4NLxnMNcPidijqWr+A6cictl8dwEUY+iZmhEDNfaFoc5OkRjAjQNwq5UNJfjb5YjVpbVCN3lbFTK34iAVi7srNIur6yz2HhFKoqZpfJz4G1fxb/vHADNjQ0lH7GGEaNfnZAVwTkjT+gFUaxlj8Av/MYLT5b3lF5zPvwOWano2gNSPATeyH40eHos0xsaVa3aTZFruk7Q/+veWbg/Rb9uaXh2DksJof9jZcayxhppMjvJd9rmNm9pPSHUvSqsVeIskacgBnY8C0ZgRwvi1ztl3F0eaPMvAMo81l0Ks0I/Q+rZhj7y4MT1rLc7i1OJ7kaOgntK44Q+2FOctoxoI14hCMiGp+0Eq1gHj5wVkyuaojPtqYRMFbHMDZpxVzOTWNH7wjmkSbG4mZXDdABTMCwDe6pJdI0x62v9N4bETRlZhulRxNpguXh2Bgn4aoa1M1fyigtzHq2gFa9MPgAC5KmslJpk1aGxZtHsGMgEmOCY490TWjB9F3rzibhp55esg9CgoLCG44NDCRRQ8y1A2FyIecrAep6FZ/uUd489tR83PPpvPZ16+3teSqiaRXc9eV2NFt7t62ofr1q3tjtHmgtInxN9hvNeVbQIhtUK+fM6AnRyOMDAW+4jYJkLBwIAarnYESO63gfkvsvfg/tInf8TwCQd9gsXHO0g1CIYJFQBxWCLBr92naRYMPLORHn0mlqOvgcLTKh51xbJWOJUujWo0c/v3GzscnhqLNI5gRpGIFhvNM5ngDe51C13GqdniuYL9ndBIQQKOmjdMqMFQqAZyRzA7gqhu+3sfp576keZ9vEfs1CbQmCpGQO1ZjclWXx31/qkVdt+bccgCXIOprzQhIWuutrL+XWYvu7DtNNjFuF/6ZSHJaW+cVdrwuHPCKU4FG9j+DDynpQWd0KaICdpjO5tNfjUCo77pU0hyrqKYv9x+kZWt30qqt39DXB45QDZ+hjqgHBIKihPk9yoUhuE9jAOMMtV9yFuN3HTW/nsrxfXcAFx/9mjytBR7MCH7Fy25igRuZL3kaHaPDDefgUNi7yaOWwYE476JISdDz1CIq7tCO//KpQ34WaxCzVdsYg7CWY9AAMpyLjlwhR05U8bG7R+nQsUphfsA11AWtIz5xvlo4f2xyLJhIrlrYOf//nH1ak6FNyA8O4BJCxvBKtGIm9nol332slPdJnMYvmE1Mx1Hk01I0lN4p2FfVM2gAHHAkOEeH7bWCD6qAdRFHTQsw4lPsAYOjG87N8JC0peEOcfplFbtjvSTdsfT702YgUdpW6QCuGYdeHwZ0eMenV/oCgZ/yJC9tbDZ88uu7I4EDtYkEkP4efJdKkib7MnFzKIKaj4ttPPZLAs3tz/hLuofNGNG0OX5zANccVNXVqVeszNrx+LnMs+5hTnIJ39pJBYRIORA8+F1ASz1UMNb+sQTJMBN5OYU4qy2cGYsbeCcjkP0CjnXCJccdK1ZCR/ecA7jo6BXz3UZiWjCjGLjdRGZRoxkY+WENSK0hcGi36IJnxWNCza98y9Cby7FpsztkZi6DKxYuabmw3Sac+2KngP2BjL0N50kdBbSTHECEJlA99bVuHFvERvC2qoSPex3SBIDRUJLTg/Pta7ie9S5yLS8ozlsMRQiqMAJ/NFU798ZOAQdwsdMu7icl8PQR0HAbqzx28lTyKV1Y9BzAEOnOjfGfcgrv0fJY8uTzEyiT/+oZnJXMwY7xPUf4398obtcuNiFsc/syD1x/5s+PaM9Jc4AW95A5FaQKBQAGpPHDX6LeSdYJUwX+nah6nXpip4AzCLHTrtmeBDgQFoSUBPDZjKYh7TOpnuMxGro49zoUcCjgUMChgEMBhwIOBRwKOBRwKOBQwKGAQwGHAg4FHAo4FHAo4FDAoQAo8P8BbKhjRIdpjE0AAAAASUVORK5CYII=;" vertex="1" parent="1">
          <mxGeometry x="438.15" y="350" width="80.85" height="86" as="geometry" />
        </mxCell>
        <mxCell id="9p8DOmJokwP15oGAAXyM-42" value="" style="shape=image;aspect=fixed;image=data:image/png,iVBORw0KGgoAAAANSUhEUgAAB88AAAMLCAYAAADAK9bjAAAACXBIWXMAAC4jAAAuIwF4pT92AAAKT2lDQ1BQaG90b3Nob3AgSUNDIHByb2ZpbGUAAHjanVNnVFPpFj333vRCS4iAlEtvUhUIIFJCi4AUkSYqIQkQSoghodkVUcERRUUEG8igiAOOjoCMFVEsDIoK2AfkIaKOg6OIisr74Xuja9a89+bN/rXXPues852zzwfACAyWSDNRNYAMqUIeEeCDx8TG4eQuQIEKJHAAEAizZCFz/SMBAPh+PDwrIsAHvgABeNMLCADATZvAMByH/w/qQplcAYCEAcB0kThLCIAUAEB6jkKmAEBGAYCdmCZTAKAEAGDLY2LjAFAtAGAnf+bTAICd+Jl7AQBblCEVAaCRACATZYhEAGg7AKzPVopFAFgwABRmS8Q5ANgtADBJV2ZIALC3AMDOEAuyAAgMADBRiIUpAAR7AGDIIyN4AISZABRG8lc88SuuEOcqAAB4mbI8uSQ5RYFbCC1xB1dXLh4ozkkXKxQ2YQJhmkAuwnmZGTKBNA/g88wAAKCRFRHgg/P9eM4Ors7ONo62Dl8t6r8G/yJiYuP+5c+rcEAAAOF0ftH+LC+zGoA7BoBt/qIl7gRoXgugdfeLZrIPQLUAoOnaV/Nw+H48PEWhkLnZ2eXk5NhKxEJbYcpXff5nwl/AV/1s+X48/Pf14L7iJIEyXYFHBPjgwsz0TKUcz5IJhGLc5o9H/LcL//wd0yLESWK5WCoU41EScY5EmozzMqUiiUKSKcUl0v9k4t8s+wM+3zUAsGo+AXuRLahdYwP2SycQWHTA4vcAAPK7b8HUKAgDgGiD4c93/+8//UegJQCAZkmScQAAXkQkLlTKsz/HCAAARKCBKrBBG/TBGCzABhzBBdzBC/xgNoRCJMTCQhBCCmSAHHJgKayCQiiGzbAdKmAv1EAdNMBRaIaTcA4uwlW4Dj1wD/phCJ7BKLyBCQRByAgTYSHaiAFiilgjjggXmYX4IcFIBBKLJCDJiBRRIkuRNUgxUopUIFVIHfI9cgI5h1xGupE7yAAygvyGvEcxlIGyUT3UDLVDuag3GoRGogvQZHQxmo8WoJvQcrQaPYw2oefQq2gP2o8+Q8cwwOgYBzPEbDAuxsNCsTgsCZNjy7EirAyrxhqwVqwDu4n1Y8+xdwQSgUXACTYEd0IgYR5BSFhMWE7YSKggHCQ0EdoJNwkDhFHCJyKTqEu0JroR+cQYYjIxh1hILCPWEo8TLxB7iEPENyQSiUMyJ7mQAkmxpFTSEtJG0m5SI+ksqZs0SBojk8naZGuyBzmULCAryIXkneTD5DPkG+Qh8lsKnWJAcaT4U+IoUspqShnlEOU05QZlmDJBVaOaUt2ooVQRNY9aQq2htlKvUYeoEzR1mjnNgxZJS6WtopXTGmgXaPdpr+h0uhHdlR5Ol9BX0svpR+iX6AP0dwwNhhWDx4hnKBmbGAcYZxl3GK+YTKYZ04sZx1QwNzHrmOeZD5lvVVgqtip8FZHKCpVKlSaVGyovVKmqpqreqgtV81XLVI+pXlN9rkZVM1PjqQnUlqtVqp1Q61MbU2epO6iHqmeob1Q/pH5Z/YkGWcNMw09DpFGgsV/jvMYgC2MZs3gsIWsNq4Z1gTXEJrHN2Xx2KruY/R27iz2qqaE5QzNKM1ezUvOUZj8H45hx+Jx0TgnnKKeX836K3hTvKeIpG6Y0TLkxZVxrqpaXllirSKtRq0frvTau7aedpr1Fu1n7gQ5Bx0onXCdHZ4/OBZ3nU9lT3acKpxZNPTr1ri6qa6UbobtEd79up+6Ynr5egJ5Mb6feeb3n+hx9L/1U/W36p/VHDFgGswwkBtsMzhg8xTVxbzwdL8fb8VFDXcNAQ6VhlWGX4YSRudE8o9VGjUYPjGnGXOMk423GbcajJgYmISZLTepN7ppSTbmmKaY7TDtMx83MzaLN1pk1mz0x1zLnm+eb15vft2BaeFostqi2uGVJsuRaplnutrxuhVo5WaVYVVpds0atna0l1rutu6cRp7lOk06rntZnw7Dxtsm2qbcZsOXYBtuutm22fWFnYhdnt8Wuw+6TvZN9un2N/T0HDYfZDqsdWh1+c7RyFDpWOt6azpzuP33F9JbpL2dYzxDP2DPjthPLKcRpnVOb00dnF2e5c4PziIuJS4LLLpc+Lpsbxt3IveRKdPVxXeF60vWdm7Obwu2o26/uNu5p7ofcn8w0nymeWTNz0MPIQ+BR5dE/C5+VMGvfrH5PQ0+BZ7XnIy9jL5FXrdewt6V3qvdh7xc+9j5yn+M+4zw33jLeWV/MN8C3yLfLT8Nvnl+F30N/I/9k/3r/0QCngCUBZwOJgUGBWwL7+Hp8Ib+OPzrbZfay2e1BjKC5QRVBj4KtguXBrSFoyOyQrSH355jOkc5pDoVQfujW0Adh5mGLw34MJ4WHhVeGP45wiFga0TGXNXfR3ENz30T6RJZE3ptnMU85ry1KNSo+qi5qPNo3ujS6P8YuZlnM1VidWElsSxw5LiquNm5svt/87fOH4p3iC+N7F5gvyF1weaHOwvSFpxapLhIsOpZATIhOOJTwQRAqqBaMJfITdyWOCnnCHcJnIi/RNtGI2ENcKh5O8kgqTXqS7JG8NXkkxTOlLOW5hCepkLxMDUzdmzqeFpp2IG0yPTq9MYOSkZBxQqohTZO2Z+pn5mZ2y6xlhbL+xW6Lty8elQfJa7OQrAVZLQq2QqboVFoo1yoHsmdlV2a/zYnKOZarnivN7cyzytuQN5zvn//tEsIS4ZK2pYZLVy0dWOa9rGo5sjxxedsK4xUFK4ZWBqw8uIq2Km3VT6vtV5eufr0mek1rgV7ByoLBtQFr6wtVCuWFfevc1+1dT1gvWd+1YfqGnRs+FYmKrhTbF5cVf9go3HjlG4dvyr+Z3JS0qavEuWTPZtJm6ebeLZ5bDpaql+aXDm4N2dq0Dd9WtO319kXbL5fNKNu7g7ZDuaO/PLi8ZafJzs07P1SkVPRU+lQ27tLdtWHX+G7R7ht7vPY07NXbW7z3/T7JvttVAVVN1WbVZftJ+7P3P66Jqun4lvttXa1ObXHtxwPSA/0HIw6217nU1R3SPVRSj9Yr60cOxx++/p3vdy0NNg1VjZzG4iNwRHnk6fcJ3/ceDTradox7rOEH0x92HWcdL2pCmvKaRptTmvtbYlu6T8w+0dbq3nr8R9sfD5w0PFl5SvNUyWna6YLTk2fyz4ydlZ19fi753GDborZ752PO32oPb++6EHTh0kX/i+c7vDvOXPK4dPKy2+UTV7hXmq86X23qdOo8/pPTT8e7nLuarrlca7nuer21e2b36RueN87d9L158Rb/1tWeOT3dvfN6b/fF9/XfFt1+cif9zsu72Xcn7q28T7xf9EDtQdlD3YfVP1v+3Njv3H9qwHeg89HcR/cGhYPP/pH1jw9DBY+Zj8uGDYbrnjg+OTniP3L96fynQ89kzyaeF/6i/suuFxYvfvjV69fO0ZjRoZfyl5O/bXyl/erA6xmv28bCxh6+yXgzMV70VvvtwXfcdx3vo98PT+R8IH8o/2j5sfVT0Kf7kxmTk/8EA5jz/GMzLdsAAAAgY0hSTQAAeiUAAICDAAD5/wAAgOkAAHUwAADqYAAAOpgAABdvkl/FRgAAxTdJREFUeNrs3UFuG0faBuA3RvbDnGCYE4Q5QRjMD0x2owCzN30Cy8DsJe8HsHwC0fsBouwyQAZhThDmBOGcID0nmH/R1Ei2JZKSSFZ19/MAgh3TcZNfdTer+qv66pP//ve/AQAAjuOTH38XBGAIJkmmSb5IMl7/92jL/7NIskry7/XvF/t8Q//9v8+0CgAAABt9InkOAABH7IBLngP9NUvyVZKTbE+U7+oqyffrX5un/EOS5wAAAGwjeQ4AAMfsgEueA/0yTnKW/SbM7zNP8i6PXJEueQ4AAMA2z4QAAAAAeKBJkp+S/JZ2xfnoCMecrY/5U9qS8AAAALBXkucAAADArsZJLpP8knIJ7GlukugTTQIAAMC+SJ4DAAAAuzhNmzSfVfJ+puv3c57jrHwHAACg5yTPAQAAgE1GaVd5v0mdSeqzWIUOAADAHkieAwAAAPeZpGyJ9oe8z59Sz6p4AAAAOkjyHAAAALjLLG1CetyR9ztKux/7uaYDAADgMSTPAQAAgA/N0iaiRx1872fr9w4AAAAPInkOAAAA3DZL95PPffgMAAAAHJnkOQAAAHBtmv4knWdJTjUpAAAAu5I8BwAAAJJkkuS7nn2mN2mT6AAAALCV5DkAAAAwSnf3ON/mTdqJAQAAALCR5DkAAADQ5wTzKPY/BwAAYAeS5wAAADBsJ+l/afPJJz/+fq6pAQAA2OST//73v6IAAADH6oD/+LsgADUZJfklyXggn/fz//7fZyvNDgAAwF2sPAcAAIDhOs1wEueJ8u0AAABsIHkOAAAAwzRK8nJgn3n6yY+/TzU9AAAAd5E8BwAAgGE6TZtAH5ozTQ8AAMBdJM8BAABgeEYZ3qrza9NPfvx94hQAAADgQ5LnAAAAMDwnGeaq82svnQIAAAB8SPIcAAAAhmfoyeOTT378feQ0AAAA4DbJcwAAABiWcZLJwGMwSrv6HgAAAP5H8hwAAACG5UQIkiR/EQIAAABukzwHAACAYflKCJIkUyEAAADgNslzAAAAGJapECRJRp/8+PtEGAAAALgmeQ4AAADDMUm73zetqRAAAABwTfIcAAAAhmMsBO/5oxAAAABwTfIcAAAAhmMiBOIBAADA3STPAQAAYDistH7fSAgAAAC4JnkOAAAAwzEWgvdMhAAAAIBrkucAAAAAAAAADJ7kOQAAAAAAAACDJ3kOAAAAAAAAwOBJngMAAAAAAAAweJLnAAAAAAAAAAye5DkAAAAAAAAAgyd5DgAAAMOxFIL3LIQAAACAa5LnAAAAMBz/EQIAAAC4m+Q5AAAADMdCCN7zsxAAAABwTfIcAAAAhmMpBOIBAADA3STPAQAAYDiaJCth+J+lEAAAAHBN8hwAAACGZSEESZLVf//vs5UwAAAAcE3yHAAAAIbleyFIklwJAQAAALdJngMAAMCwXKUt3z5074QAAACA2yTPAQAAYHiuBv75V//9v8+WTgMAAABukzwHAACA4Xnn8wMAAMD7JM8BAABgeBZJlgP97E2SC6cAAAAAH5I8BwAAgGF6O9DPffXf//us0fwAAAB8SPIcAAAAhmmeZDWwz9wkea3pAQAAuIvkOQAAAAzXi4F93rf//b/PVpodAACAu0ieAwAAwHAtklwN5LOuYq9zAAAANpA8BwAAgGF7kbacee8/p73OAQAA2ETyHAAAAIatSf/Lt1/89/8+W2hqAAAANpE8BwAAAK7S35LmyySvNDEAAADbSJ4DAAAASZtgXvbsMzVJvta0AAAA7ELyHAAAALj2dfqTQG/Wn6fRrAAAAOxC8hwAAAC41qQfCfS+fA4AAACOSPIcAAAAuK1JtxPPXX//AAAAFCJ5DgAAAHyoSZuAXnTsfa8icQ4AAMAjSZ4DAAAAd2nSJqIvOvJ+F0m+jMQ5AAAAjyR5DgAAAGzyKsm3aZPpNb/Hryt/jwAAAFRO8hwAAADY5irJ50nmlb2vRdrV5heaCAAAgKeSPAcAAAB20SR5kTr2Ql/dei9LTQMAAMA+SJ4DAAAAD7FIm7QukURfpU2a17gKHgAAgI6TPAcAAAAeY5E2gf552rLpqwMdp0mbKL8+1lzoAQAAOIRP/vvf/4oCAAAcqwP+4++CAPTZJMlJkq+STJ/w7yzTJud/Trvf+pP99/8+0zoAAABs9KkQAAAAAHuyzPt7kE+SjNe/nm34/+ZJvk+7ynwhjAAAAJRg5TkAAByzA27lOTBcmx5AHHz/dCvPAQAA2Mae5wAAAAAAAAAM3qPLtn/zzZ/epC27dkzLJK80G3tQ4vx9l7YUIcksyXNh6L2+3LNL3C+oj3s4+/O3f4gBwAB9882fBAHgaWPuVZJ/7+GYq/VPl02SjPbw73zVkc+7S9sv027/suufQ/V++OFfgkCJcctk/f08JMsffvjX/3IZT9nzfJJk6jSiwx3MY5+/Pwv7/4zdP3C/oGPcwwEAAIy56ZfFPX++TPKfD/6sWf/5Lv8/QJeNhv7d/KlzAIADMfgFAAAAoFbTB/75Notbv1/lZrX8KjfVDm7/HoAKSZ4DAAAAAAA8zfSBf3+x/nWVNtHe5KbM/FI4AcqQPAcAAAAAADiu6ZbXm9wk03/Nzar16z8D4AAkzwEAAAAAAOoyyk2C/eSD15q0SfRl2lXr179vhA3gaSTPAQAAAAAAumOUNrE+/eDPm7RJ9J9zs0p9KVwAu5M8BwAAAAAA6L5R7k6qL9Im1Jfrn5VQAdxN8hwAAAAAAKC/pnk/ob7KzQr1RaxOB/gfyXMAAAAAAIDhGK9/Ttb/3eRmdfoikunAgEmeAwAAAAAADNcobSL9ZP3fq9wk06/SJtcBBuGZEAAAAAAAALA2TjJLcpnk9yQ/JTld/zlAr0meAwAAAAAAcJ9pkjdJflv/vEkyERagjyTPAQAAAAAA2MU47Sr0XyKRDvSQ5DkAAAAAAAAPNc77ifTTKO0OdJzkOQAAAAAAAE8xzk1p95/S7pk+EhagayTPAQAAAAAA2Jdpksu0ifTLKOsOdIjkOQAAAAAAAPs2SrsC/ZfcrEYHqJrkOQAAAAAAAIc0TbsK/fck51HSHaiU5DkAh+4UAwAAAAAkbdL8LG0S/TLtXukA1ZA8BwAAAAAA4NhmudkXfSocQA0kzwEAAAAAAChllnZP9J8iiQ4UJnkOAAAAAABAadNIogOFSZ4DAAAAAABQi2naBLo90YGjkzwHAAAAAACgNrPc7Ik+Eg7gGD4VAmAgVusfjqsRAudrj9oEAAAAgOObJTlJ8jbJuXAAhyR5DgzFOx0rnK8A0BnjJJP1T5L8Yf1nv67/u0myTLIQKgAAGIRRkrMkz5O8SnIlJMAhSJ4DAABQg5Mkf1n/Otrwdz60TDvx7CoqhQAAQN+Nk3yXdiLtC2MAYN/seQ4AAEApo7TVVn5L+wBslofvZThJ8ubWvzEVVgAA6L1pkl+ieiOwZ5LnAAAAlDBLm/A+S7t6ZB9OkvyUNok+FmIAAOi10Xo88UtutnwCeBLJcwAAAI5plDbBfZmHrzLf1UnaB2gz4QYAgN6brPv/bw44xgAGQvIcAACAY5mkXW0+PcKxRmkT9JfCDgAAg3Aaq9CBJ5I8BwAA4BgmaVecj4583Fmh4wIAAMc3jr3QgSeQPAcAAODQJimbwJ6ujw8AAAzD9V7oY6EAHkLyHAAAgEOapI6V35Mo4Q4AAEMbi/ySthoVwE4+FQIAAKAC0/Wvk9yfZG2SLNe/X67/m/pdpp6S6bMkvya50Cwc2z//9o8+3KenSb764L59bbX+Wa6vs8X6v+HJ/vz3vwoCAI81Wo9JvkryyjgS2EbyHAAAOKZR2oTLJO3Di0ken1ht0iZpfl7/uogHIbU5X7dxTc6SXEVSD3ZxkuT5+tdtxuuf6a0/WyZ5l2Tu/gwAFDZbj02+NRYANpE8BwAADm2cmwTMZI//7ig3KyGvLZN8nzY5uhT64u1+VuH7GqVdefK1JoJ7zdbX7/iJ/85k/XOW5G3aqg+N8AIAhUzSlnF/sR4zAnzEnucAAMAhjNImX35J8luSNznOCuRJ2iTNL+uf09RTMnxoat5ffJqPS04D7T30p/X1O97zd8LZ+vvgRJgBgMJj1e/WY0WAj0ieAwAA+zROmyj/LW3yZVLwvUzW7+X37D8RxPbzYFr5ezzTTPCe07STjg557Y7SPqz+LiY2AQBlvVmPE/VJgPdIngMAAPswTvvg4bfUudp7lpuE/lhzHVwXEtPT1LcfO5RymfYB8rGcpF3hPhJ6AKDwOFGfBHiP5DkAAPBU52lXK8468F5nuSkjP9J0B3PSkff5XFNBLgvdvyfr+/FEEwAABU3W41l9EiCJ5DkAAPB407SJj7N0LxF9GnvvHvK86Mr5oP0ZulKJ82ujKOEOAJQ3TrsCfSIUgOQ5AADwUKO0K7d/SrdLoI9i791DmHbovY6jjD/DdZ46KoaM198nAAClx4ddqagGHJDkOQAA8BCTtEmO0x59ppMo07dPX3XwnIahmaatGlLTdfhGswAAFShdmQcoTPIcAADY1Un6W8puHKsM9hnLLploMgbossL3dJpuVa4AAPrdVzI2hIGSPAcAAHYxyzDKm1+mzqRSl4w79n7/qMkYmPOKr9MzzQMAVDQ2VBkHBkjyHAAA2GZoCeVZJNCHZCwEDMgoycuK3980VnkBAPU4NTaE4ZE8BwAANhlqubpZPCQB+nlvG1X+Hp9rJgDA2BAoRfIcAAC4z9D3eZvFQxKgX1524D1Ok0w0FQBgbAiUIHkOAADc5TRK5yYekgD9MUl3timw+hwAqHFseC4M0H+S5wAAwIdmSd4Iw3vxOBWG3vpZCBiIqfcKAPAkZzHJHHpP8hwAALhtEonzu7xJciIMO1l07P02moyB+EvHvotGmgwAqNDQtzeD3pM8BwAAro3WDwJGQnGny3Sn5HFJq46936UmYyAm3i8AwN7GhjNhgH76VAgAAIC1N5Gs2GSU9iHJ10Kx0c/p1oOkhSZjQPewLpm4PoGe+kQIDvIdt+s4ZrLhO/GLO16bxORi7h8/L2MyLvSO5DkAAJC0JclnwrDVNMn5+oe7LTr0Xq80FwMx6eB7Hmk2AHbUPKAP+tS+6jjvV6Oa3vr97eT7VLP03ijJT2knVy+FA/pD8hwAABjFPucP8TLJPN0rT34sq7QPjyYdeK/fay4GdJ8HAPbT1709Dlhs+fvj9c/oVv/4qzxstTx197Guq5M1wgH9IHkOAACcxl7eDzGK8u3bvF3HqGZN2kkQAABwKKvcJNuv7hlbTHJTHv6rfLy6nbpN0q5A/1IooB8kzwEAYNjGSc6E4cGm65+FUNxpnraawaji9/hWMwEAUFizHlMs7hlzTNKWg5/ESvWaTdJOHn4hFNB9kucAADBsEueP9yZWF2zyOvVuB9AkudBEDEgjBADQOYt8nFSfrn++WP86EqZqzJL8apwB3fdMCAAAYLDG6wE+jzMRv40uUu++8K8imciwLDv4nleaDQA+skhynuTbJJ+lncz7Kipi1eJN2kkNQIdZeQ4AAMNl1fnTPY99szd5kXb/v5ostBkDtUq39k9dabLqjdc/0/V///GOc2yV5N9pJywt1z+N0AHszfW99SLtKvRpkr8kOYlV6aV8l3ZSg74MdJTkOQAADNM4Vk3vwzT2Pt9kkbZ8ey0TNVZpV+nAEC3TreS5+2qdfYeTJF/laaWCV+v2/TnJVSTTAfalWd9Xr9JOYj2JRHoJo9wk0IEOUrYdAACGaSYEe/NcCDY6Tx0rvZu0ifNGkzBQ33fovS40VzVGSU6T/JLkt7TlaE/ytCTMeN0PuUzye9oEg34JwP5dpU2if7buB18JydFM1t+ZQAdJngMAwDBJ+O7PLFZybPMiZRPoTZKv0819n2FfFh16r99rruLGuUluv0mbBDiUk1vHOvedCnAQV2kT6J+nrQy1EpKDO439z6GTJM8BAGB4JulW6d4uOBGCrUol0JtInENyUyq7C640VzGjtIns33L81eCjtNt8/BZJdIBD9gfO0ybRX0QS/dC+830G3SN5DgAAw2PV+f79RQh28iLtSpdjWabda3Ap9JAkedeB93gVD/JLOU2ZpPmHRmmT6L/Eij2AQ5pHEv0Y32mXwgDdInkOAADDcyIEB4npSBh2cp52JfjqwMd5nTZxvhJy+J95B66Jt5rp6MZJfkpbnn1U4fu6/Off/uE7FuCw/QNJ9MOOFWfCAN0heQ4AAMMyjpLthzIVgp0tcrPfYnOgY6yEGe70quL3dpVu7c3eByepf4X3LMlP//zbPyaaC+Cg5kfoow/VG+Nw6A7JcwAAGJapEBzMV0LwYOe5WeWy3PO//VJ44U5XqTNB3aTuxH4fnaY7e7FO0ibQTzQbwNH66HOh2JtR2gQ60AGS5wAAMCwSvIczEYJHadI+mPsy7UO6V2mTe8st/88imxOAE20C9/o29a0oex0VI47pMt17iD9K8t0///aPmeYDOEof/UWOs93SUJzEFmrQCZLnAAAwLBMhOJipEDzZKslF2sTel0k+Wf98nvbB3Wfr//5s/d8vtvx7Vp/D3Zodrp9jmq+vfY7jMt3ee/VSAh3gaBa5KeXOfr6DR8IAdZM8BwCAYZkIgfh20Crtg7vmnj+/z0k8nIL7XKWOBPoyyrUfU9cT5//7HBLoAEd1HqvQ92GU5EwYoG6S5wAAMBwTITi4sRAc3bsNr43SjyQRHMo8ZRPoy7QP4htNcRSnPbsnXv7zb//QtwE4nkXa6lBzoXjy97HvL6iY5DkAAAzHSAgObiIERzfP5sSb0u2w/RoqkUC/isT5MU3TvT3Od/HTP//2j7HmBTiaZt1veOE7/EneCAHUS/IcAACGYyoEB/cHISji7YbXxs592Gqe4yayXyf5Nh66H8soyXc+GwAH6DushOLRY/OZMECdJM8BAAD2ZyIERcy3vG71OWy3SPJ5DpvQXqYt93ou3Ef1XfpdfWbyz7/9wzkFcHzX3+sLoXiUN1EdDqokeQ4AAEDXrdKWgL7PSexHD7sY5zAPcVdpy7t+mfZBO8dzkmFU3zhTvh2giCbtCvS5UDzYKO3+50BlJM8BAGA4vhACeuztltdnQgRb7bNKQ5Obkq6fx0P1EkZJLgf0eS81OUAx1/ug8/C+11gYoC6fCgEAAAzGSAjosUXa1a3je15/GaWiYdt3xGzD68u0e5VP0k7Guus7ZZXk1/XfXQhpcacD++6f/vNv/5j++e9/de4BlDFf/2oy08P6X2cx8QCqInkOAABAX7xNu3fgXUZpE4NzYYI7zXa4vq6yeYsE6jHKfisJdMVZTNwAKGmetvrMZUzefkgf7HXaSYhABZRtBwAAoC/mW15/LkRwr02J1iYmnnTNaYaZtJj+82//mGp+gKKu0m7b0gjFzs6EAOoheQ4AAMPxsxDQc002J/imsacg3OVky7XxVog6Z8iThV5qfoDilpFAf4iZcQrUQ/IcAACAPtmW5LOqAz62Ldk4F6JOOcmwH8Cf/PNv/xg7DQCKW0YC/SGMU6ASkucAAAD7sxKC4pbrn/ucxP6LcNs4bVWG+1y5t3WOLSraez0AdfTNvxWGncxi9TlUQfIcAACGYykEB/dvIajCptXno0iqwG0vn3A9USf3OBMIAGqySPJCGHZi9TlUQPIcAACGoxGCg1sJQRXmW853D6WgNUq7ymnTPW0hTJ1yIgRJksk///aPkTAAVNU/l0Dfbharz6E4yXMAABiOpRAc3EoIqjHf8No4m8tUw1CcZPM2Bq+FqHO+EoL/cZ8HqK9/PheGrV4KAZQleQ4AAMPRxOrzQ1sIQTW2lZpW0hc2V2Fo0u53TrdMhOB/TCQAqM8L/YutZtk8uRE4MMlzAAAYlqUQiO1ArLL5wdwsSiIybNMt18BVTLjqarvSmggBQJVeGDttNMrmbXWAA5M8BwCAYflZCA5mKQTVebfl9ZkQMWDbqi8o2d49YyF4z0QIAKrUpE2gN0JxL6XboSDJcwAAGJaFEByMiQn1ucrmfeiVbmeoxtk8eWSx5dqh3nblxkgIAKq1TJtA53F9NeCAJM8BAGBYFjHD/1CuhKBKm1afj5OcCBEDNNvy+lsh6qSxELzvn3/7x1QUAKoeP10Iw71M9IVCJM8BAGB4FkKwd8uYlFCriy2vK4nIEG16GLuKyUBdNRYCADrmdWx/dZ/pN9/8yXc7FCB5DgAAw/O9EOzdOyGoVpNkvuH1aSScGJbZlnPe/QwAOGZfXfn2+5noCwVIngMAwPBcxSrpQ8SUem1LBnooxZBsKwF6IUQAwBEt065A52MzIYDjkzwHAIDhaSLZu09XacscU69FNpeDnCUZCRMDMElbbeE+85hcBQAc33lsL3aX0Tff/GkmDHBckucAADBMyvKK5dC83fDaKMmJEDEAL59wnQAAHNKLmMR3l78IARyX5DkAAAzTIptX4rKbVazi74qrbH4Yp3Q7fTfK5kkiS98LAEDhsZWJfB87+eabP42FAY5H8hwAAIbLg4mnszdfdzTZPNFhks3lrKHrZtm8PYHvhO5bCMFHVkIA0CnnMZnvLidCAMcjeQ4AAMM1j4fKT7Fax5Du2DbZ4bkQ0WObqis07mf00Z///lf9HIDueSEExilQkuQ5AAAM2ysheDSrzrtnlc0rM2fZvDIXuuokyXjD61ad98NCCN6zFAKAzt6/L4ThPZNvvvnTRBjgOCTPAQBg2K7iYftjLGKVZle92/L6TIjooW2rldzP+mMlBGIB0AOv01bGYff+HLAnkucAAIDV52I2JPNsTqi8FCJ6ZpzN+2ReRZKxT5ZC8D8/CwFAZzXGXB85EQI4DslzAABgGWXxHuIikhNdt2n1+TgeTNEv2yaEKNneLxLGNxZCANBpc+Ou98cpSrfDcUieAwAASVsWbykMW61ir/M+mG95XUlE+mS25Z62EKJeuRKCJEnz57//Vb8GoPusPn/fiRDA4UmeAwAASVsW74UwbPVt7L3XB6tsTqCfpF2BDl03SzLa8LrJQP28vy2FwSQCgJ5YxES/2/4iBHB4kucAAMC1Zczs3+RVJCT65N2W1+19Th9sOo+bSDAO9f42BN8LAUBvmOx3Y/LNN38aCwMcluQ5AABw20W2l7QeonnsC983i7QrNO8zEyI6bppksuH1q6ik0VdXA//8qz///a9XTgOAXvXbjVFvnAgBHJbkOQAA8KEXscL6Qz8LQS+93fDaKBLodNvzLa9bxdVfqww7gW7lPUD/6Lfc+EoI4LAkzwEAgLt8HQn02y4jkdpH82xeeat0O1012nLPWmRz5QW67+1AP3cTlWIA+mgVe59fOxECOCzJcwAA4C5NJNA/JIHez/P8asPrk2wuew21Ot3y+lsh6r1FhplkePvnv/+10fwAvWT1+do33/zpRBTgcCTPAQCA+zSRQP+QBHr/bEsiWn1OF20q2b6KPbGH4tUA+y0Xmh2gtxax+vya0u1wQJ8KAQBU57lOcDWWGd5DR/hQkzaB/lOswL12uf51LhS9udcvkkzvef1k/V3QCBUdMUsy3vC6VefDur/NM5xJX6+tOgfovXcb+u1DIgZwQJLnwFCcrX84jkXaRAuPM87mB54Ax9as7+uX6f/+avPsVqpbAr1fNj2EG6VNPF0IEx3xfIf7HMPxav3dPer7GPTPf/+r+zRA/83TPuMdDzwOk2+++dP4hx/+tXJKwP4p2w4AAOyiSfJt+r3P3OskL7J7qXol3Ptjns0ry5VupyvG2bwSadu5Tj+/v18M4DOqFgUwHO+EIInV53AwkucAAMBDnKdNLjc9+kyr9Wc6X/93Ewn0IZpveG0cD6fohm3VtpRsH6arHb/TuurVn//+16VmBtBvHxhbPsKBSJ4DAAAPtUjyedqH8V03T/Ll+jPd1kQCfWi2JRWtPqd2o2zeWmORfidQ2fw9NenpZ5v/+e9/nWtigEFZ9WQs+lRTIYDDkDwHAAAeo0lbxv3rtA8vuma1fu8vcv8q+iYS6EOyyuaHcCextyJ1O8nmfa2VOB2mPn8/Lf7897++0MQAg6Rfk4y/+eZPI2GA/ZM8BwAAnmKRdhX663SjlHuTdl/Uz/PxavP7/r4E+nBsewinfanZ2ZZ72VyIBqfP30vLtJP4ABimq/RrK7HHmgoB7J/kOQAAsA/nqTuJ3qzf2+dJLh7x/0qgD8NVNldSULqdWk2zuTKCvc6HZZTkp/Q7cf71n//+10ZTAwy+7z509j2HA5A8BwAA9qXJTRL9RerYW3e5fi+frd9b84TPJoE+DJuSjCNtS6W2TeyYC9FgjNImzqc7frd1zVUkzgFofS8EmQgB7J/kOQAAsG9N2kTNl+ufixx3X/TV+pjXx5/v8XNJoPfftvPluRBRmXHa/c43ndMrYRqEUdrE+WTHe91n6dbEios///2v30qcA7B2FaXbp04D2D/JcwAA4JCWudlj/Mv17xfZ70OOZv1vvlof4/P175cH+DxNHpZAP3EKdE6TzcmkaTaXx4Zjm215/Z0QDcIoD0ucv1j//sX6O7P2+/K3f/77X19pZgA+cDX0AHzzzZ8mTgPYr0+FAAAAOJLl+udi/d+TtEnISZI/5iYhOc7HyckmNwnrVZJ/r/97leOXh2/SJtB3SVJcFnqPPM3bbE5InuUm8QSlbSrZvko7uYh+myT5LrtN7Jnfcf+6WJ8nl6mv/OsiyYs///2vK80MwB2+j4pfE+NN2C/JcwAAoJTl+ueqg++9yW4J9NH67+y6Wp26zs372vYk7UrNRqgobLa+z9zntRD13mT9PTPa4e++ys0Etrvue18mOU07QWhU+HOt1u/3ShMDsMFCCPKFEMB+KdsOAADwOE12S4qPsnspXerxdkubnggRFXi55R51JUS9NsnuifMXuT9xfttF2u1PXqfMBKFmfezPnb8A7Pi9sdAfAPZJ8hwAAODxmkig99VVNieOzoSIwiZb7inzqI7Q9/Z/SOJ8/sDvtvO0CexXaVeBH9py/T4/Wx8bAHb1/cA//9QpAPsleQ4AAPA0TSTQ+9qu8w2vj+NBFWW93PL6WyHqrVkOlzj/8D54kTaJ/uX696s9fo5lblaZf/mE9wnAsC2GHoBvvvnT2GkA+2PPcwAAgKdrYg/0Pnqbdv/f+zyPh3WUMUqbQL3PIsdZLczxzZJc7vi99O0e71HL9c+r3Ewe+mL9nTde/2z7/5skP69/v4jKCADs7zuqyW6TyvpqrO8H+yN5DgAAsB9NJND7ZpU2wTO95/VZ2lWTK6HiyE63vG7VeT/Nsnvi/JDfMatsXiV+fc9caDIAjmSZYVeFmvrehf1Rth0AAGB/mijh3jfbkpAzIaKA5xteWyW5EqLemaWOxPkuFvEAH4Dj+nngn/+PTgHYH8lzAACA/Woigd4nV9m8svy5EHFkJ9lcItuq8/55k+4kzgGghMXAP//YKQD7I3kOAACwf00k0Pvk3YbXxmmTmXAsL7e8PheiXrnM9jL9WX/ffBmJcwCGaejff1OnAOyP5DkAAMBhNJFA74v5ltdfChFHMs7mh6Pz9b2HfrjMbltDLNffNyshA2DAY6/lkAPwzTd/GjkNYD8kzwEAAA6niQR6H6yyOYE+jVKJHMe2iRpKtvfHQxPnjZABoM8+aMaSsCeS5wAAAIfVRAK9D95ted3qcw5tlM3J1EWULO1LO/8UiXMAeKhfB/75x04B2A/JcwAAgMNrIoHedYtsXs0yW7cfHMrJlnPsnRB13vV3wHSHvzuPxDkAfNhfH7KxUwD241MhAIDqrKLUVC2WQgDsUZM20bEtOT5a/51dku0c1+u0pZTva7eTbN8fHR7rbMv9xbnXbaPsPnlqnuSFkAHAe1YD//x/dArAfkieA0B93iU5FwaAXmoigd5lV0ne5P7Vvy8jgclhTLN5NZG9zrttFIlzAHiq1cA//9gpAPuhbDswFIskn/g52s/XTjkAuFcTJdy73HZXG16fZLdyy/BQz7e8Pheizpok+SUS5wCwD4sBf/ax5of9kDwHAAA4viYS6F31esvrz4WIPRsnmW14fR4rrbpqsr7Hj3f4u68icQ4Au4yzhtxnBPZA8hwAAKCMJhLoXbTK5hUts9xf1h0eY7bl9XdC1EmT9b19l/vFiyQXQgYAW/0qBMBTSZ4DAACU0yT5NttXSIwigV6TbcnKUyFij15ueG2VYZcn7apJHpY4nwsZAOw8vhqsb77509QpAE8neQ4AAFDWKu0K9GbL3xtFAr0W8y3tpXQ7+zLL5gTrayHqZJtKnAPAYSyFAHgqyXMAAIDylpFA75q3G14bJzkRIvZg00SMJsmVEHXKLMlltifOm/V3wlzIAOBBmoF//pFTAJ5O8hwAAKAOy0igd8l8y+tWn/NUkyTTLedgI0ydMUubON+mWX8XLIQMAB41php6/xF4IslzAACAeiwjgd4Vq2xe9XuSdgU6PNbLLa+/FaLOmOVhifOlkAEAQBmS5wAAAHVZRgK9K7YlL18KEY80yubS/4u0Ezio35tInAPAscdTQ/UHzQ9PJ3kOAABQn2Uk0Ltgkc0JzJkQ8UizbN6z0qrzbrhMcrrjPf/LSJwDwD40A/7sxoWwB5LnAAAAdVpGAr0L3m5pm5kQ8QibqhassnnLAOpwueP1f32vXwkZAACUJ3kOAABQr2Uk0Gs33/K60u081EmS8YbXrTqv30MT542QAcBex1AAjyZ5DgAAULdlJNBr1mRzAn2iTXig51tenwtRtUZJfonEOQCU9B8hAJ5C8hwAAKB+y0ig12zbSmCrz9nVOO3K8/vMI9laq4fcf+dp9zjXlgDAPk2FAJ5O8hwAAKAblpFAr7ltlhten63bBbbZNtFCyfY6PeS+O0/yQsgAAKBOkucAAADdsYwEeq22JTVnQsQO1+2m82QRe3jW2m4S5wBQj4UQAE8heQ4AANAty0ig12i+pU2Ubmebk2yuUPBOiKozSfJbJM4BAKA3JM8BAAC6ZxkJ9BrNN7w2jj0I2WzTBItmy/nF8U3W99fRDn/3RSTOAQCgEyTPAQAAumkZCfTabCvdbvU595luuUbtdV6XSR6WOJ8LGQAAdIPkOQAAQHctI4Fek1U277F4knYFOnzo+ZbX50JUjUkkzgEAoLckzwEAALptmd0T6N9lt4QPj7dthfBMiLjj2tx0XszTTsygvFmSXyJxDgBU6ptv/jQWBXgayXMAAIDuW2a3BPo4u6+Y5HGusjnRqXQ7Hzrd8vo7IarCLMnlDn+vSfJlJM4BgDLGQgBPI3kOAADQD8vslkCfRAL90DYlO0ex+pz3bSrZvsrmrQA4jll2T5x/vb4fAwBlrIQAeArJcwAAgP5YRgK9BhdbXn8uRKzNsnl10GshqqKNJM4BoDtWQgA8heQ5AABAvywjgV5ak80lm6fr+MPzLefRlRAVdRmJcwAAGBTJcwAAgP5ZRgK9tG37VNv7nHHaiRT3me9wDXM4l9lti4Vlks8jcQ4AAL0geQ4AANBPy0igl7TI5mTaiZgP3tmW198KUTEPSZzvcp8FADiWlRDA00ieAwAA9NcyEuglbUp+jtIm0Bmmbe2/iAefpUicAwCd9cMP/9KHhCeSPAcAAOi3ZSTQS7naEvczIRqs2ZZrzarz4xsl+SUS5wAAMGiS5wAAAP23jAR6CU3aBPp9xtm85zX9tWnP+9WW84b9G63vfZMd/u48yZeROAeAWk2EAHgKyXMAAIBhWEYCvYTXW15/LkSDM007ceI+Vp0f1ygPS5y/EDIAqP67HeDRJM8BAACGYxkJ9GNbpd2/+j6zbE6k0j8vt7w+F6KjGUXiHAAAuEXyHAAAYFiWkUA/tndbXp8J0WCMk5xseH0e5cCPZZLkt0icAwAAt0ieAwAADM8yEujHNE+7Av0+SrcPx2zL60q2H8dD7m0vInEOAHRnnAc8keQ5AADAMC0jgX5Mm1afj2P1+VBsKtm+iAeex/CQe9qLKKMPAHRHIwTwdJLnAAAAw7WMBPqxzLe8bvV5/822XEPvhOjgHnIvkzgHAIABkjwHAAAYtmUk0I9hleRqw+vTtCvQ6a+XW86PuRAd1CzJL5E4BwAANpA8BwAAYBkJ9GPYtp/1SyHqp09+/H2yvn7uY9X5Yc2SXO7w95okX0biHAC6bDrgz77S/PB0kucAAAAkEujHsMjmB1ozce2tbRMj5kJ0MLPsnjj/OvadBwC6699CAE8neQ4AAMC1ZSTQD23T6vNRkhMh6pdPfvx9lDaBe595rBI6lFkkzgEAgAeQPAcAAOC2ZZJXO/y9SSTQH2OezZMTlG7vn9MtryvZfhiXkTgHAAAe6FMhAAAA4APz9a/bEk+TtAn0XVar02qSXOX+lciTtPs0Lnr42V+nTVB+eK5M0++V1883vLbsaVuXdpnNq/1vx9/9CwD65YsBf3b9StgDyXMAAADuMl//KoG+f2+zObH3PP188HV+z58v+trQn/z4+0mS8ZZzgf2SOAeAYRsJAfAUyrYDAABwn3mSFzv8vUmUcH+IZTYnjGdi2RubyvA3aasQsD8S5wDAkOnbwB5IngMAALDJPBLoh7Btn+tTIeq2T378fZy2JP2ma6sRqb0YJfklEucAQDsuGaQffvjXUvPD00meAwAAsM08EuiHiGmz4fXnQtR5Z1teV7J9P0br+85kx+vuy0icA0Df+wYAjyZ5DgAAwC7mkUA/REzvM05yIkTd9MmPv4+2tN9VkpVIPdkoD0ucvxAyAOh932Co9C1hTyTPAQAA2NU8Euj7tG3lsdXn3XWy5fx/J0RPNorEOQDw8ThkqFaaH/ZD8hwAAICHmEcCfV9WaVcg3+ck7Qp0uufsCe3ObveX3yJxDgBwrREC2A/JcwAAAB5qHgn0fdm2AvmlEHXLJz/+Ps3mSQ/2On+ah9xXXkTiHACGZDrgz/6r5of9kDwHAADgMeaRQN+Hq2wusTgTos7ZVG6/yea97tnf/eSFWAMAAA8leQ4AAMBjzSOBvg/3rUReJXktbr1yFSU1H+sh9xGJcwAYpq8G/NkXmh/2Q/IcAACAp5hHAn0fMbztKsnXST5PchHJ1k757/999mLddq/vaDsl2x9nluSXSJwDAJsZawBP9qkQAAAA8ETz9a+XW/7eJG0C/etICN/WpE20XsdyJSTd9t//+2yV5DzJ+Sc//j5Lu3d9k2QpOg822+Hecn0dfS3GADBok6F+8B9++NdC88N+SJ4DAACwD/P1rxLoj3MuBP303//7bJ5k/smPv49E48FmkTgHAHYzHvBnN66CPVK2HQAAgH2ZRwl3uE8jBA8yi8Q5ALC78YA/u34Q7JHkOQAAAPs0z8MS6AAfuozEOQDwMNMBf/aV5of9kTwHAABg3+bZPYF+KVzALZdpV51vs0zyeSTOAYDWFwP+7P/W/LA/kucAAAAcwjy7JdBnkUAHWg9JnH8dpfABgBvjAX/2peaH/ZE8BwAA4FDmkUAHthtF4hwAeJrJgD+7fhHs0adCAAAAwAHN179uS47P1r++EDIYlFGSn7LbA+9lJM4BgI9Nh/zhf/jhXwunAOyPlecAAAAc2jxWoAMfG2X3xPk8yZeROAcAPjYd8GdfaX7YL8lzAAAAjmEeCXTgxigPS5yrSgEA3OeLAX/2leaH/ZI8BwAA4FjmkUAHknEkzgGA/ZkO+LP/rPlhv+x5DgAAwDHN17/aAx2GaZI2cT7a8X7hHgAAbOtbjAb8+ZdOAdgvyXMAAACObb7+VQIdhmWS3RPnL27dKwAA7jMd+OdfOQVgv5RtBwAAoIR5lHCHIZlE4hwA2L+vhvzhf/jhX0unAOyX5DkAAAClzCOBDkMwjcQ5AHC4fsZQLTQ/7J/kOQAAACXNI4EOfTaLxDkAcBgnsd85sGf2PAcAAKC0+fpXe6BDv8yy26SXJsnX8QAYAHiYrwb++X91CsD+WXkOAABADeaxAh36ZNdrtYnEOQDwOCcD//wLpwDsn+Q5AAAAtZhHAh364DQS5wDAYU2SjAf8+ZsffvjXymkA+6dsOwAAADWZr39Vwh266fLW9bnJKsm3kTgHAB7n+cA//8IpAIcheQ4AAEBt5utfJdChW3ZNnC/TrjhvhAwAeKSTgX9++53DgSjbDgAAQI3mUcIdukTiHAA4lpMMu2R7YuU5HIzkOQAAALWaRwIdajeKxDkAcFx/GXoAfvjhXwunARyGsu0AAADUbJ42Ofdmy9+brX9Vwh2OZ5TkpySTHf7uIu0e542wAQBP7H/MBh6DhdMADsfKcwAAAGp3kZt90DeZxQp0OJZRdk+cz2PFOQCwHzMhyPdCAIcjeQ4AAEAXvIgEOtRilIclzlWEAAD25aUQWHkOhyR5DgAAQFdIoEN540icAwBlnKz7IkPW/PDDv5ZOBTgcyXMAAAC6RAIdypkk+SW7Jc4vInEOAOyXVefJlRDAYUmeAwAA0DUPSaBPhQv2YpJ2xflox2v0lZABAHs01bdPkvwsBHBYkucAAAB00S4J9BexHyDswyQPS5zPhQwA2LMzIUjzww//0s+CA5M8BwAAoKs2Jekk8GA/ppE4BwDK90emwpC3QgCHJ3kOAABAl92VrJPAg/04yW6J88Z1BwAckFXnLX0tOIJPhQAAAICOe7H+9STJt1GqHfZlkWSZtmz7fZokX6//HgDAvk1j1XmSXP3ww79WwgCHZ+U5AAAAffAiyZeROId9arI5Mb7tdQCAp7oUgiRKtsPRSJ4DAADQFyshgL1rcneC/L4/BwDYl9MkY2HI6ocf/rUQBjgOyXMAAAAANmnyfqJ8FYlzAOCwRrHX+TWrzuGIJM8BAAAA2KZJ8m3arRG+jMQ5AHBYb9Im0EnmQgDH86kQAAAAALCDVdoV5wAAhzRNMhOGJMn8hx/+1QgDHI+V5wAAAAAAANRglORSGP5HyXY4MslzAAAAAAAAanCWZCwMSZLFDz/8aykMcFyS5wAAAAAAAJQ2TXIqDP/zTgjg+CTPAQAAAAAAKGmU5Dth+J/VDz/8ay4McHyS5wAAAAAAAJT0XdoEOi17nUMhkucAAAAAAACUcp62ZDutJslcGKAMyXMAAAAAAABKmCY5E4b3vE2bQAcKkDwHAAAAAADg2Caxz/ldLoQAypE8BwAAAAAA4JhGSS5jn/MPzWPVORT1acfe7yTJT5qtKsskr4QBAAAAAADY0Xdpcz6877UQQFldS56P0u5/AQB9dhZ7PdU4cDkXBgAAAIAnu4xcz13mSVbCAGUp2w4AAAAAAMAxnCeZCcOd3goBlCd5DgAAAAAAwKHNotrifRZpt8kFCpM8BwAAAAAA4JBmacu1czd7nUMlJM8BAAAAAAA4lFkkzjdZrH+ACkieAwAAAAAAcAizSJxvY69zqIjkOQAAAAAAAPs2i8T5NqskV8IA9ZA8BwAAAAAAYJ9mkTjfhb3OoTKS5wAAAAAAAOzLLBLnu1gkmQsD1EXyHAAAAAAAgH2YReJ8V1adQ4UkzwEAAAAAAHiqWSTOd7VY/wCVkTwHAAAAAADgKU4jcf4QVp1DpT4VAgAAAAAAAB7pMu2qc3Yzj1XnUC0rzwEAAAAAAHioUZLvInH+EE2sOoeqWXkOAAAAAADAQ4zTJs4nQvEgb5OshAHqZeU5AAAAAAAAu5om+SUS5w+1THIuDFA3yXMAAAAAAAB2cZ7kp7Ql23mYV0IA9VO2HQAAAAAAgE1Gacu0T4XiUS6SLIQB6mflOQAAAAAAAPeZJvktEuePtUryWhigGyTPAQAAAAAA+NAoyZso0/5U3yZphAG6Qdl2AAAAAAAAbpsmuUwyFooneZ1kKQzQHZLnAAAAAAAAJO0K88skJ0LxZIsk58IA3aJsOwAAAAAAAOdp9zY/EYona9KWawc6xspzAAAAAACA4ZolOYsS7ftkn3PoKMlzAAAAAACA4ZmmTZpPhWKvXqct2Q500FOS5++S/CyEg7fq6Psucf76siwbi5Ww80iv0u71hO87AAAAgD6YRtL8UK5in3PotEcnz3/44V/zJPnmmz+JIl00F4KiFjGZgO5YCgEAAAAAPTBL8jyS5oeyTPJCGKDblG0HAAAAAADop1HapPnL2NP8kJq0ifNGKKDbJM8BAAAAAAD6ZZI2YX4SWxIew7dRwRJ6QfIcAAAAAACg+8Zpk+VWmR/Xi9imFHpD8hwAAAAAAKCbRmkT5n9Z/8pxzdc/QE9IngMAAAAAAHTHODcJ86lwFDNPu+oc6BHJcwAAAAAAgLpNc5MsnwhHcctInEMvSZ4DAAAAAADUZbr++SpWl9dmmeRrYYB+kjwHAAAAAAAoZ5SbFeWS5XVbpk2cN0IB/SR5DgAAAAAAcByjtEnyaZIv1r8fC0snLCNxDr0neQ4AAAAAALBfo7SJ8UmSP976/UhoOmkZiXMYhCcnz//5t3+IIgAAAAAAMDSj3KwcH6ddST6Ksut9s4zEOQyGlecAAAAAAAAfm65/Ha9//rj+dZQ2aU7/LSNxDoMieQ4AAAAAAAzBJDdl08e52Wv8D7lJht/+c4ZtGYlzGBzJcwAAAAAAoBaTbN4XfJS7V33/4Y4/3/ZvwX2WkTiHQZI8BwAAAAAAbnuT5FQYGKirJC8icQ6D9EwIAAAAAACAW14nWQkDAzRP8m0kzmGwJM8BAAAAAIDbmrQrb2FIXjvvAWXbH26Uu/dT2dUyZizBU00f+f8thA4AADoxhl7FajcAKG2R5CLKtzMML9KuOgcGTvL87kH9ZP37L9a/jtc/h+h8JMnPaRPqy0iuM2zX19qH1+D1tbkvza1r7dfcPJhbaAIAANjZdb99uv7vrz74831Z3urD/2fdb7/uwwMAh/U6yUkO83wcatAk+Xrd1wQYdPJ8vB7Qf5X3E+bHNP3g19s362XapPoiEur003R93X2xvh6nRzz26NbxTj54bXXr+ltGQh0AAMa3xs1f5XATzO8z+WDsfHbrtesx86+5SaoDAPvTpF2R+5NQ0EPLtPub60MC/zOk5Pl4PdD+av3ruOL3Olq/x+mthwLLJN8nuYoZUHTP6IPrb1L5vWKc95Pqi/X1t3D9AQAwAJNb/fdJ5ePn67HztdW63/7zevzcaE4AeLJFlG+nf67STgzRXwTe0/fk+STJ89SfrNv1s0zSJtOb9Y39OpkOrr/DmubmgdwqN8l01x8A24yzOem0ECKgAqO0k0e/Wv866vh9d7b+uUw7+fXduu++0tQA8GjKt9Mnr9JOCAH4SB+T55O0Cbs+f5GPbj0MaJLM1w8Dlk5pCjtJ8pd0/4HbJuMPrr+rJG9df502W39vHNNy3Umn/d5+Iwyk3V+sr/eYswLHXdz6fZO2DB2+o7Z5pU8zKON1v/15uj/ZdVtfY5LkzSc//r5c992v/vt/nzVOgc560/Nzljv882//+PCP3v3573+diwwcVRPl2+nHefxtTGQHNuhL8ny0HvS/HOAAapS2XM5p2gddb9Mm0+FYJutr7yT9TZhvuv5m65/VreuvcVp0yjjvl/rk+NeR+MP+fXhdzfQRfUfteE+m/9+7Qx07X49dLpNcfvLj7/Mk7/77f58tnBadbEf9R34WAihiEeXb6fb5+208uwW2eNbx9z9OO+P4t/UAeDLw9rx+EPB7kvN4+MXhjNad5N+S/JL2gfzQz7cP70djpwkAFTkTAhi06a2xorFza5bkp09+/P23T378fSYcALCz11GtiG6et19H4hzYQVeT5+P1gP+3tAm8kaZ8zyjtA9LfIonOYa6939MmisdCcuf1N8tNEn0qJABU8h0+EwYYnFnaya4/uQdsHuN88uPvv3/y4+/nn/z4u/EzAGzWpC3fDl2wSps0PxcKYFddS56Pc5M0N/DfbhRJdPZjmvaBm2vvYWbruP0UEw0AKO+N/iAMZhx4HqvMHz1+lkQHgK2WaVfyQs2uknwZ+5sDD/TpJz/+3pVB7JtI2j31IcDLJK9iv0t2N12fO1OheHIcf1tfe6/TzngEgBJ9wtOYcQ99v8ZfxkSZfYyfn3/y4++vjZ8B4F7nSf4SE/WoT5O2OsJV1z/IN9/8qdPv/4cf/iV+dFIXVp6fxmrXfT4EuEy7Clanhk0muVkxPRWOvZmlLZt5Hg80AShDUg366XrcfOYa35vxevz8izERANxL+XZqc5Xk8/QgcQ6UU3PyfLoepCovebjYngsFHxjFA6JjxPhMjAEo+D10Kgyd0QgBO4ztfjNuPqhJ2knFl2IMAB9ZRvl26hk7fbv+MY4CnqTG5PloPfC3OvrwrhN44kyiysOxjdf3ue/iIRwAx/Vy/T1E/ZZCwJa+5E+u56OZrcdLJ0IBAO8512+lsHmsNgf2qLbk+SRtMvdU04g5RzNO+9DNapUyTtI+hJsKBQBHMko7iRLoptOoYlTy/vldTIAFgA8p304JqyRfr8+/RjiAfakpeX6+fgAw1ixFXK/29wBgWE7jwVsNRrmZwAAAxzDT74bOGcek11qcGEcBwHuWUb6d42nW59vnSRbCAexbDcnz0foBgNUv5U2jjPtQXF93HrzV5TQmEQFwPPrf0B0nkaytzXg9pjoXCgBIonw7xzFP8qU+GHBIpZPnEw8Aqn0AMBOK3nLdaR8AyLq/5/sG6vcmyoTX7Ez7AMD/KN/OoSxyU6J9JRzAIZVMns/SJmnHmqE6oySXsQ96H7nuunMN/uQaBOAIrD4HfUKe7sQ4CwCSKN/O/q3SJsy/jhLtwJGUSp6fp03OjjRB1d6s24l+cN25BgHgQ9NYfQ41mqRNxro+u9VmtkEDAOXb2Y8mN/uaz4UDOKYSyfPLWOHSJbNI3vWB66771+BIKAA4EH0EqMskbeJ8IhSdM4pt0AAgUb6dx2tykzQ/Fw6ghGMnzy8NIjtp5ouqs0bx8KYv1+BPkUAH4DCmaUsOA+Wd6Pf1Ygzm2QcAQ7eM8u08TJP3k+aNkAClHCt5PooEXtedab/Oub7upkLRC5N4kArA4bwRAihuluQ7/b3ekEAHYOjOY49qtmsiaQ5U5ljJ88tI4Bn8c0yjKPXYR5NIoANwGGP9PChqFttlGUMDQP+8iGQod2siaQ5U6hjJ88soA9m3wf9EGKo2isR5n00igQ7AYdj7HMqYReK872PomTAAMFCrKN/O3eeEpDlQrUMnzw0S++mntKuTqM8oEudDMIkHrADs3zjtwwvgeGb6dYOgGh8AQ3YR5dtJlmkrEUiaA9X79ID/9nn6kzhfrX+WSf6z/vUhN/dJ2qTmH9a/H6fbyedR2r34vvYlV1279D1xft3RbpL8esfrX+RmRXbXr7NtTtLuT/vKqQ/AHr1M+3BLHw8Ob5Z+J86vx9G5NZa+7Q8fjF0m6Xd1pesx9NKpD8AAvUjyS1RSHKJ5kncxgQLokEMlz2fpdtnHRZKf178u8/SHh/d9MUzXDwi+Wv++S52HSdrE3QuXURVG6Vfi/Pra+zXtA7endq6mt369fkg36UGH/XQdo7lLAIA99ilOYwU6HNos/Umcr2713Rd5P2n+GOMPfr5Y/9r1sc5o3eYmoQMwRKu0pbrfCMVg2vtd2meWK+EAuuYQyfNJB78EV0mu0ibMr4543MX65+JW7J6nXVE67kDcZmkfkFy4lIrr+l70yyTf37omDnGt5Y5/e5SPJ7F0zZt1/JYuAwD2xOpzOKwujplva26NnxfZ/wPR1YZ/c/JB333cwba/TPKtywCAAbpI8pfYyqTPrtImza+EAuiyfSfPR2lLkY068vnnaRN2tdzMl+ufV+tOxPPUX/r+TW5WCVPGZdoJF12zvNWZWhV6D836+LfvASfrjvxJR+5l1/fdLyPJAcD+vlvOYmsQOIRJ2opRo4697+t+c+nx8/WYeb7+7/G63/483ZlMfJK2wseFywGAAVK+vX+WuVll3ggH0Af7Tp5fpv6Z302St6l/Nc1i/fM6bQL9ZcWdCom7ct6k/gkWH15/8/U1uKr0PV6tf17cuvYmlcd1HCtY4DHfs8D9Tiv/voYuGqV7ifNFbh6G1mi1HttfrPvEZ+nGJFiT0Ltn5TuxyjYBunntKt/ej3a8WvcT9WeA3tln8nyWule/NulG0vyuL6Lz9fs+TZ17yY9j//MSZutzoksd43nHYjxf/0zX19604vd6sj4n5i4N2MnXQgBbnenfwd6M0q3E+Xw9fl52bOz8Im3VjNPUPQE9MQm9a96lfTZDIX/++18FAfrjIsq3d9EqEubAQDzb078zTt2zxV4n+Xw90OnqwLRZv//PU+dquVm6WTq8q6ZpVxp3oVP1Yn3ezjsc70XaRNvXlXcO36R7+z4CUK+Z7xXYm8t0o6z4fN13f5HuPhS9PXZ+XfH7HKfOyfEAcAwvYgJZFyzTTkz8ct23ehWJc2AA9pU8v0ydM7oX6X7S/EOrtAm8VxV+plrPg74Zp12lULNmfY52PWl+1z3ly0qvv6yvv0uXCAB77t8BT/Mm9U80vh47v0h/SiE3qXsCetKukD9xiQAwQKvUPcltyO0yT7s15Gdpn4NeRMIcGJh9JM9PUl+JlSZtcuvr9HcPpIv1l1dNX1yjeMB6jBh/l7onKVykfUB10eN2uL7+FhW+t2m6U84fgPpNo5wiPMWs8r7ZKu3D0T6PnVfrz/dt6pwAaxI6AEN1kXonuA3FKm2y/Lpy6PVkyquoDAAM2FOT56PUlyxdrgfGFwP5cvsyda3sPYkHrIf0JvWWe1yl3qoIh/68tTmLMrsA7Pd7BXi4Sere3uxiPZ68Gkh7XKW+CehJ+1zljcsFgIFSvv14VmknK7xOO6nwdrJ8nv5OpAR4sKcmz09T1wzpeerfk/hQnYwXFb0fq88P4zTtypUaXaTeldjH+uw1dfRHrkMA9mgakyPhsf2xUYXvrcmwJr3etspN+dGazNxnARioVepcmNJli9wkyV+s+32fpU2Uf512W5urSJYD3OvTJ/y/49S1CuX1+sY/VPP1rzUkzMZpE70XLrG9maTO1QhNbkr5DNly3QH9KfVUBpimrQRx5fIBYA8u1991wO7XzKTC97VIveXLj+lVkl9T14RT91kAhmqe5C9pn2Nxv+WtPtwyyX/W/7281c8DYA+esvK8psT5iww7cX67o1HLCvSz2LdtX0Zp9zmvscP2dSRnrzXreMwrek/2TwRgX8aptwIO1OY0dT78fb3urzaa6H/j55oqSI3juQYAw6V8+/sucrNi/JP1z5frP7uuIHSem33jF0IGsD+PTZ6PU8/Ds+s9Obh5AFBDAn2U9qERT3eZ+vavXmSYWyRs01R2TxrFPrUA7I/vFNhukjorRplwfrdl6ppQ8LLCsR8AHEOTurYlLW2Wtqx6IxQAx/fY5HktD84kzu82r6Sz8VxT7KWjdFLh+WXFSnfuTafxAA6gz1ZHPNY4Vp/DNpeVvZ8m7Sol4+b7LSsa34xS5+QLADiGq6hwebtPcCkMAGU8Jnk+Th0PzV55ALDRvIL41HKudNU49T04mccs0F3VlEDX2Qbor8WRj/cmtgSBTdfHpKL300S1qF0tU08C/STJVJMAMFDKt9+YRmVXgCIekzx/WcH7nqfdz4PtnY1l4fegvOfj1bZf9TwS54+5BueVdLanmgOgl37OcR8ujeIBDtzX36rp2mgicf5Qy9STQLf6HIChauL544d9gokwABzXQ5Pno5RfSbz0Bfog3xYe/I8jafcYp5XFbe66e7QXqaPklAdwAP00TvL2yMd8GavPj2UhBJ1RU6WfJhLnj7VMHQn0SVRxA2C4rqJ8e639TIBBeGjy/CRlH5RdPwRgd6skrwu/B3ufP8woda3Yv4rE+VPVUAViEg/gAProDzl+RaZRrD6H287TTmSpxbeROH+KZdpt4kpTxQ2AIVO+/cYkFsUAHNVDk+elk6ClV1F31UXKrlqZxeqkh6ipXPsyEuf70KSOFSwewAH0z2T9/TIv8J0yFn7IuLI+1ouoWLAP85SfhD6Oya8ADFcTzyRvO43qrgBH85Dk+bjwDfq1hwBPUnrm/Ikm2Mm0olg1qWfPv750+ktXzhjHAziAviqR5DEpC+oqo3mR40+k6bPzlC8Z6z4LwJBdRfn2D/udI2EAOLyHJM9PCr7P5XrgytNiOC94fKXbd+8E1ULi/DDX4UXh9+ABHEC/TNe/rnL8B0uzWH3OsJ2knhVAV6mj1HjflC4ZO47JrwD4Lm6E4X/9AvufAxzBQ5LnJZOfSrTsR8myc9N4uLrNaUUxehX7JB7yOlwV7mjPNANAL70tcEyTshiyWvaeXBkzH0yT8uXb3WcBGPp3sX7OjZOo8ApwcLsmz8dp91Ms4SKSePuyStnV51NNcK9R6nkocpXyq6P73ukvvSrIAziAfrnupy9y/G2OZvp4DNR56pn4+m2syDqki5R9JjGOya8ADNtVlG+/Tfl2gAPbNXl+Uuj9NSk/y7tvSsbzL8J/r9NKOj1NzOY8Vqd/UfD440h0APTJ7T6E1edwnGvuZUXju6UmOTiTXwGgLOXb3++LficMAIeza/L8q0Lv760vxb1bpdxMvZOYFXdfh6eWh29WrRyPB3AA7LMvce0qx98eZBqTshiW00rGNcu0K+A5vEXKVnEbu88CMHBN2ueW3IzBToUB4DBqXnneROnoQ3lX+Iud971JHQ/frlJ2NfTQLFN+G4WxZgDohckH/12i0pBJWQzFKPVMfFUx6rhKV8V7qQkAGLhF5As+HINNhAFg/3ZJnk8LvberWAF7yNiuCh37K+F/zzh17F/XxMO3Eko/gJPoAOinecqsPp8JPQNwmjomvirXfnyrlH1gfxKTXwHgdco9167NKO3+5wDsWc3Jc3udH1ap1edToX9PLasHXsVklRJWhe91J7GVAkAf/KGSvrRJWfTdqJL++ypWXZXyuvC4yepzAIauiQVAt01iGx+Avdslef5Fgfe1jBlkhzYv+IU+Ev5kHYdZBe9jmbLlw4fuIuUewI1SZlsOAPbfv7qrr3fs/vQ4Vp/Tb6eVjGVMfC2nSfK24PHdYwFA+fYPncWCNYC9qnXl+TtNc3CrlCvz58u8dZp6Hr5RTpOyD+CsXgHorxLfL2cxUZJ+GlXSb1qk3YaLci5i8isAlKZ8+/sujcMA9mdb8nxU6KbrYcBxlJqkYN/zVg0P367SPoCjrIuCx57E3okAfTXP8RM847QTBKFvTlLPXueU1aTs5NfnmgAAlG+/Yxz2RhgA9mNb8nxS4D2tYtbYsVwVOu5E6DOLVee83+GfFzy+1ecA3TbZ8P1SIsHzMlY90D9nlYzfFpqiCiX77ifusQCQRPn2D82iQg3AXmxLnk8LfelxHKuUKd0+FfoqHr7NY6JKTUquItKxBui20YbXLnL81eejWH1Ov5ykjko9Jr7WNZae678DQHHKt79P+XaAPdiWPP9Dgff0q2Y5qkWh404GHPNp6nj4puRjXVYpVw1iHBUhAPqqSbnV52PhpydqqNIzjwfDtSlZuv0vwg8A/xvvKN9+Y5TkO2EAeJoay7YvNctRfV/ouOMBx7yGPerm8fCtRu8Gfl4CcBgXKbP6/Ezo6YFx6qic9VZTVGeZcpPRT2JVGQBcW0T59tumUQkM4Em2Jc9LDMYWmmUQ8Z4MNN6jtPvPlObhW52uUm5Sw4nwA3Tapr5VU+i7fxarz+m+GladL2KSea1KTn7VfweAG8q3v+8sqkwCPFptK88bTVLEosAxvxhorGeVtPfSaV+tq0LHHetUA3TaaMvrF4X62lafo//+dLZbqrvv3hQ6ttLtAHCjifLtH44PL4UB4HGeVfZ+lppkMHEfDzTWNaxc8fCtbiWrAkyFH6C3mpRbfT4RfjrqJOVLYy+jOlvt99argucnAHBjEeXbb5skORcGgIfblDwfC89g/Froy3uIHZbS19UqHr7VrmQbWb0C0G8XKbNC8o3Q01HPK3gPtluqX8k2OhF+AHjP61igd9tZLJYBeLDakucrTVJEqQ7FaGBxruHhm1Xn3VBq78TpAK9LgCFpUibJM40HNnTPKOUTk02SuaboxHh6VejYXwk/AHzUf1K+/X2X8bwP4EFqK9v+b01SbLBfwmRgcZ5V0Hm8crp3Qsl2mgo/QCft2q+6iL3PYRcnFbwHq87137twngJAbZaxgOi2cVQDA3iQZ0LA2koIDuok5Wf4XaXMw3Ierkm5B3BWrwB00679jCblVp+faCY65GUF72GuGTqjVOWocWy5BwB3OY/y7bfNjMcAdid5zrVVgWNOBhTfGvaStnKlW74vdNyp0AP03kXsfQ6bjCsYq1zFBOcuWRZsL/13ALib8u3vU74dYEeS51xrChxzSF/WJ4WPv4zZll2zKHTciY40wCD6fSUm1Y1Tfhsb6ELfPSm3kpnHuyp03C+EHgDutIzy7beNknwnDADb1ZY8/6MmKeZXITiYk5RPRnr41j2rlJvwMBV+gN67iL3P4T7PCx+/SblELI/3s747AFTnPBYUfdhvOBUGgM1qS56PNcmg/GEgn7OGku1zp1snLQoddyL0AL3XpNzq83Php2Kj1FGyHX33h/TdR8IPAPdSvv19Z/HsD2AjZdspaShf0ieFj3+VMivLeLpSq1e+EnqAznnMpMSLQn2El5HoQd99k7eaoZOamPwKADVaRvn220Zp9z8H4B61Jc8N+MoO9DnMOT0q/B6+1wyddeVeDMAB791NyiTpRlEqkHqVrhq1itKiXaZ0OwDU6Vwf66Px47kwANyttuT5SJMUo/NwGCcVvIcrzdBpi0L34rHQAwzCRaw+h5r67/ru+u6P8YXQA8BWyre/7ywm4AHcqcay7W7Y9EnplStXUVWg60qtXpkIPcAgNCm3+vyN8O/cRhzHSQXv4Z1m6LSFvjsAVGsZ5ds/dBmTmgE+UmPyfKxZ6IlRyj/EULK9+xaFjjsReoDBuEiZBO1M338nSyE4mq8KH7/R3vrvjzSOB98AsItz/a2P+hAmNQN8YFPyfFXoPSk3Rl+cVPAerjRD5y0KHfcroQcYjCZlVp8nbalAqMVU3509UDkKAOqmfPv7ZqnjOTZANWpMnk81i4F2T5ROPi6jzGdfLAoccyzsAINyUaj/P9MPpRLjqBpFd/vuxvQAsLtllG//kPLtALfUWLZ94kZdRImY/9zzmE4LH9/Dt3516o9tLOwAnTJ54v/fpNwDJGUC0XdvLTRDL5Rqxz8KPQDs7Fzf6z2jtAl0AJJ8uuX1ZcrMXj5JMtc8RzUv0GFY9Tie45RPPl45rXvj5ySnBY47NZAA6IzRnvqDZwX6MFPfOVSgdNWoRVSN6pNFjj8hYyLsAPAgL5L8Egv5rp2kff54IRTA0G1LnpcavH8VyfNjW6XfyexjmxY+fpMyq5U5jFJtORZ6gMF5nTIrDs4iec6w+++qRvWv/37sc2oi7ADwIKv1+EclrPfHZVeRJwAGblvZ9lJltU80DR1XeuXKlSboXWe+RKd1LPQAgzMv9J0zNQagoHEF/Z6FZuiVXwsccyTsAPBgF/phH/UnvhMGYOi2Jc+bgjfpE81Dh00LH/9nTdA7ywLH/ELYAQbJ3ufoux9XE1Wj9N37cS4DQBe9iO1zbpuk3RMeYLC2Jc9LDuCfax46ahwrV9g/q1cAOJZ5ylU8mQk/BZSeMKjv3j/LQsfVfweAh1ul3ATiWp3FljDAgNWcPD+JksF0U+mOxSr2pemjEvfjqbADdMpoj/9WqYdHZ5qRAfZ5VI3qp8UAx6IA0FUXMaHxQ9/FxDxgoHYp274q+P5mmogOKr3fuY5ePy0LHVcnGaA7Jnv8t+Ypt/r8XFPS4WtH/51rJe6hfxR2AHg05ds/HpuZ3AwM0rMd/k7JgfzLSNzQPZPCx/9VE/TSaqDnMwDllFp9bgzAMU0LH7+J/c77qsS4bCzsAPBoqyjf/qHTtBWCAQZll+R5yUTcaH2Dhi6ZFj7+QhP0Vom2HQk7wGDNU2byljEAxzTRd+dAlgWOORZ2AHiSC/2zj1zG80FgYGpfeZ5YeUK3TAofv4mVK322GuA5DUBZVp/Td18UPr6qUf1VYlw2FnYAeDLl2983SptABxiMXZLny5Td93yU5I2moiMmhY+/1AS99m8hAODI5im3+twYgCH03xeaoLeaQscdCT0APMkqyrd/6CSqgwED8mzHv1d6QD9L+VLYsIvSK1d+1gS9tixwzK+EHWDwSj04msUqSg5vMsD+HcezGOA5DQB9cBGTHD90ZnwGDMWuyfPvK3ivb2IGNfWbFD7+UhP02koIANhgeqB/d17wO+hMs9LBa+YhffdGM+i/AwBVUr79faMk3wkDMARdWXmetElJD8+o3aTw8ZeaoNeWAzynAahDydXnU+FH352OKrHtknsmAOzHKskrYfio/3wuDEDf7Zo8b5JcVfB+T9PurwE1GqVsdYQmVjYMpeN+7PMaAOax+pz++WPh4/9bE/TeUggAoPPjoCth+Gh8NhEGoM+ePeDvvqvkPV+6OVOp0uflUhMMwkoIACik1OrzaaykpJ/994Um6L2mwDH/KOwAsFfKt3/su1hwA/TYQ5LnV5V8SYyS/OTmTIUmhY//syYYhGWBY06FHYBYfY7+ex/6dfS/jcfCDgB71aRNoPN+f8MYDeitZw/8+/NK3vcoEujUp/QM/5UmGIT/CAEABZWqRjVNu/857HNMWXI82cQKpiHQxgDQD1dRvv1Dp7HFLtBTD02ev63ovU8igU5dJoWPv9IEg7AscEz3WYBu+MMRjnGRcskgKxvoU999qQkGY3Hk442FHAAOQvn2j13Gc0Oghx6aPF+lrn3ZJkl+iT3Qqed8LGmhCQahGeC5DUA99+sm5SbUjmP1Ofs9n0qy5RJ9PbcBoK+aKN/+oVHaBDpArzx7xP/zusKB4U+xJy91dBZKWQn/YCyEAIDCLlJ29flIE7CncWRJ+u/DYaIEAPTHVZRv/9BJ2hLuAL3xmOT5IvUlb0ZpE+jnmpRCpoWPv9IEHNAfhACAW5qUXX1+qgnYgy/03zniPfPYJsIOAAejfPvHzqL6DdAjzx75/72u9POcpU2iu1EzNFYzDMsnR/55JeQAfOAi5R4YvYzV5zxd6XNoqQkGdb88dv/d+QUAh9NE+fa7+tbfCQPQF49Nni9Sb+ngadp90E81L0c+70p32gAAjtn3KLX6fKSvzx5MCl8/+u8AAN11FeXb7+pfnwsD0AfPnvD/vq74c42SvEmbRJ9qZgZgKQQAwJFdpOze52NNwBPHjPruAAA8lvLtd4/TJsIAdN1TkueL1D+7apK2jPt38XCNw/qq8PFXmgAAOLIm5VafJ+2DGXiMaQXXDgAA3R8PKd/+se9imy2g45498f9/1ZGB/0mS35JcRhKdfloJAQBQwEXB8cBM356O+lUIAAB64SrKt39oHBOdgY57avJ8lbKrTR5qFkl0DmNa8NhL4QcACmkKjwfeaAIeYVL4+CtNAADQG8q3f+w0ttMFOuzZHv6N83QveTeLJDr9oXMGAJR0UbA/chIPZXi4UeHjrzQBAEBvNEm+FYaPKN8OdNazPf07XZ1dNUubRP8uHrrxeJPCx19qAgCgoCb2Pqdb/lD4+CtNAADQK4u0k4q5MUq7eBGgc/aVPF8med3hOJwk+SnJL2kT6vDQjkBJ/9EEAEBhFyk3mXYaE2F5mEnh4680AQBA77zWz/vISeRbgA56tsd/6yLJVcfjMUk7G+r3tOXox04ROkCnDAAorUnZ1edWNNClawUAgH72814Iw0feRJ4F6Jhne/73XqQfJaRHacs/Xpd0P3GqsMG08PFXmgAASPkHEhcplxgcx4oGdjcpeOyl8AMA9NYiyrd/aBSTnYGO2XfyvEl39z+/z0naBPpvsRqdOjVCAABU0E9tYu9zumEkBAAAHIjy7R+bps2tAHTCswP8m8skX/cwVuO8vxp95vShEkshAAAqcVG4v36uCajcz0IAANBrTZRvv8tZylaAAtjZswP9u8uef0Gc5GZv9Ddu+oP3lRAAACRpHxTNCx7/ZawqZjNjNwAADm0R5dvvcmm8BnTBswP+2/P0f4bVKMlpkl/WP6du/hzZUggAgMq8rqB/DpvOkZJWmgAAYDDjIn2/901iuy2gAz498L8/X/96OZAb/yTtSvSrJN+n7KobhqERAoBH+UkIqvG1EPTOat0PnhU6/tn6+CtNQaXXB9A9z6PqXFH//Ns/rn/77s9//+tcRIAOaNIuLvT84X2naXMnC6EAavXpEY5x3aG9HFBcT9Y/14n0t7FCuM/GQgDQOVMhgIN6nXLJ86RNoNtnEIB9jvuN/evwsxAAHbJIW779VCje812Sz2NhGFCpZ0c6zjztw6uh3QxHaR8a/pLktyTnBlu9HUQbNAIA3FilbBWmWextzd2mFVwbAAAMh/LtHxtlWIstgY55dsRjzdOW5WwGGutx2hUwv6VNps9if3QAAPrrdeHjv9EEVGglBAAAg9JEVay7nKRstTKAez078vGWSb6MEuaTtDOrfk9bouTEqQgAQM+sUnb1+TS2aAAAAMpbpC3fzvveRKVeoELPChxzlXYF+lz4k7SJ8+/SJtIvo7wkD7+eAABq9SplK0+daQIq0ggBAMBgvY5FhR8aRfl2oELPCh23SVuq5JUmeO+LYhb7o3fNpPDxV5oAAKhYk+RtweNPoxQg7/tDwWMvhR8AYNBjI+Xb7x6znQsDUJNnhY9/kbaM+0pTvGecm/3Rf4oHfjUbCQEAwNY+f1Pw+Fafc9tECAAAKGSZdgU6H4/Z9NOBajyr4D0s0ybQLzTHnaa52R/dHiAAAHRNk7Krz8dJTjUDAABQgfOoSHSXy1ioBlTiWSXvo0lbwv3bWIV+n1Hah36/pd0jfSokuF4AgI64SPnV5yPNAAAAVED59o9NomoYUIlnlb2fq1iFvouTtOXcf4uS7kO3EgIAoAOalF19PorV55T3sxAAABDl2+9zGosGgQo8q/A9NWlXoX8d5Uu2GeempPt5rKYBAKBe5yk78e+l/jIAAFDR+GgpDB/5zrgNKO1Zxe9tkXYV+quULfHYBaO0JU1+iyQ6AAD1Krm6YpTkjSYAAAAqoXz73eO2S2EASnrWgfd4keTzJHPNtdMXiyQ6AAC1mqfs6vNZ2upNAAAApS2jfPtdTmK7WqCgZx15n03aWVifp12RzmajSKIDAFCn0g+HzjQBAABQifMo336XNzHxGSjkWcfe7yrtXuhfRxJ9F6O0Dwd/iZlafdQIAQDQQfOUfTg0SzLVDAAAQCWUb//YKMq3A4U86+j7XkQS/SHG6y+aX+JBYZ8shQAA6KhXhY9v9TklNEIAAMAdllG+/S7TtCvzAY7qWcff/yKS6A8xSfJT2kT6SDgAACjYjy/Zf5/GpFKObykEAADc41x/8U5nafMaAEfzrCefYxFJ9IeYpd0P/VQoAAAopPTKijeaAAAAqIjy7XezGBA4qmc9+zyLtAn0L9Pupcj9RmkfGP4SM7cAACjTd78qePxJ2kmltVs6VQAAYBCWUb79vrGbrbeAo3nW08+1TDtL6/O0SfRGU2/84vkl9g4BAOD47H2+3X+cJgAAMBjnUV33Lqex9RZwJM96/vlWuUmiv4hVG5ucxSp0AACO31+fFzz+ON1YfQ4AAAzHi1gQeBfl24GjeDaQz9mkfSj3ZW5Kuvvy+dgkyU+xFzoAAMdTw97nI80AAABUYhXl2+8yTptABzioZwP8zMtYjb7JKO0DxO/iISIAAIe3StkHQ6OYPAoAANTlIsq33+Vk/QNwMM8G/NmbWI2+7UtIGXcAAI7honBf/GVMHAUAAOqifPvdLtOuQgc4iE+FIMnNavRXaZPGz5NMhSXjtGXcX6XsXpQAsG8LIYCqNEneJjkrdPxR2tXn55oCgDus1j/U0RYAQ7rnvU5bKZb3x2+XSb4WCuAQJM/f16RNEs/TJo5fJpll2KtQrr+IvkibRAeAPjDAgvpcpOwK8JfrccBKUwDwgXcxwaqoP//9r4IADHmc9JdY7PehadoJ0BdCAezbMyG41yptsvizJN8muRp4PE5jH3QAAA6nSdnJmqOUW/nOMEyFAACAR1C+/W5vYttZ4AAkz3dzlTaB/nnaB3qrgcbhJG0Z95FTogo6BgBA38wL97VnsXceAABQl1Xa8u187FIIgH2TPH/4l9RF2iT61xnmPuCTJL9E4rYGIyEAAHqo9EMhq88BAIDaXCRZCMNHJrEnPLBnkuePt0hbLuWz9a/LAX32cdoV6BOngXI5AAB7Nk/Zh0Iz/dxe+1kIAADoKOXb73YaWyQBeyR5/nRN2gd8X65/LgbyBTaKBHoyrEkTAADHUnr1uZULAABAbVZRvv0+l1GpFdgTyfP9WqbdE/16NfpVzz/vKBLoAADs3yJlV59PY+UCAABQn4so336Xcex/DuyJ5PnhzJN8m3Z/9NdpZ4X10SgS6AAA7N+rwse39zkAAFAj5dvvdrL+AXgSyfPDWyU5T5tE/zb9XI0+SptAH2nuoxsLAQDQU8u0E1JLmcbqc/brKyEAAGAPVik/2bhWl/HMHHgiyfPjukqbQP8s/VuNPspwE+hNwWPrCAAAfVZ6Pz+rz/tnKQQAAPTAPP3fNvYxRlG+HXgiyfMymvRzNfpkoF9MS6c0AMBBrNLu6VfKNMr+9XEsBgAAfaB8+/3juFNhAB5L8ry8q9zsjX7Rgy+7k7QTAwAAYB9eF+4jv9EEAABAhZq0CXTuHsdNhAF4DMnzeqzS7lPy+foLb9Xhz3IWK3SOZSwEAEDPNUneFu5vzTQDezAVAgAA9uwqyrffR/l24FEkz+vTpN2v5PMkXydZdPiLaTyQNlsVPPbYJQMADMBFyq4+t/d5fyyEAACAnlG+/W6TqCQGPILked0WaRPoXUyijzKcmV3/dqoCAJUY9/RzNWmrNJWM68zpBQAAVDpeUr79bqdRAQp4IMnzblikm0n0aex/fmh/EAIA4JZxjz/bPGUr/lh9zj5MhAAAgAO4ivLt97lMu9gPYCeS592ySPeS6Gfp/wOiVcFjT1wWAMCAWH3OPiwLHnsk/AAAHIjy7feP5ex/DuxM8rybFmkT6N+mbOJ2V33/Ylo5JQEAjuIqZSeRnkXysw8aIQAAoKf9XOXb73ay/gHYSvK8266SfJ7kdeXvc5J2bxEOE1sAgCEp2fcd69fyRFMhAADggK6ifPt9LtPvrc6APZE874fzJF+m7hUUZz3+YloWPPbI6Q8ADMwiZVefvzxyH2ylyffuZyEAAKDHlG+/2yjKtwM7kDzvj2XaVejLir+Yznoa+6aC2AIADEnJUoSjHHf1+Upz98ofhQAAgANronz7faZRTQzYQvK8f1+KXya5qPT9zdLfMoVNwWNPnPoAwMCskswLHv/Yq8/Z//lTylj4AQA4gqso336fN/FMHdhA8ryfXiX5NnWWZunr6vOl0w4A4KheF+zvjmK1QpetCh57JPwAAByJ8u33U74duJfkeX9dJfk69SV1p+nn6vOmcEwBAIZmleRtweNbfd7tc6eUifADAHAkTdpFdtzdLz8XBuAukuf9tkybQL+q7H31cVbXr043AICju4jV5zzcqvDxR5oAAIAjWaTebV5LO4uFacAdJM/7r0k7u2xe0Xsa+1Laq6+EAAAYcF/X6nMee+6UMhF+AACO6HXKTyCt1aUxHfAhyfPheJG6Euh92/t84RQDACjiPOUeBI1i9XlXLQseeyT8AAAcUZM2P8DHxkneCANwm+T5sNSUQJ+mX6vPm8KxBAAYstcFj231uf77Q02EHwCAI1tE+fb7zJKcCANwTfJ8eF6k7CqL2573KK6lYzpyagMAAzYv2B8bxerzLvq14LH/KPwAABSgfPv9lG8H/kfyfJi+TtmVFtdmPftCKhnTidMaABi4VwWPbfV596wKHnss/AAAFNBE+fb7jJJ8JwxAInk+5C/Jbyt5L7MexXVZ8NgTpzUAMHCL9U8Joxxu9flK0/YurvruAACUHDddCMOdplFVDIjk+dC/JF9X8D5e9iimq4LHHjmlAQB6uff5SrMexLJw313/HQCAkuMm44y7ncVkVxg8yfNhO0/5vbrHPfoy+nfBY3/ldAYAyCLt/ucljGKVQpc0se0SAADD7Qsr337/uO5SGGDYPhWCwXuR5JfC7+F5yifx92GRdmZaCWOn8uBMcvwVS6uYlQpA/V6n3NZAL9OWQGw0Qycs05ZmLNWXW2iCwRilzIQJ5xgAsKmfcBETgO/rq5+vf4ABkjxnWcGX5EmSVz2I5argscdpH8g0TunBeJPjP+x9rdMIQEf6ZPOUSaCP1v1q35f679v8UfgHZZLkpwLH/UToAYANXqd9Nj8Wio+cpZ1gsBAKGB5l27n+kmwKHn+cfpQtXBU+/sSpDACQpJ2YWap/e6i9z9m/ktsu6bsDAFBaE+XbN7k0toNhkjzn+kvybeH3MO1JLBcFjz1xKg9KiWtmKewA6N9uNYrSh/ruwxn/sJuxEAAAFfeJL4Th3j7cG2GA4ZE859pFyq4+/0tP4rgqeOwvnMYcWCMEAOjf7sTq825YFj7+WBMMRom2Xgg7ALCj17Fo5j6ztKXtgQGRPOdak7Krz6c9ieOvBY89cRoDALzXv31d6NijlNlznYefI43+OwAA+sXKt2+gfDsMjOQ5t10UPv60BzFcFjz2xCkMAPBR/3ZV6Ngve9LH7Dv9dwAAaPvFr4XhTqMk3wkDDIfkObc1SeYFjz/tSScjYkhP23kh9AB0UKkHQOPsb/V5oxkP5ueCx/5K+AejxBZbS2EHAB7oXB/iXtMkp8IAwyB5zoe+L3jsPjw8alJ23/OJUxgA4D3zlHsAdCb81VsWPLa++3CMChzzP8IOADyC8u2bx3f68DAAkud86Crlkr99+eJZFjz2F07hQRgVOGYj7AB02KtCxx3H3uf67pv7dBNNAABAZf1j5dvv779fCgP0n+Q5d7kq+OUz6kH8fi147KnTdxAmhTrOANRPX+Bui5TbfsTq87qtUnaS4EQTuDcf8L4HAPAY5/EscFP//VwYoN8kz7lLyX3/Jj2I36LgscfpxwQEAIB968Pe5xzGsuCx7XsOAECNlG+/31lMXIde+7TARd7ErKXaXa3baVTg2JN0f4Z86fN7mnLVAziOrwZ4XgPAUy3S7n8+K3Dsl+tjU6efU+7h10T4e69UG6+EHgB4gmXaCcgqad3tMsmXsdUl9NKnSX468jEXSb4W+uotkpwUOO6oB7Fr1p2LSaHjfxXJc/bvP0IAQA+8Tpnk+SRtcnahCaq0LHjsyXoM1GiG3io1xl0JPQDwROdJ/hITPu8yTvImVuhDLynbzn1K7dvdl7KFy4LHnjp9e286sHMaAPZllXIrwJ+yYsP38GEtBti343gmhe51AAD7IDl8v1nKLEAEDkzynPsshOBJSu8bP9IEvVWqbRuhB6AnXhX6Xpvm8UlSFWAO389ZFjy+fc/13/dtJewAwJ4s01bw4m6X8SweekfynE1fiiWMexK/ReHjT53CvTUZ2D0BAPatSfK20LHtF2j8o+8+PCUmR6yEHQDYo/N4NnifUZLvhAH6RfKc+zSFBtzjnsRvlbIPLKxe6a9S10gj9AD0yEXKrT4fC3+VSleOcl7ov+/Tv4UdANgz5ds3j/NOhQH641nMSOZ+zo2nWRQ89onw99Z4YOcyABxCE6vPqau/M9UE+u97tBR2AOAA/Qvl2zeP8ybCAP0geY4B9+GUXL0yjtUrfVWiqkAj7AD00HmhsdBMP61Kq8Jj479ogl6aFjyfAQAOMYZaCsOdRmn3Pwd6oETZ9omwd8Z/hOBJFoWPf6IJeqnEPfRXYQegp0qtnLD6XP/9Q1Ph13ffo6XQAwAH8m0stNnU9zsXBui+EsnzkbB3xqrQcac9it+q4PGtXumfcaF76FLoAeipeaH+2skDv9N9Fx/H9wWPPYrJr330hb47ANAzqyjfvony7dADyraz7YuQp1kUPPY0Jqv0TamOl3sBAH32osAxR0lOH/D3G83U+757UmZ7HvrXf9d3BwAO7aKCvnPNvovn8tBpz5L8u8Bxx0LPQHxf+PgnmqBXSj1QXQo9AD22SJkHPy/jgUptmsL9Hn33/pkUOKYtlwCAY3gRk3zvM46tuqDTnhU67ljoGYhF4eMr3d4vkwGewwBwDCXKDo4iWVqjkpNfx1HisU+mhY67FHoA4AhWUb59k1PjPeiuUmXbR0LPQAb7TcomH09cb70ydT0CwEEsCvXZrEaoz1Xh4z/XBPru+u8AQEdcxMKbTS7j2Tx0Uqnk+UToO6HUF1/Tszgq3c4+TAsdV9lHAIaixN7n4yQzoa/KsvB4RN+9P0psudTEnucAwPHHUY0w3GmUNoEOdEypsu1/EPpOGAvBXlwVPr7VK/0wLXTcpdADMBCrJPMCx33p+1j//YMx2Ikm0H/XdwcAOjSOUr79fidpS7gDHfIsZVYXT4S+E8ZCsLcOxLLg8afashe+KnTcpdADMCAlHvpMsj3J1miaoypdOeovmqDzpoWO+7PQAwAFXET59k3O4vk8dEqplecToWdgSnceZpqg00Yp8wBOpxeAoVmlffBzbPY+r8tVyk5YmMXeiF1XagKE/jsAUIry7fcbJflOGKA7rpPnywI3Cw8DuMuyp5/rXeHjK93ebdNCx7VyBYAhep3jP/SZxkqE2lwVPv6JJtB/N54GADpkFeXbN5kkORcG6Ibr5HlT6GZB3cYFjtn0NJbLdQeiZFueOKU7y8oVADhuf/RtgeNafV6X0qXbnQ/dHkdPCo05G+EHAAq6iOeJ2/r4E2GA+l0nz0usLpwKfycG/cfW58H+VeHjv3RKd9ZJoeMuhR6Agboo0C+dbel/+14+ft+95NhkbMys7/5AC6EHACqgfPtm30VVZqheyZXnXwl/9b4ocMxfexzPt4WPP41yoF00KdShWuroAjBgTcqUHJxteU8c11Xh49t6qZtKPeuw5RIAUINVlG/fZBxVpqB6pfY8T8yi78qN/NiannccloXfgy/m7in10PR7oQdg4C5y/G13XsYqhJqU7g/NYvJr14xi5TkAwEXKT0St2WlssQpVK5k8TyTQazcpcMxlz2P6rvDxZ/FAtmtKdaQWQg8AR18xMcr9q88bzXF0Vzn+BIoPmfyq777rONo9AgCoifLtm13Gc3qo1u2y7SUeCkw1QbVKtc2y53GdV/AeTp3enTFJuQoQC+EHgMxTZvX5XX7VHEWUnvx6Eg/VuuQvhY6rahQAUJsmbQKdu43SJtCBCj279fvlgAaWbDct9IXaDKDTMC/8HpQD7Y6XhY67EHoA+J9jP/AZZ/Pe5xxX6b77KCa/dsUo5VaeXwk/AFChK/2UjU709aFOt5PnJVYyTGIPt1p9VeCYy4HEtvTqlZEv5U51oEqwcgWgu74Qgr1b5PgTy57f8WeNpihilfIP/Ex+7YZZoeM2AxpLAwDdo3z7ZmeRI4Pq3E6eLwq9hxPNUJ1Ryqw8/3kg8V2k/MpeD+DqNyvYRlfCD9Dpfhz7d+y9z6d39MeXmqGYtxVc16eaoXrP9d0BAD7SRPn2bX3974QB6lJD8vy5ZqjOSaHjLgcU49eFjz9KO6uNej0veB02wg8A71mkjtXnDKf9P2RFSt0m658SVI0CAGp3FRP+tvUlz4UB6vHsjocCQxpkcrdSD+oWA4rxooLPexoP4Go1TpnqD0n5bQUAoFbHXi0x+6CvttIERb2u4D2Y/Fqvl4WO28SDaACgO+OpRhg29vUnwgB1+DB5XmrG8ktNUY1xyiTtlgP88qzhAdwbp3y1naVSroQfAO60SjIvOE5aaYKiFik/+XWWchMsud8o5fY713cHALqiifLt23wXW7FBFWpYeZ60ZcLdFOpQatC/GGCsFxV87pN4AFebUcpunbDSBABwr2NPfpwZJw26/e9i9Xl9TgseW8l2AKBLrmLy3yZj/X2ow4fJ82XKJE5GhQec3LRDqSoAQx301/AA7tKpX5XTlHtI/lb4AWCjVY67+nyU9ye3rjRBUYuUn/w6TbkJz9Q1hm7i4TMA0D3Kt292mnILq4C1Z3f8WanB18tYVVHarFAbNBnmyvOkjgdw4yTnTv8qjFJ2G4srTQAAW73KcR/2KN1el1q2XjJ2rsNpwbbQdwcAuqiJ8u3bXOrvQ1l3Jc/fFXovo1h9XtIo5ZJ2Qx/011L+ceIyKO40ZR++NZoAALZqctxqLeNYeVCTRcpPfh1F9aihj6ETVaMAgO66ipyA/j5U7K7k+TLlVjRYfV7OadoHcyUMfZ+2RepYee8LuXynqOTDt3eaAAB2dpEyq8+XQl+FGia/nsSkihrG0KNCx165HwAAHad8+/b+/qkwQBnP7vnzq0LvZ5R2BSzHj7t92sqq4QHcJMq3l3SWsg/fXIcA8LA+7DFXfU7XfbX/CH0VFqln8utIcwxuDJ1YdQ4A9GNMpXz7Zmcpt+ARBu2+5HnJFYinUT762ErumXcl/EnqeQB3lvbhLMc1TtmZhFadA8DDXeS4FbteVtJfpFXD5NdRku80xeDG0Eky1wQAQA9crcdV6O9DVe5Lni9TtgSY8tHHM00yK3h8M+ZvvK7kfXwXK1iGds+bawIAeLDmyP23mZBXZZE6JjNMo3rU0MbQ8yhxCgD0x+uU20a4Cyb6+3B8zza8VjKp6YZwHKOUTdotY5+22xap4wHcKGa0HdNpyq72n+ugAkBnvkenQl6VWia/nsX+58dUeuKrCegAQJ80Ub59l/7+RBjgeDYlz69Sdjaz8tGH9yZl98ww6P9YLQ/gpuvzg8Mar+91cR0CgP7bDp7HpLeaLFJPKf3LeKB2DOeFx9CLmIAOAPSzX30hDFv7+yNhgOPYlDxvUr6Ur/LRhzNL2VJzNZxftXYUFpW8l9MoD9r3Ts8iHr4BwFPNj/h9Ok7ZxB0fq2WVzCgeqB3aNOUnvr7WDABATynfvtmkgr4oDMazLa+XXpE4SvKTZjrIjbb0qmKrXe9XU5mayygBeSjnKV9dw8M3ANiPV0IwWKvUMyl4sh4/jzTL3o1Svlz7MvVMtAYA2LcmyrdvcxrVmuEotiXPa3gQMKlgkNq3QX/pFf1NlGHZdt3VFB8lIPdvmvIzBRfx8A0AfK+yD69TdsuzD8fPtl/av+9SvuqDCegAwBDGVRfCsLVfOhIGOKxnO/ydGlYmziKBvg+jtCsRahj0N5pj63XXVHbeTDTLXozXnZwazjEAwHcrT7dKXYlN4+f9epPyK3xWse0ZADCccdVKGO410teHw9sleV7LIG2WtswxTxv0Twq/hyZmj+0ap5oewI4igb6vONYwO3ARq+MAwPcr+3Seuh7yzeKh2r7ieFrB+1DCFAAYikbfZ6uTdT8VOJBnO/69WpJ4Z1GC7rEuK7mhWnW+u4vU9QB2lDaBPtU0T4rfpIL3Yl9WADgMD3m0f01mUdbxqfGrYQLCVUzMAQCGZREL8LZ5k/IVhqG3dk2er1JPibDTmEH/ULUkzldRPeChXqSuyQajtAngmaZ5VNwmFbyXiyRLTQIAB+vvzoVhsBapr3z/SerYuqtrJqnjuUMTE18BgGFSvn2zUeTJ4GCePeDv1rQH82x9Yxhpwq030JoSnVbiPNyq0rhd+nJ+8HU4qeC9NLEfKwAcmu/aYTtPfauEJ0l+iS2YdnWy7r/X4G08NAYAhqmJfMI201isCAfxkOT5aj1wq8VsPaAdacY7jVJXie2rKDX3lNjVuNpglvYhnGtw+3U4qeT9vIptEwDg0Fax+nzovk19lX5G6777TPNsHePUUup+FQ9DAYBhW0T59m3OYpIs7N2zB/79i9Q163mS5LfYg/m+uNRy02yi1NxTXaRNojvXunUd1pQ4X8SDfAA4FhPWhq1JvatkritIjTTTR85TV3UtK60AAJRv37WPr38Pe/TQ5HmT+pKgo7QJqnPNmaTdE7621cC+4Pajtv3Pb1+Dv7gG33OSuhLnTTx8A4Bjf/e+FYZBW6beCcSzyvqqNYxnLtOu2qnFRVRuAwC4Hlt9KwwbTSrry0LnPXvE/3OVOlfAnmXY+7iN0z4AeVPZ+1pEaZWhdBTO1ufgeODt9Cb1lHq8ZgILABzfRaw+dw7UOXZObqoknQ68ja7jMKvoPa3W/XcAAFpL/aOtTqNCM+zNs0f+f7WWIZxkmCtgT9efu7abYxOzwvZtkbpL4E/X5+LpANtmUulnX8QEFgAo1Re2+pwXqXcS4yjtxM+hrkI/T50T8GutOAYAULrvthSGjWpb0AWd9djk+Sp1J/DOMoy90E/Wn/NNpTfFbw36D+Iide9dPVqfk0O4Bq8/73nqfPDWRLl2gKEZC0F1/Tb94WFrOjAumq77srWOKw/1eWssbXkR5doBAO7jOedmo7TbEQFP9OwJ/+889ZagS27KmP+UNsncJ7O0icnvUu8DUoP+w3qV+mfaXV+DNZ+n+7oWa91TpuaVTgAc7vuXejSpe9Ixx7FMNx70na77trMe3x8vU+9K+6X7BQDA1v6S8u2bnfS4Pw9H8+yJ/38XyolN0ybvrh8CjDo80D9ff47L1P1g1JfY4TVJvk43EqMn6/O2TxNZZreuxVrvKfPUPcEJAIZiHpPZaPtlXUigj9Z93N/X489xD2I/Xn+mmicGNLGSCgBgF+dRvn2bNzGxHp7k0z0M8L5NmxTryoD5TdoHF2/TjZW7J0mepzt70F0P+huX11FifX39jTrwfqfrn1WSd+neg+Rx2odtzzvQ+VjGqhXY5r9CUJ1PhIAeex3l82j7v1+lGytBRmmrK52tx8/fp+6to+5yPZY+6cB77UJlsaG7vh4o5J9/+8dH361//vtfz0UGYJBepN2Gh/v78pdpF98Bj/BsD//GIt1K0ozSPqz4JTf7hU8qen+T3OyfXOP7M+ivy3L9Jdh06D2P0z50uF6Nfpp6k9HX94vr6hVnqT9x3qT+fTUBYGjmsfqc1ot0Mwl9vRr9MnUnoyfrMfT1NmcnHbk/zF0aAAA7W0bl222mafNMwCN8uqd/5yLJF+neXgrjtIm707SJpkWSn9e/Lo84uJ+mXYEwTXfLyl+fBwb9ZToLr9LN1UzT9c+b9ef4Pu3KlmXB93T7mjzpYEztcw4A9X5H/yQMrPvuk3RrknRyM7F0th4/X90aP68KvqfbffdxB8dyyrUDADzceZK/dLBPfUzXVaSWQgEP8+ke/62uPgC4Peg+yU2yrFnfVJZJ/rN+IHBt8chjTNaD+cl6cD9Jt5Plt82jTHTp+CfdLgd6ff84u3X9/bz+dXWgL/np+poc9+SafBX7nANArRbrn6lQDF6TtnrUTx0fP89yM4F+tT6/f701jm72fMzxrfH0Fx1//nAdM6U0AQAeT/n27a7LtzdCAbvbZ/L8+gHAb+lHQniUm1Wxib2tNrmK2fI1mOemJHrfrr/b95nlrf9epp3css0f8v6DtWlP2//CZQAAVXsdyXPeHz93OYF+2zh3V6Jb5WZVepM2ub6LL3LzXGGc7q0o36X9bbUEAPA0y/UYS+7mfpN1fCx8hAf4dM//3u0HACPhHcwXlMR5Pc6T/DHd20JhV6O8/8B5qsmTmMACAF2xiNXnvD9+ftHz8fM47ye+TzR7kjZxvhQGAIAnO4/y7ducpt0udSEUsJtnB/g3l1EGYijmSb7U1tV5EXvPD8kyEucA0CWvhQDj58GP1xbCAACw1/4Vm30XC15hZ88O9O8u3bB670IbV99hmAtD7y3jYSsAdM1CPw19OuM0AAD22p82SXmzUdr9z4EdPDvgv30VydU+D/jtkdGNdroQhl53Cj1kBYBu8mCH+/p2S6Ho9fhsLgwAAAdxri+91Un6u90r7NWzA//780juGPBT0quYxNJHS/dWAOi0lT41G/p4S6EwjgYA4MG+jeel27xJMhYG2OzZEY6xiCRPHzTrLx8D/u6Zp31Y4xrsh6V7KgD0gtXn3Dfu+jr2xO4TiXMAgONYGWdtNYry7bDVsyMdZ7l+ALAS8k5q1u13JRSdNY+Eax8stCMA9MYqtthh8/jL+dH9dpQ4BwA4rouYiLrNNMmpMMD9nh3xWMskX0YJuq5ZJPlcu/XCct2WOg/dNI/EOQD0zWvf7WxwvQWTc6R7mnXffS4UAABHpw+93ZskE2GAuz078vGatAl0A8hueBXJur5p1m2qfE33rkV71wNAP/tmb4WBDeaxD3rXLGPhAABASat4/r0L5dvhHs8KHfdFzP7pwmD/Qih66zy2UuiCJkp2AkDfXRgXYXzWG1fGWQAA1YyzFsKw0STtCnTgA88KHnseM+hr9DpmyQ/FYt3WZuHVabluH508AOi3Jlafs5tXxmrVt8+3MRkGAKAWFnBud5p2D3TglmeFj7+M5F0tFuu2OBeKQWnWbe4hXF2uJ7GshAIABuHC9z6PGEM3wlFVm1wIBQBAVVaRe9rFZZKRMMCNZ5W8j/NYYVlKk5u9zZfCMVjLmMhSS4fOJBYAGGafXD+Mh46hjeHKu9AOAADV99cWwrDROPY/h/c8q+i9LNeDTqU0jvvF8XnMkOfGeaxCL+X1+noUewAYpnmsPufhY2gTYMvF/uu0E9Eb4QAAqJqc03Yn6x8gdSXPr83TJpA8ADicq3WMDfS5yzLtQzjnx3Gvx3OhAIDBMwbiMc7X/cmFUBxck5u958UbAKAbVsZaO7lMuwodBu9Zpe+rufUAYK6Z9maRdnb8t7Gqhe0uXIOuRwDgqOb6BTzSat23/No5dBBNbipFXQgHAEDnXMTkx21GUb4dktSbPL/9AOBFJPCeapGbBym+IHiIxjXoegQAjuqFEPDEvubn6/NoJRx7GQ9dJ83PozIXAEDXx1r6c5tNk5wKA0P3rCPvc5WbBN5rN7idzdOWk5OkY5/X4IVr8FEWkTQHAHbrM+grsI+x4HUS3fn0cE0kzQEA+mYV5dt38SbJRBgYsmcde7+r3JRzf5F2b2bu/gIQIw51fr1yfu2syU35e0lzAGBXHuiwL/N1P/TL9e8bIdlouR7nfBZJcwCAPrpIciUMWynfzqA96+j7bnKzqvrLWAmb9Q3/29zMjF85vTniNTh3Db5nkZuHbq9cjwDAI/oSC2Fgj5a5qSRlNfrHY5uLD8Y2AAD0l/Lt203SrkCHQfq0Jw8BlmkTVCdJ/rL+dTSA9lsmeReJS8qfhy/WP7Nb1+AQ4/Au7USWldOiUxYFjukceT/+nwgD7jF7NXaf6YVXBfpUzpv+a9bjx/n6XjFL8nz9+6HF4SrJ93nAyqM///2vzqA6fC0E0CvvkvwsDMCR+4Lfpt3fG/6fvbtLbtvoGjx+8lTug2cFgVdgeAWCRlM1vDO9AlMrsLQCUfdTJXkFoldg+o5VMyrDKzC8giAbmCAryFygESGMxD4Auhtf/1+VKu/zWiLZ3+d0AyCe3xu4XWCZ//aT/J//N9eCplId4qUyr+9nqBP8TNjcwnhF8s+LWeYaZGVDjse//ud/6WkAMEE//d8/qAQAY5NIdYi+lvkepOdH8XtrHJ4DAAAAeofD46Dvv1pd0Aj0v05+nnG9ZI2EOJbqEP3M/DeeWDnyPgk+MIBSnu5oiaTahJvi+HtuPH4THqUKAACAecnl6YluyVH8PlXFUfxe0MwAAAAAAJufF1LOQp4O8kSqw7zEbAS8Nv93PILPmZvP+kM4nMN8lEfjLzZjLpFqQy6WcR6oZ2ZM/pCnzUQAAABg7o5j39TE7q/l6cL0Meb8eSOXzoWvNgMAAAAAdPDzQstdyvOH06k8Haz/ajYG6v/tSp3EFyLye+N/Z3RHLERhfvYnxp9IdbAu4u9wvf4cpVSbbKU8XcBS0EwAAACAyAu5c3z082sjZk89fg4hlwYAAAAA+PQzVfBsMr5/4d8j6XaQXgiHcUDf8VdLe7wHYxEAAADoTxtXx9LvQtiMqgYAAAAAhPTzX//zv9SCXknyDgyOMQgAmDTibwALUsiMLl5d/W8aFAAAAADm7j9UAQAAAAAAAAAAAABg6Tg8BwAAAAAAAAAAAAAsHofnAAAAAAAAAAAAAIDF4/AcAAAAAAAAAAAAALB4HJ4DAAAAAAAAAAAAABaPw3MAAAAAAAAAAAAAwOJxeA4AAAAAAAAAAAAAWDwOzwEAAAAAAAAAAAAAi8fhOQAAAAAAAAAAAABg8Tg8BwAAAAAAAAAAAAAsHofnAAAAAAAAAAAAAIDF4/AcAAAAAAAAAAAAALB4HJ4DAAAAAAAAAAAAABaPw3MAAAAAAAAAAAAAwOJxeA4AAAAAAAAAAAAAWDwOzwEAAAAAAAAAAAAAi8fhOQAAAAAAAAAAAABg8Tg8BwAAAAAAAAAAAAAsHofnAAAAAAAAAAAAAIDF4/AcAAAAAAAAAAAAALB4HJ4DAAAAAAAAAAAAABaPw3MAAAAAAAAAAAAAwOJxeA4AAAAAAAAAAAAAWDwOzwEAAAAAAAAAAAAAi/fzanVBLQAAAAAAAAAAAAAAFo07zwEAAAAAAAAAAAAAi8fhOQAAAAAAAAAAAABg8Tg8BwAAAAAAAAAAAAAsHofnAAAAAAAAAAAAAIDF4/AcAAAAAAAAAAAAALB4HJ4DAAAAAAAAAAAAABaPw3MAAAAAAAAAAAAAwOJxeA4AAAAAAAAAAAAAWDwOzwEAAAAAAAAAAAAAi8fhOQAAAAAAAAAAAABg8Tg8BwAAAAAAAAAAAAAsHofnAAAAAAAAAAAAAIDF4/AcAAAAAAAAAAAAALB4HJ4DAAAAAAAAAAAAABaPw3MAAAAAAAAAAAAAwOJxeA4AAAAAAAAAAAAAWDwOzwEAAAAAAAAAAAAAi8fhOQAAAAAAAAAAAABg8Tg8BwAAAAAAAAAAAAAsHofnAAAAAAAAAAAAAIDF4/AcAAAAAAAAAAAAALB4HJ4DAAAAAAAAAAAAABbvZ6oAAABg9BIRic1/RUTOjv69FJEf5r+5iGRUGQAAAAAAAAC0Ux+eb6TakB2TTNj4BQD8W2p+TtmJSDGyzx2b9baWS3XQWSvN/8+3SKoDWFsdsg4PKxKRtYi8NW0VKf5m/UwbfhKR/VFfQ/dxWoxwbgHQXzMf1qx9iWVefu41mD8ALNX2xL8VJneDfp0idyM/xrxyTvoa6I/ACNWH5+8VQcIQGJgAgGOpiNwo1o9ihAHpjeUzn3vcENiY9T5hHR61SESuROSD6A7MbWMlFZE7qQ7Qr4VD9L7j9FZObwADmKZmPnzj4PVOvUYp1YU5hVRPDMkkzMVzADAUWw60o4parVPkbuTHmHfOSV8D/REYAR7bDgDAvF2ZQDiiKkZvK24OzY9FUm0OraU6/L2nqgFgMJH8+wCklOoip0/C5hQAAFPMuQAAwIz8hyoAAGCWIhH5LNVdxxHVMWqxiHwX/xc5RKY/fKVPAMDo1uyNmZ+/y7+/hgMAAPRfa78KF5YDAAAFDs8BAJinz8Lm+xSkUh2UJIHf87fA7wkA0EnMGv5VTn+/LQAAaJcfp1QDAADQ4PAcAID52QobA1OwkeHuAo/Meyc0AwCMUirVxVUbqgLAjJVUAciPAQDA2PCd5wAAzEsk1Xe4tZE98/8rqEqvUhF56Pi3pYjkR/+/RNofwkfmM5wLG5cAMNY1/UFEXovINdUBYIZ+UAUgPwYAAGPD4TkAAPOyEd0h6k5EPsq/D2HhXyzVYwPb2IvIF6k2cooXfieS6lD+rejvVEykOph5R7MAwGhdmTn+kqoAAID8GAAA+KU9PM+kuisJAACM21vLv5dmTc+pqsE8iP4u8b1UdxsWit8tze/vReRWRO5E9733a6kOZu5pGgDonQ/H8vx3lafmv2fS7WkhG6nu0GSuBgBA7z35MQAAaIs7zwEAmJfU8u/vhI2BIW1E9317pVSH5ruO71OYtt6I7vHwN+a9SpoIAHop5PkLnrKj/51ItaG/Ef1B+p15HdZxAAB0EvJjAADQFofnAACEUUh1N/Cpf+8rVnyGjKYY1I3id0pxd/fDzvzXdoAemc92zTg9OU4ZPwBcyc3PrZmj18q/+ywir6g+AACsEvJjAADQBYfnAACEUYjI1vN7xIrPgOFsFG0k4v7uh5153xvF57uVZd99HmKcAkBTaeb9K6nuLNes9Rvp/mQSAACWIiI/BgAAXfyHKgAAYDFyqmBQ7xW/cyt+7n7Yin1zKBL9nY8AALfuReRS+bs3VBcAAL19owoAAMBzODwHAGA5/qQKBhOJ/bvOC/F71/Ot4nfe0lQAMJid6O4oj6W6+xwAAAAAADjG4TkAAIB/qeJ3bj1/hp3Y7z5f01QAMKhr0X19Bhc7AQBwWkIVAACALjg8BwAA8C9R/M4uwOfYK34npbkAYDClVAfoNmuxf5crAABLxjoJAAA64fAcAADAvzPLv2eBPscXxe8kNBcADGonurvPU6oKAAAAAAC3fqYK4ElsfkSeNnWKo585lVGOyjg1kbx8WDK1Mp0qSyki+czGWPpCGXPRbboCQ0jk5bsAsoXWSai5SVO/vw5YD+kLdbP0+ey5mGPq9VOv18+VLZvgmv1S/DGlOY25eVx2InKlaLP9gPPz1HKF9MS/TWnOWUruxtzjb26fWj+Zczw0x76WvjC/0kbTXSOnnm/MYe3HvMwhd8T0zSGuOlWG3uWYy+F52ljkn6sQn4nBxtJAu47vncrpDYqdImhNpdoAT54JhDIROXc86a+l+u69VOyPRirNZ/gm+jsrXATydyf+/doSNMWmvc/EfpdHJtXdffuRJqV1e9VliZXt9UXCPFa4rWbfixW/r22frYexbeuH55a//dCinLmIfBpxPyQ4br9W2dac15a/P7P0a23/7xLMNMeppu9mpv/OJZm1jdk/A36WzNIOScA6aa5FkWJjw/faagu8fcaUfeKq4mht8+3riX/7dCJWiMw89t7Sz24a7b43r5mNcEzXbZQo+m+zfcaShCZHY1A7N38krgjim9gPz888vn/b+Ho/sj4em89ej9FY+Xd5Y7yOad7ZdMzdxjTndO1b2pzmVJzcNXer9wBeWnt3yn74urHuNdcM1/sycrQ2Jcr+/k3CXYjTVmrihrXo9pn28rTPBP97FG3apzmed47mJlt+/DZgfnxqvtD+fT0vnj0zX4iI/OR4naz3lzT5X9GIy3NLn0hP5KE+19Y2+aXP/YfUElv/GqhfjmENa36GXOZxZuM77yqO9j7KOfTH1eqi2Reea/fycHjMPdW/rQ66zk2uxthL834pIv/1tIehyf+LRo43lrwokaf9JE0ZZLW6KJvx7uHwqB73P/2v//U/RKoNMFsHOpfx2srTJttzbsXtIUCTre7OO3auU2V6qT0is8HyXpGEumrT2HzOTc/X2Zl28rlopXJ6s/fVC++fmjKmHd83M2UbwyRT95EP0v27n0qpNk3vR7ARszFtE/fse9cvlOW3E6/ddWzb+uFPJ5LZdORjbCxzfp/28cnW9pq16quEe0TrT47KfNPzM49pDu3jL8u/+4xV2vYj33Ffatah9Qj7xZAxpau4qjCfczdQf36ujlzEH2OZCzYm1p7ymszcPL558aW4/Q/L7+Qi8sZDrqDJJ8fax12sMSHnU3I3d7nbqXHsI3c7NS9sTLslirnU1b7MB/O+UY/+XveVoeOGuu4fevSXocdv6HWqT4w61B7Fvfncpcd6CZkfd6nHNvPFVHL0U/mUr1xqbGu/LacM1S/HsIbZxsUUz2zaxj7a8e0rrh68Px4Oj7JaXdj6QnY4PHrJt1arC1sddO2HU4kTk0acOMW8yFWO+o8xpTlE5zvP52Mt1UHfjaNOpOm0D+Y9Nw5eb2Ne665HsuciQDou452DYLyeSB8GLJuYSabuI1HPtr8xr7UeqCypef8HB/19c6IsxQjG9lZEvjtICDfmda6YLhFojfjsaDOjnkO/DjyH+hbyUelDzW1xoy3XjvrF55n0izrmcBFXxWZ9/C7j+P76xHyWvvHH0G2emnI8OFqTh4h7m2MwZQyOXqkcXy7zye+O8skh4k6Xa8zxfPqbhP9++bnlbt8D5G5jkDTy1FBr8LYx3qKe/f1uoP7+Uh4ROxi/c88hprxHcSXu9hSnKGnMjUngseUqDrwbQR3Oae1f4ho2V6nDuqxjny3VyrzfYd6/M+/Zd61txlVxwDpr5kSu3ncjIr+tVhcPq9XFyRiRw/N5uJOwG1epxwD3Ssax2RuZyeDK4WvWi10yUFlcb9DWgXfoYHnrYaKuyzK2QORB3F4dWC+aD0yb8GgtfjY104HmUFcyRRAdyu8DlH8jbjbZXupvU07uEw8xRzMx2wxYtrrdY8dtHnojvI49XPezq4Bl8TkGvwsbbL7kAWPOzx7i61B5qq/+XYsl3CFBM8fykbuFzgN8zJ9jzd18rHmadf7GcV8J2d9fKpPLPCJlnXI+9lzvUTwscI9i7Sm2tOXSrnP0kLHsc+89l7V/iWvYnOdJXweMN6aNIqp50mMs1Lxfx1RXHtaTEPtMkfg5z/pXm6xWFy+2yc/020nKG//3g4TdFN0ECGrrAOVchvmu28hjEBuZCeZSwjzmIhH3G2HPBayRKZPvdrnz3N9vpLr783IE49zn2K5fdwzlxPyCwQfP80DIOTSkxJSvDPBemeXfiwnNZ811e6i4oY+1+H8yTT0mdwOVzdd4qdu89Ny3Povfu04SqTYzffbfO/F7B3A84TE4dr7XBJ95T3MuiD2O15D5sO+8JxH/d6KEzAN8t82YcjffMfAQ8UOoPP94bfdRJtYpN3zGRBuzRlyTM0/u/dJAcflc1/4l9sm5ChFXJwOMNzDvP9fXfe4z+YwJn40RV6uL88Ph8V8xIneeT9OfjYGwmelAD7HgnEoIfL9viECvnmjimfSNz4H6e+hx9VJwvglQzqVcQYv5rRFTfIxYrviddaDPkkl1t9ZLPzvHbRViTh0ybugzZkI9OSjkBlMpT4/0ChHnRJ77VBqw/8ae2v6KMYiB26wer1Oe23zHO0nA9ggRs4Vqm40M/7VUqYTfEA0VP4SK76MAZYqErxrpYxsgJrqS+X7NXNaY60Puw4Qaw4kZX6H2Auay9o/BWjg4n2pczXo2DYnM6+Dc93w8RP+OpDpA/9f45c7z5Q68ItDAy5753FGbjithrw5ukxD0KVs9wRRivwOwz6LddqLJ5Z9XrqUt+8gPEbn3NBmnHfret8b//sW0keZ17jy1i0YcMJm6EpEvA5YV7eWK/hNb5v7Cw+fqskaUR+WxffZjX0XkjQz3/d1taR6VfiPzuqPe99NCXlr7Xsn4r8JOOs712VF52yTnPuOO43nK991wzXq8ET93KYW+SCeSatPxjeO4tu0Y7DM3N8sw9jGIbht8x7lCm/ynzl9d3bl11aF/15//uRyhTVk2Zl3fOhz/XebNvrmbyzL0Xf8zU54/O7TLjYjsBxpH9bwXMn4IfcixMTmjzzq+kzAX/de5Nk9g6xZvhcof9i1yvLHmx6fmiyjQ+6Ud5ovc/DRz1zNlPJia+SLz2F+6xLYu135fe55DiYSDc5f7ECFzxzoeeEf1T6JvhNJl3j/O/6OWffmusXYMkRPVn784Wrtem3UradNWq9XFq8Ph8e/8isPz6ep7uNbm+07bJGiFiHy0BLuJiLw3gUek6LghNuEKM6BuLINxJyKfTkwIiVRX7X1QDvS6bK6D9TYH5ztLMpyaekmV/TITtxc7rFsEx5lpn53iNT+cKFMUMDk8dqMo4xdTx9kzbZWYssUt3i9jSp0M2wHR1tKHPon7TVKXa0RkxueNog/XQdX5RNpur1i7Y6kOA+aQkG+k3Z0jezO3FY0NjqixqfFeGfRGMv5N0Tq20azTmtjDtqY1PQSIqVLLZylMe39rJDnNMZCKyFvRP4nhyswrLmOpbYv3LxvlKRpratwoz3vlupw4nAPSFrGMZm6+Usa3sbCR43qN9ZVLal87M/0je2HuqGNPTby+ETeHcHGLfLjOD/aKua9NWeoL3lzMPW2efKbJ3T4o57D60Nl17qZd/wsRuXWYuxUDjFGf38P4XDnbbMAWpu9n8s8DwtSMobMWefbDiTmgrzNF3FCXI3tmLkhblmXTeD3o+7ktjv92Yo+ijuva7FFoY/kx5senYtY44HyhvbCnNOu8bU3TrJE+87CkRWzbZu2vY3Xt2r9XrDdbS79KLfP5baB+GXINm/scmbQYb/XeRyn/fCpF1HK+XJuf/Uz64xzdBBxjcYd5/6U8IJL2e7NvAo+lnSlDrvh8bcvy914Gj22fptfS7qryTKpNuFsTxJxLuzvbtIcit1Ld7XVvCSRyE+DWv6sZ/L6vhCssQdi9+bzXlkGZmwXlleg2hSIPZdsqJ5rMfM5Ly2fNTJ85V25IuLxrWtv2Zcu+vTe/e30ikN4MFERuLO11bvpjdmKsv7KU7ThISgTwn5Rr1ojSjOE35vc1/XczkboqWsyhUx+TcYu1YGf6xTvzf2eNuatszGtvRP8kms3I6/BBmQxrYw/NmtZsG98Xh32wrNV1mfbPjInC9IN3ps3znu/ZRdqijm4bsdTuaG0u5OkrEurf0azLLhJs7dxcHsXkp+bmbYvYfS1hHne/lHXWFs+3tRbd4WbeyAH2J/pvbvq3dsy6eDLFQ4v+XecHpbLMdVkKR5/D5ko5Xtrkbu9a5G4Pjvtrm7Z51TJ3e2fJ3YYYn23eNzPlvW30zTZPTtFeeFeP3Vdm7s6O+kL9OS5F5L8t9i2uPNVjqogbti/Md0WjLK9azInvWV6ctNG+Ecef2qO4bsR/2j2ReIb12CZezRvzxW1jPW6zTmrmi/vGGCsUn8m23kdSHf75oMkv63mjzdqfNf7G9vuRDHejjY+cPeQaNlcbZT2WR7nj/mjOzJ+ZL0tH4wLD5XFXAcdYl3k/P9Ffdy3W7kT6X2CRKMdS3hhHmtyzPBwed4fD4yvR7TOvV6uLv+MeDs+naa34nZ0ZZD81BttWnjb2CuV7bcW+AV2a4KntIKmT5ktlmdce6/SloKE0iYB20Xru7zSJyMZhOTSB3G2LDZXmJK7ZFEsdtpXmKshc2l8Q0lwwTgXIY0nYrju0l61sbB7AhSvFOOmyRpTm9zXrQ8grOfv6qPy9qX9vsCZor9fJyxZzWyb6A/QPI60bbTxz2SH20M77mnHbN0l8KcFps1bX6/teuWnh6rNrD37qeU3bRnXymSs+w1XPcrSJn+49xe48ArK/xNP4vFP213Npdzivjcn79vFE7IfNZYf+fVwWbd7TZz7V5m47j7lb4nAO1cw9fdpmb1nn1iMcozsT79T7Mpdm7biXdk9suxLdRRY70+7asduMxzSxVaiYu0vcULTYF9gId1v2dWn6Tts9Cu0TkDYzq69UdBfEvZPqopY3jfliK88/eWGIfEOz3m881Z927d91fI/MzDuFom/GM+iTmjK4WsPmKlbG1XmH3FGb28cznC+XlMvtA8aJdczXZZ9Js3b3jRM1e3h1nFt0eYPD4XHbIuYVEQ7P52gvT1dfZD1fK1Z03Do46bNg7pQd1+fVVC8FDdpN21MTzK2ybC6SN81GZX0hRRelcvF20VapIuAvRX+lkS3wf65MY0ioL6Xfxp/msalrAbrNmzeKMdpnjdiJ/SKkeEJ9eKcMUiOpDtCvJtgvNi02Nrqsr9o+NdZNDc36WN/F3GdNswl5x0Qu+ou5uq7zkbi50/lK0W8K0R2C94mj+lz8kYp9A6VwMDfb4ttY2MjpK1H8zjcPfbzOzbqO2WtF3+qzuaK56LNvftqcf8TjeNVcAHgv3R+Bq51zXKwJmrnHxd7B2HO35uesD7/2PV8rEv1FFl37imZejwLFpn3ihjqOysiBve9R9IlVNf307YLqs+7ztie9aOcLTb5x3aMN28ToroRc+zV7aB9m3icz0T3tZuk0cVw9vguP6+ENTTHJef+NmW9CxIml9Dvj0qzdfeLESJFHZOLga0EOh8ed2M9Z1qvVRSzC4fncXEv7Kz/7LgLvHAVLO9EdkGwC16eLsm0Vk5OLRDQV+8axZoLQBsm2tkod9D9N0uaijXIZ5+OG9j0Tmnpx2SnaK2EKhYcx6mKNuFfMoVNJFkrR330eSbXx8VWm9fjjEHN3valhSyLHtqmxEfuhVd+NrHpNu3XwWVz1+T4b4PVraJ/k0zfp/OCo72leo2/y2HUMuihDHd/axjFPtunnrXK8u+zjuYNNCU0f69PH15Z/vxV3m/ma+XTd8bU1ue3eQY6imXNi6X+QqH36mavc7XLEY3cn7b56xOZK7Psyewd1shX7obPved3VGqWpizOWmc65Wd9Yda/I7xJZxtMBdtL+SS+2+SJW1P+9o/c7dzBex7j273p+njn0yYLprncc5yIX1sSisbCnO7UxFjpOdHHGpVk7ul4gvVaMJZex/61iXK5FODyfkz53p3ZdBG4dBnh1EG57vVAHJJnj+tTcvdF3k9/294W4OyDWJDt9EutU7Jvgmbi9AnLnuD+72DhwtTBonn5AoIUxrxFzuvt82zJoTaU6QP86gTJuxL5Zc+9o7i7EfiHC2OrLFsO4jD22Yt/wCFE/XR4F+VLd2OaTvpvgmqTT1cZcJvZNuS53XCWK+Mnl5qItTkllnt9ZGmqd1YzR3HEff+fo82vm6A8d60Wzzri0U3ymLnG05kIXV7mAZs7pk7tp5h7X+bUmHx3CTtxu7kXKPN/Ve1566u9t8tbCwesUij5P/tutXm8dtrUmD5qzer4oHb6mbS4vxe2NI65f76WxaotfXK/9msPKeMZ9Ev3jOHE4vu9l+IvbMN04cS/9L3przo2l5fOsO7zua0UZCleVdjg8lqLcj+HwfB7uHQ6C2kYRNN97KMtYDkhcBwul2DeQIul+B4amXjRX1bhsq434fRzj5QTavY+PDturEPvm6msB3K0RpeM1QrPmTOnRfl2SqFREPovIb6I7ABmCZrPm1uH72fpELOPZ1FgrPovrNei2Z3u5GLcu49NPijHSh+aOXJfzmo+LPzQHLC7LkCvaeO6PtfRFsyGXtdxEsLWFq0Or5hxdWubopEPOY6uT0nFbaOLoLuWwxVLXjsuiuYO+a2zxwcH7+8hHQ8s8rOWadnGZ52vW7rWn+nO9Rn1xPG7htq/lijVnzm2Ue5jDNPnGR3F/R/FO/N6lbJsDfa39S+ufe+HgvE2f3Cj65X7kuSOWESe6vmDK1he73gTQJ6br4pvmM/2nxaSQBv6BfkH3kYhqNldKD++bi9+r4ocM/O4Vddb18Gej6Cc7D33PFgh0Wbw1QYivNipkPHef3zt+PTYP4JJtHnZ58ccck4W8R9AcS/U49z+kOkwfS7ljRfzmul+UirUtnciY8bGu2V4zEb8XF3x0/Hqa9Tnq+Nob0R1OuJ4Hcof9NxLdhZSh23lKc/NYpKK7oLbNGFtb+njpIfbUzNGu87rCU5vY5p+2c+laUQ4fudvO03hdK+rPR47lo5769Pd3Hl73wwB1YMsbfT3u/FPgcUsO3L6P7x2/pu315nyBv+s7zkXs+4k+1nqfMaY2Hs49va9tDklmNr45OG+XO2rGuOv5srTEohFNs7gxZosTdx7yo3tLX1x76Iulh7qzzfGRiP7wPJGnR4aG+oE+QHHdgWyd3EfQ3CZp8jEI2ySLfQb6zlPZ3iv6yRB11SWxThW/89Fj+38cwbjeexjXqkUBUK4RsSKYcq2wrD2RTOviu7303zRZS3WA/oeIPAycwGsSSB/9wna16Bg23SKxHyx88tjPbH3Il52HOcA2XrqOgbeK9/YR+7q8sM0WQxbi55AptyTksfDo9jYSM6+L4z75XjFX+NiUsMXVU1m3f7f8+6+Oczdf+YhtzulyIbcmf/V5qPJlJH3Ex4WjsWId8FG3trnFV7zpeo0qxb5hTA487B7Fj4W2z078HPiuFe9beixTOVB9/jnQ2j8nHwdsvymyxXGZ+Lmgc6j1GW7GmOs+MVScWMqw+0xOmEe3n2yT1eoi5bHt01aIn00wW9LsI2huu8j4GoSaCaDvZGmTtnzNROybkr7KtHdcFk3/y8XflaUh+rfGN0/zBUEWXLBdFOMzcbaNjXRidbkTkXMHQXQk1eH1d6ke676V8IdVQ8UO2QTmNlvMUoi/p5586jmeu8rF3xOKfEgV/VcG6L+/Oh6DPmOnOc3NQ0mkOjiPFL9767iP+zqsLSzjNhG3hyO+1r7c4fvGirXJZ+5WOh6rZ4q6yzyOmzHkbiJ+LhBcK8sfen2KPIy1Qvw9WW6IOWOOvtE+zvhYc1PFeur7RpH9QPXpK5/JBnrfuaxhcxUp4jhfF8b/UMwDGKfdAHFiLv6eyhX6KUWRp3JY6+dn+u6k+QpMbJPtp0Blu7IMwt2E6rQ5KHPLQnvW8nOkijL52lAoTUCZnkh24paT9Rj6XybDXiWVD7EgAI4CNJ93AO2lemT5nBLYXETeSHXnuIt5J5bqu3JvTH19FP9fR6FJIH31i8KsRS8F08kI2vhM0a999q9T9eMrwfbV52zxTNLhvVNFMvbJY/vYyjOF+OnLQHH7nKSiPzjPW9anrY8X4vfC1MzSl1OH82BdVte5TyGnL1hoE2evFe3rM27PT8wX9Xqet6zzMewdbAYcv77y7bOB3tfWT6RDjj9E/qstB4aL7WyvOcf28bXmpoqxUHgu2zdPc7EmXh772j9mPteSOVor63SI3PFXmmeUfM2/tovnfcbgtj6eOn6/M0/j6qOcvjiw4PB82nxc+RlbAtRSwnwn9Cc5vQmXTqhOj30R+waSy6T6W4B+mFoCWe0iEclwd9Efl2k94NjOBBinWDFGffbfQsZ/UNpFKdX3ZKZSHaLHjl53bX4yk/j7ahvNuuVz7s7l9EHA0Gz14/uRs7b6iT0kcz88leWHZX2OPLRPKf429UtHc1oi9q9cyj32sUzx+fByn72x5D3HLh33cd9x5w9F/3C5RlxJ9QQW1/GHq9e05W6+1wRN7tZmvkgG7l91mTYDjmNf+XY60PuK2B9XnDhuW19xw58Cl/Mg+vOVEw29tvic70tFLDX2tX/MvjEsW7F9LVwu/i5GsI2xmOYZJV/zry1O3HsuV34iD4il3UVNtt/biIevrj4cHve2euKx7dPmIzAZQ/Irons0no9FoRhBuyUtXy8duM0Kh+Wx/W4ZqI3yAcf1kEkpgRb6jlGfiYJmfEYT78eZiLyS6mDE5VyQishX8xMP0C8Kz/2iUJR/yHk1VrS7T996tt/U1rK2Xg/cPrY5bQqxoK3NE8GxtVQXS/0h7Q/O28apQ19om/f8fG378s3I+9zQ+bYmz3aVh4bKq/KB2zT31E+iActte+3I8ftNKW5YoowqcMbXhSLJCNrQV86nmes+EG9Odg2dmqHHWknOxRqqiMGLALFV0XOstFkbI5M7B8fh+XSVnoKSpGdnDjm5xAO8Z6j3SJWvFQ+cVGsmy9ctXisduCxjCB6LmY0pkCiEHiNz6Mc7eTpEdzkfpfL0negunQ3cL35nzHj9jK6T+qm1ke/Y11ZXmjnt9cBlcJ08z2W9TM3Pxsy7DyLyXUT+kuoR7ZuWr3kp3R5/b6t733Fv7qCPN+0Vv/N1pH0ukuEvqLLNOW0uZhi6LGPI3XyVMx7ofX3k+EPmwFOKR7AMPvp6JMPvC/p8n1J0F/SMde0fu4wqaCUdOO/KLeMAy5j3h87vNH29zXysye/WMsABOo9tny5fg2DoDfAm2yPlUsefpwzcfomDBS8eQXvZFoE2i/cvIwn4SbKBbmtEiAOa0I+RHNLO/KQi8l7cPZL0RqrvR3rnKJCPe7aZi3rKRrB2jDWpyUybv8THd6PlExpnQ8dS11J911afmGRu8eCUbC3jy5WuB+exjGdDvWv/PfZF7F+vFEl1ocKtiNyPKLYfy5rgaqzGPecF13NQLPMxdF8pROR8BvmyrZ74flgdn+2dybBPiQrNR0yWDNyGx2POR3t+FPuhSXPt3zJsMdBY870+XwuH5FPjIx62xS8h9mZt60qbfporY/mNGYfXEmjf9+cWBbimry9CNMCA7/perhOdPGDZbBNMIrqrbtIRtFfR8zO2CURCfmfZ0pI4YGprhIsAbSoy83Mt1YGBi8fSJWZz4dzB+hcrPr/vdagYadvZ7swaw13z8cTGgsuDylTZv8bef8cQD/6u+IyZzM9WqouREk+vX0p1oVPmaXxnAcdualm7S+Vr7cw8oJm7bqS6+OyTjOMQPRnBWO37Gce6xhUDrWe+xtDrEfSVkHP2UGNzSjHQkH4M+N6x8Fj/vvlvyLHsa89uLyJ3yly/Xvs/mpihpIuMom8sYayJDP9EJ4yLr/UrGUE/sb1H26cU3YruzvJEqieNZOZvvM5j2sPzkgl1dPKBBl/IoNX2XlNOdGx31f/i6H1+p99TRiDgGpGNYIzM+Q6SUp7uRk/k6W70qOPrRSbovJZudzRq+kT9uUmwmfNJeCnDXF1KdTGSazszP/eZQ2350ljm56RlDHEt1aPvtXVwY352Ut25vh/pmvBjYn3fVp6Qc8/cYo259RVyYPRZxwr6ee98bOplLM3a/9Ci39yZtX8/8NqP+UjJuTCSPNwWJ44hLo5a/v5O2t0olJqfQqqLpfY+6pvvPJ+uPwd4z9AJTehF59uI2lc7UZyNrM18l7uccX8fcmwDU2KbB+KF1ENuNhD+K9XBTdYjoL2T7psukfKzLlXcsz+7YOsb6YLbx1b2YgZlWPL4Czkf3zoes+dmbu87R9jmoKkewO2l20VfG6kO3f+QagN+Hfhz2y7wCzXnZD37zRjz+bkdJicjqlsAYfJYX77NpIy7Dmt/1Fj7fzN575quCE9YmzGWODGbaLnedVhHYjO3/ybVBe1XDnMZvvMcrQZe6EDPtuikNJnVjVRX7QwtVU7c0Yjqbo6H2DnjBj3Hsc3XAJ8joile3EiIzZy/aVlPkWm7Nx0SPtrDHsifckcVjVoxkz74dQR9/WzmfWUr/R7fXkh1IPwxcL97H6htEg+veWn6XZfYNjJr5cbkuHsJc1eabZx8MG0ydHvEyn5IXjHcHUUFVQ9gga7NGtYlroilOlS5Crz2j1lJl2rlV+oTEzGGvdm4w2sWUl1E/lW67TXW68OdVGcgn6Q6j8q7FpLDc7Tp9Bh/kv3cpDEnOV2nF+5qh28pVTD42nIt1R2QV1JtwmvX9kiqu/DOHa8zzNuMGQwf39PPwtA+vr00c2Mu1Vcs9UroLWybfLGM44ktXfPQc7N2bXq+90bCH6QvIXdbgt+pAgADO1tQWcvG2r+eydo/pB8Mn1Zi6hMTkU5gvLwkl34H6M28KhERWa0uCjGPdj8cHos2L8Jj29HGN6rAmYIq6BwoAwDsc+VWRF5Ju0cJp1IdujNvYynO6L9wKG8x515KdbHTvfi9yCieSN0lPf62rksX4zWSfz7edSvL+ToYct7xiKgCABOVBcp134m7r8x5bu1nHgaAYfPqNw7XlFjMo91Xq4uvq9XFWvuHHJ4DAADMU2mS/zbfG3QjbBZgulzfecPdA2hrK/bD8EiqO6bgzr1UGyx7h68ZmzXxN9NerI3tFVRBJ4nid3KqCQAxl7wStwf29dr/h1QHLaz9APogXuuXR5xLdaG0y5wiFZHPq9XFb5pDdA7PQcINAMC87aU6VNAE7pG4v/scAJbkUpm0b6kqpzlfIdXFYm9EZOf4822kOkRnfcRYlFQBZoInXKLv2n9uflyv/Ves/QB64utT+9tJdaGU60P0WKpD9K+r1UX80i9xeI6xi6gCAAB6K0ywWSp+9wPVBQCd5aJ7lOiN8B3XzTXKZf1fytNXl7h67Uiqu9D6fv8e4Ko/AgAqmee1/zPzLgC0zslc2pk53vXFUqmIfF+tLjbP/SOH52jjF5JCytUjkAUADB+8au6IjERkTXUB8itV4MzS7izbKuNf348DX/IdfYU8PdK1vhu9dPC6qYh8Fy580NYV/KD/AWjmeGMRj2jtP3e49q+luniOuRcAdEpPr5tJta/5X/PfvYPXjETkYbW6+NdXq/18ODzKanVhfYXD4fHZ/7/mb0GCNrFBOKe6PJd5HVwnsoDvC3lpvu2L+RqeZWbOwbjtTVullt97K26/OxbP+4kqGHUsGTM3o4dLqQ5ZI0tseyMi1wN+xt0C2iI3Zb2UagP8rflv1PH1Yqk20c8d5yZTy91y4SDB17wNAFpjeizwmGLnTJ4OWVys/YlZ+18JX50BtKLdj2bf2pkl7DOVJo/dmbVnLSLve+Ymm9XqQg6Hx79vOuLOc0xZThUsrk0jqggYNPm0JZOYBs3jhFNH77X0flGyro3aD6oAHhXK+fZKhrtDN15gu+zl6W6Fd9L9rrRI2j85oJxZXZYMcwDAwtb+r1QnXsBTy4Dh8u57qZ421veO9E3zEe4cnqMps/x7HPjzJDOu618Ug14jn1kdliP6LAQ9QPtEEtNZ723rTKxs04x+sah1GvQxtHMvurtIh/ouzV8W3j57+fdmett89arF79su2EmJDUHdAnDsNVVwcu3fd1j7t1SjM1Pae7XlXTHNiUAK+uKLSpPTvZPqSSHXoj9nq92tVhexCIfnaCf0wLMlhIXj9wu5eZRY/v135ev82bMOpyadcX8HphKE9JnbluhOqqvTX/rZDLhpIIHaM6IbsNZMdE5LZ1AGxt/wLpXt9ODhvTPW7Vbr4qVUmyz3Lf7uxuFcPrWLGYoR9a+zmfXHgrELwNFaHzIWnFpus5enA5Zdi7/7QIy9yD7zJ82FicSJMVX0dz3dHw6Pr6Td121FJsebzeF5Tl8IVpchk7TU8u+/O36/kGWzBVml8nVsvze1TYRvDEFg0msEAdrza0t64meoOnP1uOpCWQeMGcYMOYQ/tngwpakHT9o1j29fS/gLqhKa59n2upbqsX/aOULbbvnM2sOWj/MkL3/x1S9UEYARrvVTzW0KqS6g0679kQx3ETzIudDe0uImcrwjh8Njdjg8vjF5niq/W60uorkcntsmL5+PqIkWlqSFDIRsyXY+4XpOHJUt7/k+UxvLZyNqI4BkgXETYq0bar3XtqfmdeIFt6/t6vQzhsCo416RaWyCzC0enKN70T2+/c7xnGnrG5Fw59SputPeofB+oXHUmPYO5hZrFDPrKwD8scUXrPXDrv2YV/8QxXjD+MwtbrLdfMjXdbzgcHi8N/N8qfj1zc8LqZeIwaf2Q6q7Hk6Vdz+Sia2YaFtq3idXvlah6Puxh7o6FsvpDYtM+Tr5iMYbAQ/Qfo0IdRCYWubFYkR1ZgvI4hnET7llfg4RuG/FPFbpBbcyzHfTZZbPFTL2iE700VyWSTNXhBijXy3z2rkllrKVI1TyPKW5eQiXIvLdMrdGUj2+/dzhGlRa3jMNkN9FlvkuG2mblaYtvlvmgtiUzzaXZsp68j0nu8rdih5zgo8yzYntrv4Q8UNi+v6p+O8N6RF6YoPf3XoVWcZziLX2bCZ1eS4ivynqNCa+HTXXsYEmPgsx1vrmjkPJA7fXnBWKfhhCcmKeHG3+fzg8ZqvVxa1UF66fXNP4znO0TZRDBUKRZaCXHjYVokBls20ilKJ/bHsh43hszKnv9L1xuJDa+kWoNgKWKh/J2Bnjd4i/xPZ49GjE7Z056hch5u2xbrwVivYPUT8PjtZpYl9/ca/PeSbE3JxY5uaYJVT9+PZU3F7sM4Y5+srSP8asVLZb0qIfDN0eNyfa4sFxnBCiPMkM5wtb3UYB5tVIMTaAoWMgjCtPn0u8V4ru0b7Et+MWe+gX5QjGWqr4nGMdV0ONp7mtNZp8IkSZv8t09mb/wdyBbl07OTwnSesScIUYfOuen9PXAuSCbYM/c9xmIQ4UXC1wpYzjDgYCYKD73Ot7bbTNAdnE6nQOscQYDu7ikfaLQsbxmN6kR/stfV5LRzAPlD3LEAeI34mddO6V89GNw7nB9li/EBeIvO7Rv8dgJ+42/PIRtEdiWbfmNofONeb2XbepAJgK21r/NsBniGYWD+6ZJ4NIPPZHH2xx/FmAceYihqCfTZsmn/Q9P9nm+ynkeJ9s4+0/DBCvnWSKSsUkuw7wOWyB3ZcJT6a2+vvW8vVsv+97sows9dZ20R46EAn1HsAUFTL8BS5TC3rHENR2jWFKh2VcL7hfDL2upYpxvWTfFGMlHrjv5hMYg2c9y7Akl8r59UHcbPzlijki8lzmvrlCIqfvXA9x97qrPjx07mZrj7Zrgm3+CfGdsHPM3UoZ/kKLX3v2ZQDjyTeSAGu96/Vr6LW/lOldmD/W9ewUX/3S1/6AJo7zOdaSnvU9dj7qLp7p2LLNT77jRFtf1OROd5Y5/mrgOpS5HJ7PbSIemu1g2vcVi5HYN/h8BTC+y6YJWNuWba94T5991RYg/97y9WyByDrAwrcWAF3nKN+bpGc9P19omoDx7QCf68zRZ69/rxiwjKmDfuuTZl2LBqyfQpZN0zd8xgWJo/bZDzgGbf2sFB7ve9ym2seA38ygj8eW2D1X1lmq+BlyLnfVHvHMcrckQO6WznSuyAYct8QPwPzi2Y3nz+Aj1rSt+4nnMuV0rSB1GHnqO3PMHdOZ99lkIq85Bt8G7IeaOV8TJ/5pmeO97mEcDo/W8TKXw/N8oIHydqaDb68YfD4T4CvF4PO1GKTidwP7vYey5WLfkPR5mPXWwfhs0/98B/1r4Xu3gFNsF1glnteIdGKJQqkIGtcDfC7be2YtXy9TvF80QJ8YQ7+wrWuR5z7w1nFbz02p6CMfPL6/qzu2h7xIIxa3TyFagnvl2LuS/pt/pWIe8pkr2D7/D2UZhsj3fcgVcYHPOcf1mqD5fZ+5m++4c0jWR0l6rNtYUa/M7cC42Nb6D57f33U+o5ljfK/9f9KtgvDRjr6+wlQTx/mMq6f+tC/b54sHqLO5zvmxDHchRyluLrIcPL+b02Pby8CVHct8r1zJFZPZnaf3jhQB3d5z+TcDvnbXsu0U7xsNECCX0n4DppRhN7HfCwDbPGVbc288vffaMpdlI64zW0yxCfh5NGtC2zvsbBdVRB7L6PoiLtcKRd/0NWZs8erYk+tQPinqMR0gjmozFneK37kaqAxf6GLP0j6+/bODON7WBqnHPm6LrbXzkO33fG+M/RJwzhkqd+sSS5WiO7DxVZ4PM54jchnuQou1ot2JIYBxsa31PuNZX+uWbQ4c+usr4CaGSxy/XyR+Dw1tcU8qfg6BI8UYHvtXqthyHx8XPaxnPK6GihMTSx/X5hOZgz7v1X9m1mFCLqibmS9stoR+7anzXikCro+ey+5rYtEEk586vratTiLxs2FqK1PmsTxbD+WJhUe2Axo7xdzgI1mwzc9jTRQ0c/uNhHnqRSS6g9p9y9fdKwJ3H2WMFcn2lwn0gdhTbLlx0DeZ05767xCxoTaWKhXl8HWA9cFRGZamEN3j2yOpvv+8bx8vB+jjsSVnLMTd4flapvMVGEPNOWtLfLbv+LqaC+iuPPWvzcznCVubJOJnX8Z20QvzOjC9+ULE341Qvm5CGfvaz1yoj3lPcX1ms/Zcno8DjTVNzDP2Pvmt55hzHftO3UdFffqIE235v3YPTpMHervJcbW6sM0V5ZwOz0M+qjCSeV/hXCf0peV3HhwHKYno7jovPJc99pDcR2LfAMml+9XbhSJQvvGwYNjK1PXAYq/ofx88lOdOALhKFh4cv6ct6CvF/5NJ+iT9trUrDjQHadaCrON6pHm86JWH8kwhgdxJ+IsLNPHqWMdMaKXYD7NScX9I4/rrfDQXH7qeZzaWOaVtGZbmXjkO1w76n2ZzZe24fLY5us0cpLlA7spTOyViv1CrTT8vFHPOlbi/E8vVRleXvYMhctElxdwu44dUpnFhIoD28WziYa3ciL87A4e6OKueC23rVkG3U7F9Rc/a8TrmOz4oRPe1da7HhSa3L0feF2xjRhNzu6yzqdPE4K7z/1jcPVm5lGEvkrI+xXJJd567XFBD3R02dND1UTFYXB2ORMqk72Og8rtO7jWv17dsmr//7LBMV5YyaQL3Pn8bidvDubVw1znQJuC1jdHUcSJrC/h2I68zzd2FG/H/1SGaNul6N/K96DbPXSWRiaK+NMnEWPpA7DixscWrmbDh03aM3jmMD9eKsdB2LOZi38jZOIx3IrFvTn2ka1lpH9/et/9p5miXh3CpYo5u0z/2MszFtaLo56W0v0hEM+e4zHU24vcixNC5qKZ/LSXmdh0/3Cn6+14AjJH2iWeJw1jQ5wXgmrlmyLWfXEonU/yOq360lTB3GmvjuChgub7QF/7hSgZ+5HcApSIGT8Tt03s1e7Nli9fT3ITj+uYsWa0uYkUu8W1Oh+eawefiQHQj/q5qG5t7RWdfO+rAnxXBWybh7h6LxM33C2r7jCYpFgf1kzhqr0T8b5Zq/j51WJ4HAeA6WXCVmG8VrzP2A5qdMrl+EH9fs6GZ5zLpd+GTdvO8b7/QBtCfJtYHNuLmMEATe/DI9vaxmKv4UNt/u4xF7UaOi7nZdphbyvgvbBqDUqoDdFf9ps8cXfdxCdDH99Ju07kU+ya6yxyuOZ+uFWXxMee4zN1sG10fpd/FZpq9A1flicXtQfwcYm5X8YMm5t7L+O9sA5YqE913yD6ImwNG12tul1jS19qfelj7l9wvS0Wd981P1hLuqTSasRaLyFcHfTMR+x3U5UT6ZKGI/1Ppf+idyDKeUKSNwW/E3T6TLS9qu8+0U47tjasKW60utDnvfk6H59pJos+CupFlHbCVLRK1rvUSmYVEMyleBi5/4mCRS5V1c+voM18G6MeaeinN5N13Qb0dSXkAdBuj9RzfJwnaKILenUzjqu9r5e/didurlO9azJPXPd/rXtEWfftFJLrDP01CO8Y+8NAzMUjFfkiSC4eaL8VjtsQzcdB/NXFH13ktE90mY9+5WdNP+x7GLclemcum0u/OgXtFm6Q916C6f8WK/tFljIaM7bV5RteLkULlOrY9EBe5W6ls077licX/Yc0UY+56Xt727O83jvotgHHnG4mIfHcQC6YvrAeu4/Mxrv3Mhe1jXU2f6tqGqYQ/s7kO0De1fz+lvEvTF/rccOFyPpiCskWcuOnxPpq5MZP2e3Cl6Pam+n5+Efn74FyzF5IdDo+zemy7NmlNpP1mUSTtNp7n5F50j6DbmMArbbmwaf/mVvwejJSW/pJ2eM0r87c2mbjbwNYm1hvRbWq99HeRor1KR/2v8Fie9YnylMJ3dAIuxmhk5vpty9eOTMBsW3tL6X/gGzJJ2Ct/t15X+wa3v4n+TvZbB/NeKfo7KOt+0SapSc28vXaUzA7RBzTJxIOJPdsmfFvlOj2VMdMlDgoRR9Xx4VXL169j30Qxjvq00bUiDos6liE2c/NGUZf3LJOtaB/f3uepLto5etMxB9L28Z10u7hJ268S8znWHespVsYgdS6XdXwf37nbWvQXMrjI3bYt9w4Sh/1r7rnbvbJ8N+J3v8v3vgyA/nLlWhm1yKuO18ivJ2LB0nF5CtHtmSYdy9Nl7d8xF7bm88xGmwP7GGva3PE3ab+3s1GWa2p510dlu3bJRa5kmTfIaePE+kLLqOUY08aJXW981Z4jPUiPJ6esVhcbMxYT5WcS7eF5ulpd/PXcj4j4+tl2qIO9sqPUybTtrqXEdI5TG8+7BQzAd8oOXC9yv5n2S19IeOuJTLsBkIvb72Z46T0yS7k+K4OwepNC8x0dpbi/o167aZGatnqwlCtqbHBorgLUBuriuH605al/t27T6MRiXgqm6qvH9emlnyUqzRqhcdNYT2Pl2quZc28nNlYvW3ze2Mxpf5g60SQOa/O7f7QMKl2utZnor8S/OZq74xf6xJVZh7TJtIsLAYaOq65M3dxZyhw3fldzx9hexndHviu/O0o89y2SyHp8vtR/00b7aGPfa+k3r2njp+go17HNzQ+iP5DsW4alrqnauLfPnTl7abcJXedA0Yl+tG6R35XS7+IQ7bofm8+uXUPrteZzixjERS63Vc7JbXM3W65TKxzn2tr6aO7JaHK3z3J6M3TuuVvZIoZMGzHT1Qt9P5anr+DTXmjpMs8H4Jc2F4oa8+vGsmbEZr04dRNULn6+GkobVyaNddyWQzXj9K8t1/5rulinPYJM2Yaa+CBp5DE3J2Je37YtxtpDo2+mz4y3SJ6eIvdbi3i/zR7TGBTKXCRq5Bdr5X7ISzcgZAsYY9p9pnoPbiv2faZtizixzwWWhej3EDfmM9U3G8WWPpSuVhd3q9VFmzF1fzg8ZiIiP8+wo1yL7m7furI3LwyiVPH3pYh8E4fP3B/xpHYp+u8Vi81AdPHdEqWInAcMLk+1+9r8lGZhzEXkz8a/v35h8bMtcIWHsrwzk0jUchzkRxNtLO2u5inF/cUAmRnXdz3G9TfTPpFZGGz1ksvTlYsA7OPlUnRXIcZmLN/J83cIacbn8fxwP7H6qte1NlfDRiZYvXphrpbG/Na1DV2vtVsz766V5ds4jKcy8X/RnYs+8L1D22c9x0wh4b8GZ4ouzXyVdGijvnbi5uLcvZkfNZ/LNjenHcqwpxt1bre9Yu5MTK7VdfP22ryGpo+vG5+nOMpduqw9fTf42q6jtjU07fFZrh3lcu+k2gQKnbvV7z1UXOgqdyvMfHe2gJj7ukXdptL/O0OP8/xSAEwl57xssVbW88VDY23Jzd/GLdaXa4fzTtf8qV4Pfa39zIX94iZtGz4XH7Rtv2vp/iSCNs5bxHGx49zxVqZ5MFy3TZv56bmxrN0PuRU/c9OYFKI/v4vkn2d32TO5ZtTivXPpvwd3b+L/jfL3k0ZMfLyH0SUnapbl74P8OR6eZ6aAbQ9u044DvZBl2LdMgl0GR+XI+k7kKBG9FH8bi4W0P5ypJ56+i1/uoTxtJ9DjcZ227HdzPViY+4YShrMzY7RNAhD1nEdzcb/hG0ou7S5Kcz1XH38WX2ttmwNIl+V5N6E+0Dau6jNmStFfjbx0ZSOOCtl/d45jkGt5ujgl5NzM3Tj9585UEcNficgX6bZh1rWP99mIcJn/1P2sS26aOGynnYc5J2Tudukpd9uZvCNE7iYLW9vqPhf6KwXfCV9pBkwx53wn7W8KSTrOxfUhXuqxPF33pV2u/Xu61iRy4JAXOXSN41zEBNsJ59td9sS6jOV7Wcad5yLdz+/Snm3pag+u3gtpm0P03cNozlHnh8Pj33PHf2baUbbi/3Hql7KMR7YfT8qhEtPCLDz5DPtOqP6TB6zDMkCZQo255gUA8QDj7BfiaUzUtYS78KSe38oJ19deRN4MXIa953osA6/lU+sXu4CfN3RbzEHoOtt5mkMvRf8ItL6yGczNY+l72r6geSy3rY9ngcrlOpYPmZuGyEtyExfkEy7D8evfByrH0tY2X+vFS/PEO1nOpjMwN1mgtXInYQ7x6vlvLmv/Eu0CxAc785MELFfovYiQsYAv+wBl2MnyLuwOOU/W/b6YwVyby9HBuch8D899V/SSF8y9+N9IzAJvHIj88+oUn4l+Gbj/1JPY3uN7FOY9doHG9bXHtjkuRzzAGEsEmHaQ9kb8PpVlJ/M5nMllmAPN0sylITZSStMnfCfI9xPtF3XMk3nuZ6+Eg/M+scHe8/vcet442AYYH1Mdg2POuTT9LpJ+d6DWffzW8zh65ylXCJGb2vIFH3mVzzWzMOtOiNytvrCyDNSvooXF3L7juBB7CQDCxBSuDzeOY8CQh3i7wGt/yHVzKa491uetDHeoHCLvLk355vLE1J3HsuxkuV9ZF2KezDy+R8gbAP5eJ48PzkXmfXjuo6ILCXdIOGa5CRxuHSdrpVlAx7Dx5uNQIRso4Ko3Ft55CJbvJfyFDvV7Zh7aJhMALtcI10nrO5nfd4z5WlNPBYUhDrOfW1d9bNrUsdn1hPuFrzKUpl+9EQ40XcRRPuaeevxvA5Qjk2oz595j/4X7XFbT59bS//sct55i4XrN2c9gHd2ZMeQ7Xyg9rpm7AXK3ncfc7bhfJQubI3yOr9sB+goA/2ulyziwzs+vByrPeYC1/5650Guc67Lv1DnbduBylR7j0jr+2c2sL+wc59ql/PsCg2jB8/5Uz+985af/WscOh8d3zx2ci8z/8NxVRZeN5CETNOv2lYNBWNevjw29vslo/Zn6lC8zE4rPKz3blOfSwefYmdca6rAib9Rp1vN13o2gbYC5KRtrxK7nPFGYucb35vtc1tRTa8C5+LmQqs166GodasYOc4nN7j3EVVuBy6Te1RgtzDgIvRlXJ7r13OyiDHMag2NcS7V3SzxI/ycm5Y11om+bDrHmNNfRwmEb7BprV8i8x+WaOVQZmvOFi9ytIHc7WScu5uId8QMw67jCRRxY5xov5ee/DrDn4Hrtr/OyKV+gPaX810V/fCXj2i/aytMFK337UL6A+Gcnbi4MeOl1kgWPs62jfYxCwp/f5Y0cYu/4dS8Ph8dXh8Pjydf96a+//pLV6mIjwzye2JYsZo5fMxaRD1I9olszaPYi8sX8tzzxmhvLoO0ysaVy+ovufdRPX2sReWs+d6zopJmIfAu4uKUi8vXUeDjxb5Fp5/fKvlOX75OM9wrFtNFetjIVR+01tuAxPup/rtpm62Fs2+aM4nB43PmoJMVc37VMQ/TddISfa9uz7V3M62NdO6KjMRopYoB85HOobxtTX+ueAeGXEY/ttYicmf9q4tDyKDYbYn4JOYbaxlW557ppM99tPb1viHnUR/s0Y6lPI4rh6/j2rMXcXMeCc5ubbTFSIcPd5XElurslXPf/xOQ+mlyhPOofY1hzksY6k4j+jpM6BgmZp7pujynlbra2qXO3L4r+PUTuNlRs7SIvbpbhi+exO9a4Yci53fU61acvDtnPfe9RhIztp9bfosY6aYtnm+vKrkeb+p4zp7L2hxpzU1rD4sYeSKJss3qvo+xY/lD7JJG02w+rx9xewuyJja2ftI1lclNPp+IYX2WcWpwoR/l/rKjbbER5UXQ0xyfKvyuac/zh8Kge9z/99ddfvT7xanUx5U2S9Oi/panIUngki8v6Pe6sxYCfp+vh+XOvFR9NMkUjoJxLe8lEyxM/swCMblwfDo+Dvv/E529MW/RCkDPkGjH2+TkRkddmbjuuv+b89q2xFhUT7RPNjY46LqNvPL9OE7OOr/+mz8RQdT+eYvzE3Ax5Zm5umkr/PpXvTDHneak9ppi7PRcXsr657SfN+b0U9r0A6NfJKa3zc1/7l9gX63VsTmtXvSYfxz/ZTMac777QrCvGsPsYfGpxeDPGPVZIdZNi5xdf+uE5ljfZujo8B3ob+vAcAAAAAAAAAAAAT/5DFQAAAAAAAAAAAAAAlo7DcwAAAAAAAAAAAADA4nF4DgAAAAAAAAAAAABYPA7PgScpVQAAAAAAAAAAAAAsE4fnAAAAAAAAAAAAAIDF4/AcAAAAAAAAAAAAALB4HJ4DAAAAAAAAAAAAABaPw3MAAAAAAAAAAAAAwOJxeA4AAAAAAAAAAAAAWDwOzwEAAAAAAAAAAAAAi8fhOQAAAAAAAAAAAABg8Tg8BwAAAAAAAAAAAAAsHofnAAAAAAAAAAAAAIDF4/AcAAAAAAAAAAAAALB4HJ4DAAAAAAAAAAAAABaPw3MAAAAAAAAAAAAAwOJxeA4AAAAAAAAAAAAAWDwOzwEAAAAAAAAAAAAAi/f/BwDa2+IL0rxY+gAAAABJRU5ErkJggg==;" vertex="1" parent="1">
          <mxGeometry x="280" y="170.98000000000002" width="228.45" height="89.02" as="geometry" />
        </mxCell>
        <mxCell id="9p8DOmJokwP15oGAAXyM-45" value="" style="shape=image;aspect=fixed;image=data:image/svg+xml,PD94bWwgdmVyc2lvbj0iMS4wIiBlbmNvZGluZz0iVVRGLTgiIHN0YW5kYWxvbmU9Im5vIj8+CjwhRE9DVFlQRSBzdmcgUFVCTElDICItLy9XM0MvL0RURCBTVkcgMS4xLy9FTiIgImh0dHA6Ly93d3cudzMub3JnL0dyYXBoaWNzL1NWRy8xLjEvRFREL3N2ZzExLmR0ZCI+Cjxzdmcgd2lkdGg9IjEwMCUiIGhlaWdodD0iMTAwJSIgdmlld0JveD0iMCAwIDQwIDUwIiB2ZXJzaW9uPSIxLjEiIHhtbG5zPSJodHRwOi8vd3d3LnczLm9yZy8yMDAwL3N2ZyIgeG1sbnM6eGxpbms9Imh0dHA6Ly93d3cudzMub3JnLzE5OTkveGxpbmsiIHhtbDpzcGFjZT0icHJlc2VydmUiIHhtbG5zOnNlcmlmPSJodHRwOi8vd3d3LnNlcmlmLmNvbS8iIHN0eWxlPSJmaWxsLXJ1bGU6ZXZlbm9kZDtjbGlwLXJ1bGU6ZXZlbm9kZDtzdHJva2UtbGluZWpvaW46cm91bmQ7c3Ryb2tlLW1pdGVybGltaXQ6MjsiPgogICAgPGc+CiAgICAgICAgPGc+CiAgICAgICAgICAgIDxnPgogICAgICAgICAgICAgICAgPHBhdGggZD0iTTAsMTBMMTQuMTQxLDE5Ljk5OUwxNC4xNDEsMzQuMTRMMCwyNC4xNDFMMCwxMFoiIHN0eWxlPSJmaWxsOnJnYigzNiwxMzYsMTM4KTtmaWxsLXJ1bGU6bm9uemVybzsiLz4KICAgICAgICAgICAgPC9nPgogICAgICAgICAgICA8Zz4KICAgICAgICAgICAgICAgIDxwYXRoIGQ9Ik0wLDEwTDE0LjE0MiwwTDI4LjI4Myw5Ljk5OUwxNC4xNDEsMTkuOTk5TDAsMTBaIiBzdHlsZT0iZmlsbDpyZ2IoNTIsMTk5LDIwMSk7ZmlsbC1ydWxlOm5vbnplcm87Ii8+CiAgICAgICAgICAgIDwvZz4KICAgICAgICAgICAgPGc+CiAgICAgICAgICAgICAgICA8cGF0aCBkPSJNMTQuMTQxLDE5Ljk5OUwyOC4yODMsOS45OTlMMjguMjgzLDI0LjE0TDE0LjE0MSwzNC4xNEwxNC4xNDEsMTkuOTk5WiIgc3R5bGU9ImZpbGw6cmdiKDIwLDc2LDc3KTtmaWxsLXJ1bGU6bm9uemVybzsiLz4KICAgICAgICAgICAgPC9nPgogICAgICAgIDwvZz4KICAgIDwvZz4KICAgIDxwYXRoIGQ9Ik0yMS4yMTIsMTcuMDdMOC45NjYsMTBMOC45NjYsMjQuMTRMMjEuMjEyLDE3LjA3WiIgc3R5bGU9ImZpbGw6d2hpdGU7ZmlsbC1ydWxlOm5vbnplcm87Ii8+Cjwvc3ZnPgo=;" vertex="1" parent="1">
          <mxGeometry x="690" y="290" width="88" height="110" as="geometry" />
        </mxCell>
        <mxCell id="9p8DOmJokwP15oGAAXyM-46" value="" style="shape=image;aspect=fixed;image=data:image/svg+xml,PD94bWwgdmVyc2lvbj0iMS4wIiBlbmNvZGluZz0iVVRGLTgiIHN0YW5kYWxvbmU9Im5vIj8+CjwhRE9DVFlQRSBzdmcgUFVCTElDICItLy9XM0MvL0RURCBTVkcgMS4xLy9FTiIgImh0dHA6Ly93d3cudzMub3JnL0dyYXBoaWNzL1NWRy8xLjEvRFREL3N2ZzExLmR0ZCI+Cjxzdmcgd2lkdGg9IjEwMCUiIGhlaWdodD0iMTAwJSIgdmlld0JveD0iMCAwIDQwIDUwIiB2ZXJzaW9uPSIxLjEiIHhtbG5zPSJodHRwOi8vd3d3LnczLm9yZy8yMDAwL3N2ZyIgeG1sbnM6eGxpbms9Imh0dHA6Ly93d3cudzMub3JnLzE5OTkveGxpbmsiIHhtbDpzcGFjZT0icHJlc2VydmUiIHhtbG5zOnNlcmlmPSJodHRwOi8vd3d3LnNlcmlmLmNvbS8iIHN0eWxlPSJmaWxsLXJ1bGU6ZXZlbm9kZDtjbGlwLXJ1bGU6ZXZlbm9kZDtzdHJva2UtbGluZWpvaW46cm91bmQ7c3Ryb2tlLW1pdGVybGltaXQ6MjsiPgogICAgPGc+CiAgICAgICAgPGc+CiAgICAgICAgICAgIDxnPgogICAgICAgICAgICAgICAgPHBhdGggZD0iTTAsMTBMMTQuMTQxLDE5Ljk5OUwxNC4xNDEsMzQuMTRMMCwyNC4xNDFMMCwxMFoiIHN0eWxlPSJmaWxsOnJnYigzNiwxMzYsMTM4KTtmaWxsLXJ1bGU6bm9uemVybzsiLz4KICAgICAgICAgICAgPC9nPgogICAgICAgICAgICA8Zz4KICAgICAgICAgICAgICAgIDxwYXRoIGQ9Ik0wLDEwTDE0LjE0MiwwTDI4LjI4Myw5Ljk5OUwxNC4xNDEsMTkuOTk5TDAsMTBaIiBzdHlsZT0iZmlsbDpyZ2IoNTIsMTk5LDIwMSk7ZmlsbC1ydWxlOm5vbnplcm87Ii8+CiAgICAgICAgICAgIDwvZz4KICAgICAgICAgICAgPGc+CiAgICAgICAgICAgICAgICA8cGF0aCBkPSJNMTQuMTQxLDE5Ljk5OUwyOC4yODMsOS45OTlMMjguMjgzLDI0LjE0TDE0LjE0MSwzNC4xNEwxNC4xNDEsMTkuOTk5WiIgc3R5bGU9ImZpbGw6cmdiKDIwLDc2LDc3KTtmaWxsLXJ1bGU6bm9uemVybzsiLz4KICAgICAgICAgICAgPC9nPgogICAgICAgIDwvZz4KICAgIDwvZz4KICAgIDxwYXRoIGQ9Ik0yMS4yMTIsMTcuMDdMOC45NjYsMTBMOC45NjYsMjQuMTRMMjEuMjEyLDE3LjA3WiIgc3R5bGU9ImZpbGw6d2hpdGU7ZmlsbC1ydWxlOm5vbnplcm87Ii8+Cjwvc3ZnPgo=;" vertex="1" parent="1">
          <mxGeometry x="487" y="520" width="32" height="40" as="geometry" />
        </mxCell>
      </root>
    </mxGraphModel>
  </diagram>
</mxfile>
